<svg xmlns="http://www.w3.org/2000/svg" viewBox="554.474 330.6 6.21 6.21">
  <g id="instagram-logo" transform="translate(554.474 330.6)">
    <g id="Group_9" data-name="Group 9">
      <g id="Group_8" data-name="Group 8">
        <path id="Path_9" data-name="Path 9" d="M20.478,21.1a.621.621,0,1,0-.621-.622A.623.623,0,0,0,20.478,21.1Z" transform="translate(-17.374 -17.373)"/>
        <path id="Path_10" data-name="Path 10" d="M31.49,14.559v-.6h-.078l-.521,0,0,.6Z" transform="translate(-27.028 -12.214)"/>
        <path id="Path_11" data-name="Path 11" d="M3.1,0a3.1,3.1,0,1,0,3.1,3.1A3.108,3.108,0,0,0,3.1,0ZM4.871,2.743V4.188a.683.683,0,0,1-.682.683H2.022a.683.683,0,0,1-.682-.683V2.022a.683.683,0,0,1,.682-.682H4.188a.683.683,0,0,1,.683.682Z"/>
        <path id="Path_12" data-name="Path 12" d="M15.845,22.291a.966.966,0,1,1-1.861-.362h-.527v1.446a.338.338,0,0,0,.338.338h2.167a.339.339,0,0,0,.338-.338V21.929h-.527A.953.953,0,0,1,15.845,22.291Z" transform="translate(-11.774 -19.186)"/>
      </g>
    </g>
  </g>
</svg>
