<?xml version="1.0" encoding="utf-8"?>
<!-- Generator: Adobe Illustrator 21.1.0, SVG Export Plug-In . SVG Version: 6.00 Build 0)  -->
<svg version="1.1" id="Layer_1" xmlns="http://www.w3.org/2000/svg" xmlns:xlink="http://www.w3.org/1999/xlink" x="0px" y="0px"
	 viewBox="0 0 1366 768" style="enable-background:new 0 0 1366 768;" xml:space="preserve">
<style type="text/css">
	.st0{fill:#444444;}
	.st1{fill:#FFFFFF;}
	.st2{stroke:#FFFFFF;stroke-width:0.5;stroke-miterlimit:10;}
	.st3{clip-path:url(#SVGID_2_);}
	.st4{font-family:'OpenSans-BoldItalic';}
	.st5{font-size:45.9675px;}
</style>
<g>
	<path class="st0" d="M263.6,322.6c-41.7,0-75.9,34.1-75.9,75.9c0,41.8,34.1,75.9,75.9,75.9c41.8,0,75.9-34.1,75.9-75.9
		C339.5,356.7,305.4,322.6,263.6,322.6L263.6,322.6z M312.9,372.8c3.8,0,6.7,2.9,10.5,2.9c-2.9,3.8-15.2,3.8-19-1
		C307.2,373.8,309.1,372.8,312.9,372.8L312.9,372.8z M197.2,398.4c0-3.8,0-7.5,0.9-12.3c1,0,1.9,1,2.9,1c0,0,0.9,0.9,0.9,1.9
		c0,2.8,2.9,4.7,4.8,4.7c7.5,0.9,10.4,7.6,17,9.5c1.9,0.9,1,2.8,0,4.7c-5.7,7.6-0.9,13.3,3.8,18c4.8,3.8,4.8,7.6,5.7,13.3
		c0,6.6,1,14.2,3.8,20.9C213.4,448.7,197.2,425.9,197.2,398.4L197.2,398.4z M263.6,464.8c-6.6,0-14.2-0.9-19.9-2.8
		c-0.9-1.9-0.9-3.8,0-5.7c3.8-7.6,7.6-14.3,12.4-20.9c1.9-1.9,3.7-3.8,3.7-6.6c0-1.9,1-4.8,1.9-6.7c2.9-4.7,1.9-7.5-1.9-8.5
		c-7.6-1.9-11.3-8.5-17-11.4c-5.7-2.8-11.4-4.7-16.1-1.9c-1.9,1-4.8,1.9-4.8-0.9c0-3.8-4.7-6.6-3.8-10.4c-0.9,0-1.9,0-2.8,0.9
		c-1,1-1.9,1.9-3.8,1c-1.9-1.9-0.9-3.8-0.9-5.7c0.9-1.9,1.8-2.9,3.7-3.8c3.8-1,7.6-1,9.5,3.8c2.9-8.6,8.6-13.3,14.2-17.1
		c0,0,7.6-6.6,8.6-6.6c0.9,0,1.9,1.9,3.8,2.8c1.9,0,2.8,0,2.8-1.9c1-4.7-1.9-10.4-5.7-11.4c0-0.9,1-0.9,1-0.9c2.8-1,6.6-2.9,5.7-5.7
		c0-3.8-3.8-5.7-7.6-5.7c-1.9,0-3.8,0-5.7,1c-3.8,1.9-8.5,3.8-14.2,3.8c10.4-7.6,23.7-11.4,37-11.4h7.6c-5.7,0.9-11.4,2.8-15.1,4.7
		c5.6,1,6.6,3.8,4.7,8.6c-1,1.8,0,3.7,1.9,4.7c1.9,0.9,3.8,0.9,4.7-1c1.9-2.8,5.7-3.7,8.6-4.7c3.8-0.9,6.6-2.8,9.4-6.6
		c0-1,1-1,1.9-1.9c5.7,1.9,11.4,5.7,17.1,9.5c-0.9,0-0.9,0.9-1.9,0.9c-1.9,1.9-4.7,2.8-1.9,6.6c1,1.9,0,2.9-0.9,3.8
		c-1.9,1-2.9,0-3.8-0.9c-1-1-1-2.9-3.8-2.9c-1,1.9-3.8,2.9-3.8,5.7c4.7,0,3.8,3.8,4.7,6.7c-5.7,0.9-7.6,3.8-4.7,8.5
		c0.9,1.9-1,2.8-1.9,3.8c-3.8,5.7-7.6,9.5-7.6,16.1c0,6.6,4.7,13.3,12.3,12.3c8.6-0.9,8.6-0.9,11.4,6.7c0,0.9,1,1.9,1,2.8
		c0.9,1.9,1.9,3.8,0.9,5.7c-2.8,7.6,1,13.3,3.8,19c0.9,1.8,1.9,2.8,2.8,3.7C298.7,457.2,282.6,464.8,263.6,464.8L263.6,464.8z
		 M263.6,464.8"/>
</g>
<g>
	<path d="M203.1,356.1c-4.6,0-8.7-3.3-9.7-7.9l-0.4-25.6l0-0.1c-1.2-5.4,2.1-10.8,7.4-12l82.3-14.3c0.7-0.2,1.4-0.2,2.1-0.2
		c4.6,0,8.7,3.3,9.7,7.9l5.5,20.4c1.2,5.4-2.1,10.8-7.4,12l-87.5,19.6C204.5,356,203.8,356.1,203.1,356.1z"/>
	<path class="st1" d="M284.8,296.5L284.8,296.5c4.4,0,8.3,3.2,9.2,7.6l5.5,20.3c1.2,5.2-2,10.3-7,11.4L205,355.4
		c-0.7,0.1-1.3,0.2-2,0.2c-4.3,0-8.2-3.1-9.2-7.4l-0.4-25.5l0-0.1l0-0.1c-1.2-5.2,2-10.3,7-11.4l82.4-14.3
		C283.5,296.6,284.2,296.5,284.8,296.5 M284.8,295.5c-0.7,0-1.5,0.1-2.2,0.2l-82.4,14.3c-5.6,1.2-9.1,6.9-7.8,12.6l0.4,25.6
		c1.1,4.9,5.5,8.3,10.2,8.3c0.7,0,1.5-0.1,2.2-0.2l87.5-19.6c5.6-1.2,9.1-6.9,7.8-12.6l-5.5-20.4
		C293.9,298.9,289.6,295.5,284.8,295.5L284.8,295.5z"/>
</g>
<g>
	<polygon points="141.9,316.4 233.1,248.6 335.8,266.3 250.9,331.5 	"/>
	<path class="st1" d="M233.3,249.1l101.3,17.5L250.7,331l-107.5-14.9L233.3,249.1 M233,248l-92.4,68.7L251,332l86-66L233,248
		L233,248z"/>
</g>
<path class="st2" d="M239,285.9c-2.2,0-4,1.8-4,4c0,0.4,0.1,0.9,0.2,1.3l-59.8,28.9l-1.4,0.3l0,0.4l-0.3,0.1l0.3,0.4l-2.5,49.5
	c-0.9,0.2-1.8,0.7-2.4,1.5c-1.6,1.9-1.4,4.7,0.5,6.3c0.2,0.2,0.4,0.3,0.6,0.4c-1,0.6-1.7,1.8-1.7,3.1v15.4v12.4v3.6h3.6h0.9h3.6
	v-3.6v-12.4V382c0-1.3-0.7-2.4-1.7-3.1c0.4-0.2,0.8-0.5,1.1-0.9c1.6-1.9,1.4-4.7-0.5-6.3c-0.5-0.4-1.1-0.7-1.7-0.9l2.5-48.7
	l60.2-29.2c0.7,0.6,1.6,1,2.6,1c2.2,0,4-1.8,4-4C243,287.7,241.2,285.9,239,285.9z"/>
<g>
	<g>
		<defs>
			
				<rect id="SVGID_1_" x="192.8" y="319" transform="matrix(1 -6.040444e-03 6.040444e-03 1 -2.5273 1.6697)" width="164.7" height="200.5"/>
		</defs>
		<clipPath id="SVGID_2_">
			<use xlink:href="#SVGID_1_"  style="overflow:visible;"/>
		</clipPath>
		<path class="st3" d="M220.3,473.8c1.2-2.2,4.1-3,6.2-1.8c39.3,22.9,89.3,9,111.6-30.8c22.1-39.8,8.3-90.7-31-113.6
			c-2.1-1.2-2.9-4.2-1.7-6.4c1.2-2.2,4.1-3,6.2-1.8c43.7,25.5,59.1,82.2,34.4,126.3c-15.4,27.6-42.5,43.8-71.4,46.2l0.1,12.8
			l17.5-0.1c3.8,0,6.9,3.1,6.9,7c0,3.9-3,7-6.8,7.1l-44.2,0.3c-3.8,0-6.9-3.1-6.9-7c0-3.9,3-7,6.8-7.1l18.7-0.1l-1.2,0l-0.1-12.5
			c-14.8-0.2-29.7-4.2-43.5-12.2C219.9,478.8,219.1,476,220.3,473.8L220.3,473.8z M220.3,473.8"/>
	</g>
</g>
<text transform="matrix(0.9637 0 0 1 384.6123 441.7197)" class="st4 st5"> </text>
</svg>
