<svg xmlns="http://www.w3.org/2000/svg" xmlns:xlink="http://www.w3.org/1999/xlink" viewBox="1150.548 407.8 167.291 64.8">
  <defs>
    <style>
      .cls-1 {
        fill: #444;
      }

      .cls-2 {
        fill: #fff;
      }

      .cls-3 {
        clip-path: url(#clip-path);
      }

      .cls-4 {
        font-size: 22px;
        font-family: OpenSans-Bold, Open Sans;
      }

      .cls-4, .cls-5 {
        font-weight: 700;
      }

      .cls-5 {
        font-size: 10px;
        font-family: OpenSans-BoldItalic, Open Sans;
        font-style: italic;
      }
    </style>
    <clipPath id="clip-path">
      <rect id="Rectangle_1" data-name="Rectangle 1" width="42.549" height="47.771" transform="translate(0 0.257) rotate(-0.346)"/>
    </clipPath>
  </defs>
  <g id="logo" transform="translate(1150.548 407.8)">
    <g id="Group_1" data-name="Group 1" transform="translate(12.161 17.767)">
      <path id="Path_1" data-name="Path 1" class="cls-1" d="M207.3,322.6c-10.767,0-19.6,8.121-19.6,18.076s8.8,18.076,19.6,18.076,19.6-8.121,19.6-18.076-8.8-18.076-19.6-18.076Zm12.729,11.956c.981,0,1.73.691,2.711.691-.749.9-3.925.9-4.906-.238a6.4,6.4,0,0,1,2.195-.452Zm-29.873,6.1a13.509,13.509,0,0,1,.232-2.929c.258,0,.491.238.749.238a.74.74,0,0,1,.232.452,1.282,1.282,0,0,0,1.239,1.119c1.937.214,2.685,1.81,4.389,2.263.491.214.258.667,0,1.119-1.472,1.81-.232,3.168.981,4.287,1.239.9,1.239,1.81,1.472,3.168a12.3,12.3,0,0,0,.981,4.977c-6.093-2.715-10.276-8.145-10.276-14.694ZM207.3,356.466a18.773,18.773,0,0,1-5.138-.667,1.409,1.409,0,0,1,0-1.357,33.808,33.808,0,0,1,3.2-4.977,2.224,2.224,0,0,0,.955-1.572,4.219,4.219,0,0,1,.491-1.6c.749-1.119.491-1.786-.491-2.024-1.962-.452-2.918-2.024-4.389-2.715-1.472-.667-2.943-1.119-4.157-.453-.491.238-1.239.453-1.239-.214,0-.9-1.213-1.572-.981-2.477a.958.958,0,0,0-.723.214.776.776,0,0,1-.981.238c-.491-.453-.232-.9-.232-1.358a1.712,1.712,0,0,1,.955-.9c.981-.238,1.962-.238,2.453.9a8.022,8.022,0,0,1,3.666-4.072,16.506,16.506,0,0,1,2.22-1.572c.232,0,.491.453.981.667.491,0,.723,0,.723-.453a2.386,2.386,0,0,0-1.472-2.715c0-.214.258-.214.258-.214.723-.238,1.7-.691,1.472-1.357,0-.9-.981-1.357-1.962-1.357a3.194,3.194,0,0,0-1.472.238,8.6,8.6,0,0,1-3.666.9,17.258,17.258,0,0,1,9.553-2.715h1.962a14.738,14.738,0,0,0-3.9,1.119c1.446.238,1.7.9,1.213,2.048-.258.429,0,.881.491,1.119.491.214.981.214,1.214-.238a4.223,4.223,0,0,1,2.22-1.119,4,4,0,0,0,2.427-1.572c0-.238.258-.238.491-.452a20.431,20.431,0,0,1,4.415,2.262c-.232,0-.232.214-.491.214-.491.453-1.213.667-.491,1.572.258.452,0,.691-.232.905a.762.762,0,0,1-.981-.214c-.258-.238-.258-.691-.981-.691-.258.452-.981.691-.981,1.358,1.213,0,.981.9,1.213,1.6-1.472.214-1.962.9-1.213,2.024.232.453-.258.667-.491.905-.981,1.357-1.962,2.263-1.962,3.834a2.835,2.835,0,0,0,3.176,2.929c2.22-.214,2.22-.214,2.943,1.6,0,.214.258.453.258.667.232.452.491.9.232,1.358-.723,1.81.258,3.167.981,4.525a3.173,3.173,0,0,0,.723.881,16.994,16.994,0,0,1-12.264,4.977Zm0,0" transform="translate(-187.7 -322.6)"/>
    </g>
    <g id="Group_2" data-name="Group 2" transform="translate(13.304 11.312)">
      <path id="Path_2" data-name="Path 2" d="M195.425,310.313a2.549,2.549,0,0,1-2.5-1.882l-.1-6.1v-.024a2.384,2.384,0,0,1,1.911-2.858l21.249-3.406a2.092,2.092,0,0,1,.542-.048,2.549,2.549,0,0,1,2.5,1.881l1.42,4.858a2.384,2.384,0,0,1-1.911,2.858l-22.592,4.668A3.422,3.422,0,0,1,195.425,310.313Z" transform="translate(-192.592 -295.881)"/>
      <path id="Path_3" data-name="Path 3" class="cls-2" d="M216.056,295.738h0a2.411,2.411,0,0,1,2.375,1.81l1.42,4.835a2.243,2.243,0,0,1-1.807,2.715l-22.592,4.668a3.767,3.767,0,0,1-.516.048,2.441,2.441,0,0,1-2.375-1.762l-.1-6.073v-.048a2.243,2.243,0,0,1,1.807-2.715l21.275-3.406a2.076,2.076,0,0,1,.516-.071m0-.238a4.577,4.577,0,0,0-.568.048l-21.275,3.406a2.485,2.485,0,0,0-2.014,3l.1,6.1a2.7,2.7,0,0,0,2.634,1.977,4.57,4.57,0,0,0,.568-.048l22.592-4.668a2.485,2.485,0,0,0,2.014-3l-1.42-4.858a2.687,2.687,0,0,0-2.634-1.953Z" transform="translate(-192.129 -295.5)"/>
    </g>
    <g id="Group_3" data-name="Group 3" transform="translate(0 0)">
      <path id="Path_4" data-name="Path 4" d="M141.9,264.747,165.447,248.6l26.516,4.215-21.921,15.528Z" transform="translate(-141.564 -248.457)"/>
      <path id="Path_5" data-name="Path 5" class="cls-2" d="M164.535,248.262l26.155,4.168-21.662,15.337-27.756-3.549,23.263-15.957m-.077-.262L140.6,264.361l28.5,3.644,22.2-15.718L164.457,248Z" transform="translate(-140.6 -248)"/>
    </g>
    <path id="Path_6" data-name="Path 6" d="M186.35,285.9a1,1,0,0,0-1.033.953,1.292,1.292,0,0,0,.052.31l-15.44,6.883-.361.071v.1l-.077.024.077.1-.645,11.789a1.08,1.08,0,0,0-.62.357,1,1,0,0,0,.129,1.5.548.548,0,0,0,.155.1.858.858,0,0,0-.439.738v7.478h2.091v-7.5a.889.889,0,0,0-.439-.738.8.8,0,0,0,.284-.214,1,1,0,0,0-.129-1.5,1.483,1.483,0,0,0-.439-.214l.645-11.6,15.543-6.954a1.082,1.082,0,0,0,.671.238,1,1,0,0,0,1.033-.953A1.039,1.039,0,0,0,186.35,285.9Z" transform="translate(-160.944 -276.874)"/>
    <g id="Group_6" data-name="Group 6" transform="translate(13.323 16.772)">
      <g id="Group_5" data-name="Group 5" transform="translate(0 0)">
        <g id="Group_4" data-name="Group 4" class="cls-3" transform="translate(0)">
          <path id="Path_7" data-name="Path 7" d="M219.882,355.747a1.245,1.245,0,0,1,1.6-.429c10.147,5.454,23.057,2.143,28.814-7.335,5.706-9.479,2.143-21.6-8-27.055a1.114,1.114,0,0,1-.439-1.524,1.245,1.245,0,0,1,1.6-.429c11.283,6.073,15.259,19.577,8.882,30.079a23.44,23.44,0,0,1-18.435,11l.026,3.048,4.518-.024a1.681,1.681,0,1,1,.026,3.358l-11.412.071a1.681,1.681,0,1,1-.026-3.358l4.828-.024h-.31l-.026-2.977a24.424,24.424,0,0,1-11.231-2.906,1.106,1.106,0,0,1-.413-1.5Zm0,0" transform="translate(-212.626 -318.743)"/>
        </g>
      </g>
    </g>
    <g id="Group" transform="translate(60.291 11.279)">
      <text id="STUDENT_" data-name="STUDENT " class="cls-4" transform="translate(0 24)"><tspan x="0" y="0">STUDENT </tspan></text>
      <text id="ABROAD_" data-name="ABROAD " class="cls-5" transform="translate(61.775 35.714)"><tspan x="0" y="0">ABROAD </tspan></text>
    </g>
  </g>
</svg>
