<svg xmlns="http://www.w3.org/2000/svg" viewBox="0 0 337.5 105.44"><defs><style>.cls-1{fill:#c93b2d;}</style></defs><title>logo</title><g id="Vrstva_2" data-name="Vrstva 2"><g id="Vrstva_1-2" data-name="Vrstva 1"><path class="cls-1" d="M184.93,54.25a80.38,80.38,0,0,0-7.36,3.48c-3.06,1.83-3.29,2.73-2.68,6.35a13.33,13.33,0,0,0,2.12,4.6c1.15,1.84,2.55,3.52,3.86,5.26.4.53.84,1,1.37,1.69,5.25-4.09,11.18-6.45,17.43-8.1a3.16,3.16,0,0,0,.77-.27C202,66.38,202,66.38,204,67c.94-2.36,2.06-4.7,2.8-7.15q7.32-24.43,14.49-48.91c.77-2.62,1.31-5.3,2-8,.13-.52.29-1,.49-1.73,1.37.83,1.7-.55,2.71-1.23,1.41,1.34,2.85,2.66,4.22,4.06.66.67.42,1.5.15,2.31-1.22,3.7-2.46,7.39-3.6,11.11-3.7,12.15-7.44,24.29-11,36.48C214,61.43,212,69,210,76.47a1.41,1.41,0,0,0,.12,1.11c.92-1.17,1.86-2.32,2.74-3.51,2.67-3.63,5.26-7.33,8-10.91,1.41-1.84,3.06-3.49,4.64-5.18a17.48,17.48,0,0,1,1.89-1.51,20,20,0,0,1,1.36,1.63c1.14,1.71,2.21,3.46,3.36,5.16a2.36,2.36,0,0,1,.32,2.49c-.28.62-.43,1.3-.68,1.93a156.69,156.69,0,0,0-6.24,20.78,10.41,10.41,0,0,0-.37,2.22,3.33,3.33,0,0,0,.42,1.67,10.72,10.72,0,0,1,1,4c-2.16-1.3-4.23-2.54-6.28-3.8a1.16,1.16,0,0,1-.54-.58c-.38-1.71-1.18-3.29-.88-5.18a90.22,90.22,0,0,1,7.23-23.41,1.84,1.84,0,0,0,.16-1.34,16.19,16.19,0,0,0-1.41,1.4c-2.2,2.79-4.48,5.53-6.54,8.42-3.48,4.9-6.85,9.89-10.19,14.89-1,1.5-1.74,3.16-2.67,4.87l-7.2-4.47c.65-6.25,3.08-12,5-18.29a71.68,71.68,0,0,0-18.91,8.9c.38.51.66.93,1,1.32,2.53,3,5,5.95,6.21,9.79a3.23,3.23,0,0,0,.43.92c2.93,4.15,1.46,11.22-3.09,14.4a8.28,8.28,0,0,1-1.23.73,14.73,14.73,0,0,1-1.42.5l-1-1.35-.55,0c-2.31-.16-4.62-.32-6.93-.49a1.46,1.46,0,0,1-.77-.25c-2.11-1.69-4.21-3.41-6.67-5.41,2.84-.37,5.24-.74,7.65-1a10.34,10.34,0,0,0,7.54-4c-2.37-3.37-4.13-7.16-7.16-10.43-2.42,2.31-4.83,4.43-7,6.75A7.57,7.57,0,0,0,168.94,95a4.74,4.74,0,0,1-.35,1.37,2.29,2.29,0,0,1-1.65-2.53c0-3.35,1.61-5.88,3.75-8.16,1.26-1.35,2.68-2.54,4.06-3.77.5-.45,1.08-.81,1.56-1.17l-6-7.12L152.48,97.8c-.84-.83-1.53-1.46-2.16-2.14-1.77-1.9-3.51-3.83-5.3-5.71a2.92,2.92,0,0,1-1-2.57c.36-2.35.58-4.74,1.11-7.05.59-2.58,1.45-5.09,2-7.74a114.4,114.4,0,0,0-10.29,12c-3.23,4.14-5.39,9-9.27,12.89a9.63,9.63,0,0,1-1.1-.89c-1.66-1.81-3.27-3.68-5-5.46a2.91,2.91,0,0,1-.74-3,78.9,78.9,0,0,1,4.9-14.33c1.17-2.6,2.36-5.19,3.31-8a3.17,3.17,0,0,0-.56.34C122.13,72,115.81,77.9,110.85,85c-1.91,2.75-3.78,5.55-4.32,9-.16,1-.23,2-.37,3.27-2-1.79-3.92-3.34-5.67-5a2.44,2.44,0,0,1-.4-1.87c.42-2.63,1-5.24,1.46-7.85a1.94,1.94,0,0,0,0-1.09c-2,3-3.92,6.09-6.13,8.93S90.61,95.77,88,98.67a63.5,63.5,0,0,1-5.74-6.41c-1.33-1.94-1.21-4.45-.89-6.77.28-2,.77-4,1.16-6a5,5,0,0,0,.11-1.35,91,91,0,0,1-18.92,22.58c-.73-.63-1.42-1.22-2.1-1.81-1.54-1.35-3.13-2.66-4.59-4.1a5.11,5.11,0,0,1-1.31-2.2c-1.08-4-.53-8,.12-12a8.15,8.15,0,0,0,.21-1.74c-6.2,7-11.46,14.81-18.25,21.48-.88-1-1.65-2-2.46-2.87A56.51,56.51,0,0,0,31,92.88a3,3,0,0,1-.95-3.26c.46-2.27.78-4.57,1.16-6.86.13-.75.29-1.52-.82-1.85l-4.78,5.55a4.59,4.59,0,0,1-2.27,1.63A6,6,0,0,0,21,89.61c-3,3-6,6-9,9-.61.61-1.29,1.16-2,1.78L8,99l-1.11.54c-.14-.2-.31-.34-.35-.51a5.07,5.07,0,0,0-1.93-3c-1.41-1.18-2.6-2.62-4-3.87A2.21,2.21,0,0,1,.06,90,63.9,63.9,0,0,1,9.89,65c1.38-2.11,2.85-4.17,4.33-6.22a9.45,9.45,0,0,1,3.39-2.9,26.77,26.77,0,0,0,3.06-2,4.89,4.89,0,0,1,3-1c1.19,0,2.37-.7,4-1.24C29.2,52.82,31.11,54,31.31,57a96.94,96.94,0,0,0,1.87,12.6c.27-1.43.57-2.85.8-4.28a163.66,163.66,0,0,1,8.86-32.55c2-5.28,3.51-10.77,5.15-16.19a56.63,56.63,0,0,1,3.56-9.7A39.79,39.79,0,0,1,55.89,12c.58,1,.89,2.13,1.58,3.12.21.3-.06,1-.27,1.5C56.64,17.83,56,19,55.38,20.26a68,68,0,0,0-4.12,10.91c-.73,2.69-1.74,5.32-2.73,7.94a151.15,151.15,0,0,0-7.89,27.74c-1,5.92-2.13,11.83-3.11,17.75C37,87.8,36.64,91,36.14,94.72a21.26,21.26,0,0,0,1.76-1.57c5.94-6.82,12.5-13,18.92-19.35a9.21,9.21,0,0,0,1.76-2.69c1.23-2.67,2.33-5.39,3.52-8.08,1.65-3.72,4.64-6.23,8-8.34a5.41,5.41,0,0,1,6.69.32A46.81,46.81,0,0,1,81,58.8,9.21,9.21,0,0,1,83.44,66c-.06,1.29-.25,2.57-.43,4.23a4.78,4.78,0,0,0,1.56-2.4c.83-4,1.66-8,2.39-12.05a13.66,13.66,0,0,0-.24-3.14,35.66,35.66,0,0,1,9,6.77C93.46,69,91.85,78.93,90.12,89.23a26.34,26.34,0,0,0,6.14-5.65c2.43-3.13,4.59-6.46,6.82-9.73a6,6,0,0,0,.75-1.89c1.36-5.28,2.69-10.58,4-15.92,1.23,0,2.51,1.36,4.07.34,1.75,2.07,4.16,3.5,5.68,5.74-4.8,8.64-7.41,13.44-7.94,18l23.8-22.43c1,1.08,1.93,2,2.83,3s1.82,2,2.74,3c-3.93,8.59-8.41,16.87-11.19,25.87l.39.27c.54-.56,1.12-1.09,1.62-1.69,2.37-2.83,4.76-5.64,7-8.54a60.12,60.12,0,0,1,10.18-10.36,10.28,10.28,0,0,0,3-4c1.37-3,3-5.83,4.52-8.73a7.41,7.41,0,0,1,.69-.9l6,5.7c-5.44,8-8.28,17-10.73,26.08a23.2,23.2,0,0,0-.51,2.82,15.43,15.43,0,0,0,0,1.77c.6-.61,1-.94,1.3-1.33,3.46-4.23,6.85-8.52,10.38-12.7,2.12-2.5,4.39-4.87,6.69-7.21a2.61,2.61,0,0,0,.76-2.91,18.83,18.83,0,0,1-.88-5.41,13.1,13.1,0,0,1,1.88-7.2,6,6,0,0,1,2.58-2.19c3.84-1.56,7.71-1.75,11.4.56A6.49,6.49,0,0,1,184.93,54.25ZM9,94.64l.45.31a14.86,14.86,0,0,0,7-5.92,128.37,128.37,0,0,1,9.64-13.5,4.62,4.62,0,0,0,1-2c.75-4,1.91-7.93,1.37-12.14a6.85,6.85,0,0,0-2.32-4.5c-.59.59-1.13,1.09-1.63,1.63a46.8,46.8,0,0,0-7.22,10.9c-3.44,6.74-5.38,14-7.46,21.22C9.44,92,9.25,93.32,9,94.64Zm55.57-2.55a5.53,5.53,0,0,0,.79-.44,90.74,90.74,0,0,0,13.48-15.1,5.84,5.84,0,0,0,.76-2.05q.54-2.39.94-4.81a36.7,36.7,0,0,0,.71-5.24,2.78,2.78,0,0,0-3.29-2.79,6.88,6.88,0,0,0-2.83,1A47.55,47.55,0,0,0,69.61,67a7.26,7.26,0,0,0-2,3.24c-1.15,4.2-2.18,8.45-3.05,12.72A28,28,0,0,0,64.54,92.09Z"/><path class="cls-1" d="M164.36,48.56a15.43,15.43,0,0,1-.91-2.09c-.49-1.77-.85-3.57-1.34-5.34a4.31,4.31,0,0,1,.43-3.51,29.93,29.93,0,0,0,1.8-3.66c.48-1.18.8-2.42,1.29-3.94a63,63,0,0,1,4.94,4.87,3.53,3.53,0,0,1,.37,2.89C169.65,41.67,168,45.4,165,48.34,164.91,48.42,164.75,48.43,164.36,48.56Z"/><path class="cls-1" d="M184.19,68.29C182.54,65.92,182.47,64,184,62c1.34-1.67,2.23-3.39,1.53-5.61a7.76,7.76,0,0,1,0-1.92,6.69,6.69,0,0,1,3.53,5.69A9.15,9.15,0,0,1,184.19,68.29Z"/><path d="M278.62,19.36c0,6-4.24,10.32-10,10.32a9.66,9.66,0,0,1-9.24-6.08v6.08h-.8V0h.8V15.08A9.66,9.66,0,0,1,268.58,9C274.38,9,278.62,13.36,278.62,19.36Zm-.8,0c0-5.52-3.88-9.56-9.24-9.56s-9.24,4-9.24,9.56,3.88,9.52,9.24,9.52S277.82,24.88,277.82,19.36Z"/><path d="M300.06,25.88l.56.56a10.56,10.56,0,0,1-7.88,3.24c-5.72,0-10-4.32-10-10.36S287,9,292.74,9s9.6,4.32,9.6,10.32H283.59c0,5.64,3.84,9.56,9.16,9.56A9.63,9.63,0,0,0,300.06,25.88Zm-16.44-7.36h17.92c-.36-5.16-3.68-8.72-8.8-8.72A8.92,8.92,0,0,0,283.63,18.52Z"/><path d="M317.78,28.2a7,7,0,0,1-4.08,1.48c-2.88,0-4.4-1.92-4.4-5.68V10.2h-3V9.4h3V4.48h.8V9.4h7.28v.8H310.1V24c0,3.2,1.24,4.92,3.6,4.88a6,6,0,0,0,3.6-1.32Z"/><path d="M336.66,25c-1.84,3.24-5,4.68-8.68,4.68-4,0-6.72-2.52-6.72-6s3-5.32,7.68-5.32h7.68V15.88c0-3.8-2.2-6.08-6.56-6.08a11.41,11.41,0,0,0-7.24,2.88l-.48-.64a12.24,12.24,0,0,1,7.72-3c4.76,0,7.32,2.68,7.36,6.88l.08,13.8h-.8Zm0-1.8,0-4h-7.68c-4.4,0-6.88,1.64-6.88,4.52,0,3,2.32,5.16,6,5.16C332,28.88,335,27.28,336.66,23.2Z"/></g></g></svg>