<?xml version="1.0" encoding="utf-8"?>
<!-- Generator: Adobe Illustrator 16.0.4, SVG Export Plug-In . SVG Version: 6.00 Build 0)  -->
<!DOCTYPE svg PUBLIC "-//W3C//DTD SVG 1.1//EN" "http://www.w3.org/Graphics/SVG/1.1/DTD/svg11.dtd">
<svg version="1.1" id="Layer_1" xmlns:sketch="http://www.bohemiancoding.com/sketch/ns"
	 xmlns="http://www.w3.org/2000/svg" xmlns:xlink="http://www.w3.org/1999/xlink" x="0px" y="0px" width="350px" height="46.57px"
	 viewBox="75 0 350 46.57" enable-background="new 75 0 350 46.57" xml:space="preserve">
<title>logo-black</title>
<desc>Created with Sketch.</desc>
<path sketch:type="MSShapeGroup" d="M398.479,28.632c0,3.43-0.157,10.139-0.157,10.374l-0.233,0.23l-6.476-4.051V19.271
	c1.014-1.559,2.418-2.341,3.666-2.341c1.482,0,2.573,1.092,3.119,2.575C398.397,20.129,398.479,24.263,398.479,28.632
	L398.479,28.632z M419.851,22.158l-6.007,4.913V15.917L419.851,22.158z M403.938,36.277c-0.391-3.509-0.31-13.029-0.31-17.475
	c0-2.886-2.498-4.992-5.619-6.319l-6.396,5.381v-11.7c0-1.948,1.169-4.058,2.572-4.058v-0.39c-3.041,0-6.393,2.42-6.94,3.98
	c-0.701-1.172-2.339-1.875-3.897-1.875l-0.081,0.624c1.562,0,3.042,2.655,3.042,7.336c0,9.437-0.076,18.488-0.076,22.384
	c0,1.252-0.157,2.109-0.86,3.123l9.597,5.848c3.664-3.428,5.07-4.443,8.972-6.861L403.938,36.277z M425.079,34.795l-0.472-0.473
	c-2.416,2.422-3.824,3.434-5.226,3.434c-1.406,0-2.731-0.857-5.538-3.041v-6.396l10.999-8.814c-2.575-2.184-7.878-7.489-7.878-7.489
	c-2.967,2.655-4.682,4.136-8.815,7.022c0.157,0.857,0.312,2.025,0.312,2.963v12.403c0,0.859-0.078,1.482-0.392,2.496l8.658,6.08
	L425.079,34.795z M322.5,29.88c0,2.105-0.627,3.43-2.029,4.522c-3.198-3.121-4.757-7.487-4.757-11.857
	c0-6.549,2.26-9.05,5.382-11.309c0.468-0.391,0.935-0.705,1.404-1.014V29.88z M330.923,38.85c-4.132-0.311-7.33-1.715-9.826-3.822
	c3.819-2.651,6.239-3.975,6.239-8.039V6.788l1.173-0.934c0.857,0.31,1.558,0.621,2.416,0.934v32.06L330.923,38.85z M343.093,29.643
	c0,2.267-0.233,3.824-0.857,5.699c-2.262,2.258-5.62,3.586-9.438,3.586h-1.094V18.881c0.704-0.079,1.326-0.157,1.951-0.157
	C339.271,18.724,343.093,23.794,343.093,29.643z M340.05,11.157l-8.346,7.41V7.102C334.669,8.272,337.321,9.676,340.05,11.157z
	 M376.09,38.463l-0.467,0.309l-6.629-4.213V15.917l7.018,3.431L376.09,38.463L376.09,38.463z M348.321,4.448l-0.705-0.624
	l-2.57,2.731c0,0-6.634-2.184-12.015-5.302c-7.409,5.615-13.025,9.592-20.281,14.743c-1.717,2.572-2.652,5.925-2.652,9.594
	c0,9.981,9.204,17.782,20.825,17.782c7.567-3.195,12.951-7.645,16.928-13.025c0.233-1.091,0.312-2.652,0.312-3.509
	c0-7.256-4.913-11.31-10.141-12.558l10.298-9.832L348.321,4.448L348.321,4.448z M381.862,16.539l-9.36-4.833
	c-2.887,2.649-5.693,4.598-9.438,6.47c0.233,0.705,0.468,3.591,0.468,5.386v12.871c-0.857,0.934-1.72,1.404-2.576,1.404
	c-0.857,0-1.792-0.391-2.963-1.248V5.387c0-1.795,1.092-3.903,2.497-3.903v-0.23c-2.889,0-5.463,1.323-6.239,3.506
	c-0.706-1.169-1.794-2.184-3.434-2.184l-0.077,0.314c0.936,0,1.874,2.65,1.874,5.145v25.041c0,2.42-0.314,3.668-1.248,4.994
	l6.237,4.523l5.85-5.068l9.05,5.455c3.433-3.195,5.463-5.068,9.282-7.328c-0.233-1.172-0.312-3.433-0.312-4.371V20.208
	c0-1.874,0.078-2.888,0.392-3.668L381.862,16.539z M233.73,39.084c-2.265-2.029-5.383-3.74-10.375-3.74L231,27.229l2.651,2.338
	L233.73,39.084L233.73,39.084z M236.303,20.286l-6.55,7.095l-2.887-2.104v-9.438C229.83,17.864,231.544,18.958,236.303,20.286
	L236.303,20.286z M268.519,39.236l-0.31,0.238l-6.241-3.822V16.15l6.551,3.9V39.236z M274.602,36.352
	c-0.309-1.008-0.386-2.029-0.386-2.961V17.009l-8.505-4.76c-2.729,2.729-5.854,4.681-9.827,6.866c0.232,0.779,0.39,2.027,0.39,2.886
	v13.806c-1.247,1.328-2.498,2.107-3.589,2.107c-1.092,0-2.183-0.465-3.355-1.713c0-1.094,0.078-12.951,0.078-20.203h6.084v-1.484
	l-6.084-0.233c0,0,0.078-5.695,0.156-6.867h-0.7l-8.505,8.972c-3.665-0.545-6.395-1.872-10.375-4.6
	c-3.118,3.194-5.226,4.676-8.968,6.471c0.154,1.874,0.232,2.887,0.232,4.76c0,2.184,0,2.884-0.156,4.761l4.992,3.506l-4.681,4.917
	c-2.025,2.105-2.807,3.82-2.807,5.535c0,1.562,0.625,2.809,1.559,3.98l0.547-0.311c-0.625-0.938-1.017-2.031-1.017-3.041
	c0-1.639,0.859-3.043,3.277-3.043c2.42,0,5.072,1.557,7.724,3.662c2.964-2.729,5.151-4.52,8.424-6.156v-7.96
	c0-0.938,0.078-1.327,0.313-1.95l-4.995-3.354l6.398-6.945h2.964c0,7.099-0.079,16.226-0.079,17.24c0,1.248-0.234,2.811-1.091,4.057
	l7.099,5.223l6.085-5.537l8.814,5.771c3.433-3.193,6.162-5.301,9.981-7.02L274.602,36.352z M302.921,37.447l-0.543-0.625
	l-2.657,2.262c-1.325,0-2.26-0.938-2.26-2.418c0-1.324,0.079-16.774,0.155-19.425c-1.014-2.031-2.341-3.588-5.303-4.604
	l-7.102,5.226c0-2.183-1.246-4.133-3.663-5.381l-4.136,3.512l2.185,2.337c0,0-0.078,13.728-0.078,15.989
	c0,2.268-1.638,3.906-1.638,3.906l6.475,4.752l3.434-4.207l-2.575-2.338V19.27c1.247-1.637,2.575-2.341,3.747-2.341
	c1.323,0,2.416,0.936,2.728,2.265c0.078,1.013,0.078,2.651,0.078,4.368c0,2.651,0,12.009-0.078,15.675
	c0.467,1.639,2.887,3.9,4.446,3.9l6.786-5.691L302.921,37.447z M188.719,25.823l-0.157,11.23c-1.168,0.627-1.948,1.018-3.041,1.795
	c-0.857-0.543-1.714-1.092-2.729-1.715V22.625L188.719,25.823z M189.578,16.072c0,1.713-1.56,2.575-6.787,5.849v-4.992
	c0-2.496,0.156-3.899,0.233-4.915h-1.091c0.156,1.092,0.234,2.418,0.234,4.915v19.895c-3.277-1.953-7.255-3.981-11.469-4.292
	c3.979-2.262,7.958-5.304,7.958-9.754V13.03c0-3.121,1.248-4.995,4.525-7.801c2.573,3.821,3.59,5.459,5.615,8.892
	C189.266,14.9,189.578,15.681,189.578,16.072L189.578,16.072z M211.652,39.084l-0.311,0.234l-6.164-3.746V15.837l6.475,3.666
	L211.652,39.084L211.652,39.084z M179.36,3.902l-0.156-0.469c-3.277,0-5.072-0.392-6.789-0.701
	c-1.638-0.233-3.042-0.547-4.991-0.547c-5.15,0-8.505,2.654-8.505,6.943c0,1.795,0.39,2.808,1.56,4.135l0.468-0.468
	c-0.625-0.782-0.935-1.56-0.935-2.42c0-1.871,1.56-3.508,4.991-3.508c2.576,0,4.915,0.468,6.943,0.936
	c-4.368,3.196-7.023,5.537-7.023,12.325c-0.623-0.235-1.482-0.39-2.651-0.39c-3.275,0-4.991,2.183-4.991,4.288
	c0,0.938,0.232,1.953,0.857,2.652l0.546-0.308c-0.235-0.472-0.392-0.939-0.392-1.406c0-1.402,1.092-2.497,3.121-2.497
	c1.794,0,3.121,0.781,3.743,1.875c0,4.759-0.934,7.177-3.43,7.177v0.542c3.743,0,8.267-2.729,8.267-7.097v-8.737
	c0-7.178,4.211-10.53,9.361-12.325H179.36z M195.662,23.638l-6.943-4.602c2.652-1.639,3.511-2.108,4.446-2.808
	c1.64-1.171,2.108-1.874,2.108-2.575c0-0.547-0.235-1.561-1.481-3.432c-1.561-2.341-3.042-4.603-6.163-8.969
	c-4.368,2.964-6.786,4.754-11.388,8.346c-1.873,1.48-3.277,3.821-3.277,6.785c0,1.014,0.079,6.241,0.079,9.674
	c0,2.651-0.469,4.058-3.277,6.395c-6.785,0-10.843,4.373-10.843,8.738c0,1.875,0.625,3.824,2.028,5.381l0.469-0.467
	c-0.859-0.939-1.559-2.418-1.559-4.133c0-2.344,1.716-4.918,7.098-4.918c5.929,0,11.465,4.061,14.664,6.01
	c4.603-3.902,7.49-5.541,13.417-7.492v-9.906c0-0.7,0.234-1.403,0.625-2.027L195.662,23.638z M217.972,16.852l-8.97-4.915
	c-2.732,2.732-6.24,4.915-10.218,7.1c0.543,1.638,0.388,3.741,0.388,6.395c0,6.476,0.077,9.987-1.092,11.702l9.906,6.086
	c2.73-2.811,5.694-4.992,9.675-7.178c-0.312-1.014-0.392-2.027-0.392-2.965V22C217.27,18.725,217.583,17.556,217.972,16.852
	L217.972,16.852z M87.078,29.022c0,2.34-0.391,3.744-1.639,4.835c-2.885-2.964-4.446-7.177-4.446-11.936
	c0-2.652,0.469-4.678,1.403-6.084c1.561-1.405,3.434-2.731,4.681-3.433V29.022z M95.971,38.848
	c-3.899-0.469-7.255-1.949-9.752-4.209c4.837-3.51,5.928-5.541,5.928-9.441V9.362l0.155-0.156c1.561,0.156,2.421,0.233,3.669,0.312
	V38.848L95.971,38.848z M142.773,22.234l-6.317,5.069v-10.92l0.233-0.233L142.773,22.234z M147.688,34.793l-0.468-0.471
	c-2.497,2.656-3.587,3.357-5.46,3.357c-1.403,0-3.041-0.857-5.303-2.967v-6.394l11.232-8.58l-7.644-7.568
	c-3.355,2.65-3.9,3.12-6.319,4.993c-1.326,1.011-2.105,1.482-2.964,1.873c0.157,0.934,0.311,2.261,0.311,3.197v14.274
	c-1.324,1.246-2.574,1.795-3.508,1.795c-1.25,0-2.185-0.781-2.185-2.105V17.085c-0.779-2.417-2.261-3.98-5.147-4.992l-7.101,5.771
	V4.447c0-1.948,1.094-3.744,2.107-4.211V0c-2.886,0-4.914,1.875-5.772,4.06l-1.248-2.577l-0.469,0.079v34.323
	c-2.809,1.482-5.85,3.121-9.205,3.121c-0.622,0-1.17,0-1.795-0.078V9.599c1.482,0.154,2.42,0.232,3.278,0.232
	c1.324,0,2.184-0.232,2.808-0.545l3.824-7.801l-0.626-0.155c-1.481,2.964-2.26,3.431-5.459,3.431c-1.482,0-4.758-0.389-8.036-0.778
	c-3.12-0.391-6.318-0.78-7.955-0.78c-4.837,0-7.645,3.354-7.645,6.788c0,1.402,0.466,2.808,1.404,4.056l0.544-0.39
	c-0.623-0.78-1.013-1.796-1.013-2.655c0-1.401,1.091-2.649,4.057-2.649c1.171,0,5.305,0.392,9.204,0.7
	c-4.446,2.186-8.11,4.525-12.401,7.802c-1.873,2.496-2.81,5.693-2.81,8.972c0,8.423,6.397,17.548,20.518,17.548
	c4.133-2.34,10.218-5.848,10.218-5.848l5.616,5.07l3.9-3.824l-3.042-3.199V19.271c1.326-1.793,2.808-2.574,3.98-2.574
	c1.325,0,2.573,0.937,2.886,2.652v19.579c0.467,1.641,2.417,3.195,4.368,3.742l6.942-5.223l8.036,5.533l8.345-8.186L147.688,34.793z
	"/>
</svg>
