<?xml version="1.0" encoding="utf-8"?>
<!-- Generator: Adobe Illustrator 21.1.0, SVG Export Plug-In . SVG Version: 6.00 Build 0)  -->
<svg version="1.1" xmlns="http://www.w3.org/2000/svg" xmlns:xlink="http://www.w3.org/1999/xlink" x="0px" y="0px"
	 viewBox="0 0 800 200" style="enable-background:new 0 0 800 200;" xml:space="preserve">
<style type="text/css">
	.st0{fill:#5CDB95;}
	.st1{fill:#5CDB95;stroke:#7CE2AA;stroke-miterlimit:10;}
	.st2{fill:none;stroke:#7CE2AA;stroke-miterlimit:10;}
	.st3{display:none;}
	.st4{display:inline;}
	.st5{font-family:'MyriadPro-Regular';}
	.st6{font-size:60px;}
	.st7{font-size:36px;}
	.st8{font-size:70.8362px;}
	.st9{font-size:56.4413px;}
</style>
<g id="Layer_1">
	<g>
		<rect x="0.5" y="0.5" class="st0" width="799" height="199"/>
		<path d="M799,1v198H1V1H799 M800,0H0v200h800V0L800,0z"/>
	</g>
</g>
<g id="Layer_2">
	<line class="st1" x1="45.5" y1="-0.5" x2="107.5" y2="199.5"/>
	<line class="st2" x1="147.5" y1="199.5" x2="223.5" y2="-0.5"/>
	<line class="st2" x1="165.5" y1="-0.5" x2="314.5" y2="199.5"/>
	<line class="st2" x1="466.5" y1="199.5" x2="552.5" y2="-0.5"/>
	<line class="st2" x1="636.5" y1="-0.5" x2="602.5" y2="199.5"/>
	<line class="st2" x1="679.5" y1="199.5" x2="655.5" y2="-0.5"/>
	<line class="st2" x1="659.5" y1="199.5" x2="799.5" y2="12.5"/>
</g>
<g id="Layer_3" class="st3">
	<text transform="matrix(1 0 0 1 145.5161 106.3228)" class="st4 st5 st6">UX - what’s it about?</text>
</g>
<g id="Layer_4" class="st3">
	<text transform="matrix(0.8247 0 0 1 54.0322 106.4092)" class="st4 st5 st7">“User experience is the whole experience” - Eva Laanemaa</text>
</g>
<g id="Layer_5" class="st3">
	<text transform="matrix(0.7176 0 0 1 185.3267 114.29)" class="st4 st5 st8">The whole experience</text>
</g>
<g id="Layer_6" class="st3">
	<text transform="matrix(0.8588 0 0 1 91.2959 112.8896)" class="st4 st5 st9">Top 9 apps for organizing work</text>
</g>
<g id="Layer_7" class="st3">
</g>
</svg>
