<?xml version="1.0" encoding="utf-8"?>
<!-- Generator: Adobe Illustrator 21.1.0, SVG Export Plug-In . SVG Version: 6.00 Build 0)  -->
<svg version="1.1" id="Layer_1" xmlns="http://www.w3.org/2000/svg" xmlns:xlink="http://www.w3.org/1999/xlink" x="0px" y="0px"
	 viewBox="0 0 314 131" style="enable-background:new 0 0 314 131;" xml:space="preserve">
<style type="text/css">
	.st0{fill:url(#SVGID_1_);}
	.st1{clip-path:url(#SVGID_3_);}
	.st2{fill:url(#SVGID_4_);}
	.st3{fill:url(#SVGID_5_);}
	.st4{fill:url(#SVGID_6_);}
	.st5{fill:url(#SVGID_7_);}
	.st6{fill:url(#SVGID_8_);}
</style>
<g>
	
		<linearGradient id="SVGID_1_" gradientUnits="userSpaceOnUse" x1="-27.6871" y1="587.9598" x2="-26.4677" y2="587.9598" gradientTransform="matrix(-7.229327e-02 48.8271 -48.8271 -7.229327e-02 28988.4102 1465.8601)">
		<stop  offset="0" style="stop-color:#F2E2C5"/>
		<stop  offset="0.5" style="stop-color:#E8CF9C"/>
		<stop  offset="0.5426" style="stop-color:#E7CE9A"/>
		<stop  offset="1" style="stop-color:#E1C282"/>
	</linearGradient>
	<path class="st0" d="M310.8,90.2L310.8,90.2c0-2.1-12.9-3.8-28.9-3.8s-29,1.7-29,3.7c0,0.1,0.1,0.4,0.2,0.5v22.9c0,0,36.1,9,57.9,0
		V90.1C311.2,90.1,311.1,90.1,310.8,90.2z M272.9,93.6c2.8,0.1,7.1,1.8,9.5,0.9c0.9-0.4,1.2-0.7,2.1-0.7
		C280.8,93.9,276.9,93.9,272.9,93.6z"/>
	<path d="M281.9,117.5c-10.2,0-29.5-1-29.5-4.6V53.6c0-3.7,19.3-4.6,29.5-4.6s29.5,1,29.5,4.6v59.3
		C311.4,116.6,292.2,117.5,281.9,117.5z M281.9,50.1c-18.4,0-28.3,2.3-28.4,3.5v59.3c0.1,1.2,10,3.5,28.4,3.5
		c18.4,0,28.3-2.3,28.4-3.5V53.6C310.2,52.4,300.3,50.1,281.9,50.1z"/>
	<path d="M281.8,57.4c-1.2,0-29.4,0-29.4-4.1s28.2-4.1,29.4-4.1s29.4,0,29.4,4.1S283,57.4,281.8,57.4z M281.8,50.4
		c-17.3,0-27.7,1.8-28.3,3c0.6,1.1,11,2.9,28.3,2.9c17.1,0,27.4-1.7,28.3-2.9C309.2,52.1,298.9,50.4,281.8,50.4z"/>
	<path d="M263.5,100h-0.4c-9.5-1.8-12.1-10.5-10-14.1c0.1-0.1,0.1-0.4,0.2-0.5c0.1,0.2,0.1,0.5,0.2,0.7c2.2,5.4,7.6,5.7,9.6,4
		l0.2-0.1l0.2,0.1c2.1,1.7,7.4,1.3,9.6-4c0.1-0.2,0.2-0.5,0.2-0.7c0.1,0.1,0.1,0.4,0.2,0.5c2.1,3.8-0.5,12.3-10,14.1H263.5z
		 M253.5,86.9c-1.3,3.7,1.5,11,9.9,12.4c8.4-1.5,11.2-8.8,9.9-12.4c-2.4,5-7.8,5.2-9.9,3.5C261.3,92.2,256.1,91.9,253.5,86.9z"/>
	<path d="M271,100h-0.4c-9.5-1.8-12.1-10.5-10-14.1c0.1-0.1,0.1-0.4,0.2-0.5c0.1,0.2,0.1,0.5,0.2,0.7c2.2,5.4,7.6,5.7,9.6,4L271,90
		l0.2,0.1c2.1,1.7,7.4,1.3,9.6-4c0.1-0.2,0.2-0.5,0.2-0.7c0.1,0.1,0.1,0.4,0.2,0.5c2.1,3.8-0.5,12.3-10,14.1H271z M261,86.9
		c-1.3,3.7,1.5,11,9.9,12.4c8.4-1.5,11.2-8.8,9.9-12.4c-2.4,5-7.8,5.2-9.9,3.5C268.8,92.2,263.5,91.9,261,86.9z"/>
	<path d="M278.4,100H278c-9.5-1.8-12.1-10.5-10-14.1c0.1-0.1,0.1-0.4,0.2-0.5c0.1,0.2,0.1,0.5,0.2,0.7c2.2,5.4,7.6,5.7,9.6,4
		l0.2-0.1l0.2,0.1c2.1,1.7,7.4,1.3,9.6-4c0.1-0.2,0.2-0.5,0.2-0.7c0.1,0.1,0.1,0.4,0.2,0.5c2.1,3.8-0.5,12.3-10,14.1H278.4z
		 M268.5,86.9c-1.3,3.7,1.5,11,9.9,12.4c8.4-1.5,11.2-8.8,9.9-12.4c-2.4,5-7.8,5.2-9.9,3.5C276.2,92.2,271,91.9,268.5,86.9z"/>
	<path d="M285.8,100h-0.4c-9.5-1.8-12.1-10.5-10-14.1c0.1-0.1,0.1-0.4,0.2-0.5c0.1,0.2,0.1,0.5,0.2,0.7c2.2,5.4,7.6,5.7,9.6,4
		l0.2-0.1l0.2,0.1c2.1,1.7,7.4,1.3,9.6-4c0.1-0.2,0.2-0.5,0.2-0.7c0.1,0.1,0.1,0.4,0.2,0.5c2.1,3.8-0.5,12.3-10,14.1H285.8z
		 M276,86.9c-1.3,3.7,1.5,11,9.9,12.4c8.4-1.5,11.2-8.8,9.9-12.4c-2.4,5-7.8,5.2-9.9,3.5C283.6,92.2,278.4,91.9,276,86.9z"/>
	<path d="M293,100h-0.4c-9.5-1.8-12.1-10.5-10-14.1c0.1-0.1,0.1-0.4,0.2-0.5c0.1,0.2,0.1,0.5,0.2,0.7c2.2,5.4,7.6,5.7,9.6,4L293,90
		l0.2,0.1c2.1,1.7,7.4,1.3,9.6-4c0.1-0.2,0.2-0.5,0.2-0.7c0.1,0.1,0.1,0.4,0.2,0.5c2.1,3.8-0.5,12.3-10,14.1H293z M283.1,86.9
		c-1.3,3.7,1.5,11,9.9,12.4c8.4-1.5,11.2-8.8,9.9-12.4c-2.4,5-7.8,5.2-9.9,3.5C290.8,92.2,285.6,91.9,283.1,86.9z"/>
	<path d="M300.5,100h-0.4c-9.5-1.8-12.1-10.5-10-14.1c0.1-0.1,0.1-0.4,0.2-0.5c0.1,0.2,0.1,0.5,0.2,0.7c2.2,5.4,7.6,5.7,9.6,4
		l0.2-0.1l0.2,0.1c2.1,1.7,7.4,1.3,9.6-4c0.1-0.2,0.2-0.5,0.2-0.7c0.1,0.1,0.1,0.4,0.2,0.5c2.1,3.8-0.5,12.3-10,14.1H300.5z
		 M290.6,86.9c-1.3,3.7,1.5,11,9.9,12.4c8.4-1.5,11.2-8.8,9.9-12.4c-2.6,5-7.8,5.2-9.9,3.5C298.3,92.2,293,91.9,290.6,86.9z"/>
	<path d="M263.3,114.6h-0.4c-9.5-1.8-12.1-10.5-10-14.1c0.1-0.1,0.1-0.4,0.2-0.5c0.1,0.2,0.1,0.5,0.2,0.7c2.2,5.4,7.6,5.7,9.6,4
		l0.2-0.1l0.2,0.1c2.1,1.7,7.4,1.3,9.6-4c0.1-0.2,0.2-0.5,0.2-0.7c0.1,0.1,0.1,0.4,0.2,0.5c2.1,3.8-0.5,12.3-10,14.1H263.3z
		 M253.4,101.7c-1.3,3.7,1.5,11,9.9,12.4c8.4-1.5,11.2-8.8,9.9-12.4c-2.4,5-7.8,5.2-9.9,3.5C261.1,106.8,255.8,106.6,253.4,101.7z"
		/>
	<path d="M270.7,114.6h-0.4c-9.5-1.8-12.1-10.5-10-14.1c0.1-0.1,0.1-0.4,0.2-0.5c0.1,0.2,0.1,0.5,0.2,0.7c2.2,5.4,7.6,5.7,9.6,4
		l0.2-0.1l0.2,0.1c2.1,1.7,7.4,1.3,9.6-4c0.1-0.2,0.2-0.5,0.2-0.7c0.1,0.1,0.1,0.4,0.2,0.5c2.1,3.8-0.5,12.3-10,14.1H270.7z
		 M260.8,101.7c-1.3,3.7,1.5,11,9.9,12.4c8.4-1.5,11.2-8.8,9.9-12.4c-2.4,5-7.8,5.2-9.9,3.5C268.6,106.8,263.3,106.6,260.8,101.7z"
		/>
	<path d="M278.3,114.6h-0.4c-9.5-1.8-12.1-10.5-10-14.1c0.1-0.1,0.1-0.4,0.2-0.5c0.1,0.2,0.1,0.5,0.2,0.7c2.2,5.4,7.6,5.7,9.6,4
		l0.2-0.1l0.2,0.1c2.1,1.7,7.4,1.3,9.6-4c0.1-0.2,0.2-0.5,0.2-0.7c0.1,0.1,0.1,0.4,0.2,0.5c2.1,3.8-0.5,12.3-10,14.1H278.3z
		 M268.3,101.7c-1.3,3.7,1.5,11,9.9,12.4c8.4-1.5,11.2-8.8,9.9-12.4c-2.4,5-7.8,5.2-9.9,3.5C276.1,106.8,270.8,106.6,268.3,101.7z"
		/>
	<path d="M285.7,114.6h-0.4c-9.5-1.8-12.1-10.5-10-14.1c0.1-0.1,0.1-0.4,0.2-0.5c0.1,0.2,0.1,0.5,0.2,0.7c2.2,5.4,7.6,5.7,9.6,4
		l0.2-0.1l0.2,0.1c2.1,1.7,7.4,1.3,9.6-4c0.1-0.2,0.2-0.5,0.2-0.7c0.1,0.1,0.1,0.4,0.2,0.5c2.1,3.8-0.5,12.3-10,14.1H285.7z
		 M275.7,101.7c-1.3,3.7,1.5,11,9.9,12.4c8.4-1.5,11.2-8.8,9.9-12.4c-2.6,5-7.8,5.2-9.9,3.5C283.5,106.8,278.3,106.6,275.7,101.7z"
		/>
	<path d="M292.9,114.6h-0.4c-9.5-1.8-12.1-10.5-10-14.1c0.1-0.1,0.1-0.4,0.2-0.5c0.1,0.2,0.1,0.5,0.2,0.7c2.2,5.4,7.6,5.7,9.6,4
		l0.2-0.1l0.2,0.1c2.1,1.7,7.4,1.3,9.6-4c0.1-0.2,0.2-0.5,0.2-0.7c0.1,0.1,0.1,0.4,0.2,0.5c2.1,3.8-0.5,12.3-10,14.1H292.9z
		 M282.9,101.7c-1.3,3.7,1.5,11,9.9,12.4c8.4-1.5,11.2-8.8,9.9-12.4c-2.4,5-7.8,5.2-9.9,3.5C290.7,106.8,285.5,106.6,282.9,101.7z"
		/>
	<path d="M300.3,114.6H300c-9.5-1.8-12.1-10.5-10-14.1c0.1-0.1,0.1-0.4,0.2-0.5c0.1,0.2,0.1,0.5,0.2,0.7c2.2,5.4,7.6,5.7,9.6,4
		l0.2-0.1l0.2,0.1c2.1,1.7,7.4,1.3,9.6-4c0.1-0.2,0.2-0.5,0.2-0.7c0.1,0.1,0.1,0.4,0.2,0.5c2.1,3.8-0.5,12.3-10,14.1H300.3z
		 M290.3,101.7c-1.3,3.7,1.5,11,9.9,12.4c8.4-1.5,11.2-8.8,9.9-12.4c-2.6,5-7.8,5.2-9.9,3.5C298.1,106.8,292.9,106.6,290.3,101.7z"
		/>
	<path d="M13.8,21.8c-0.4,0.2-0.9,0.4-1.3,0.4s-1-0.1-1.5-0.4c-0.5,0.2-0.9,0.4-1.2,0.4s-0.6,0-0.9-0.1c-0.2,0-0.4-0.1-0.6-0.2
		c-0.4-0.2-0.5-0.5-0.5-0.7c0-0.1,0-0.2,0.1-0.4C8.1,20.8,8.3,21,8.7,21c0.2,0,0.6-0.1,0.9-0.2c0.2-0.1,0.5-0.4,0.7-0.7v-5.9
		c0-0.4-0.1-0.6-0.2-0.9c-0.2-0.2-0.6-0.6-1.2-0.9c0.5-0.2,0.9-0.5,1.1-0.6c0.2-0.4,0.4-0.6,0.4-1.1V5.1C10,5,9.7,5,9.3,5
		S8.6,5.1,8.2,5.2C7.8,5.5,7.5,5.7,7.1,6.1C6.4,6.9,6,8,6,9.4c0,0.7,0.1,1.3,0.4,1.7c-0.1,0.2-0.2,0.2-0.5,0.2c-0.2,0-0.5,0-0.7-0.1
		S4.8,11,4.7,10.7c-0.4-0.4-0.5-0.9-0.5-1.3c0-0.5,0.1-0.9,0.2-1.2C4.2,7.8,3.9,7.4,3.9,6.9S4,6.1,4.3,5.8C3.9,5.5,3.8,5,3.8,4.4
		c0-0.7,0.4-1.2,1-1.5C5,2.8,5.1,2.8,5.3,2.8c0.2,0,0.5,0,0.6,0.1c0,0.2-0.1,0.4-0.1,0.4c0,0.4,0.1,0.5,0.4,0.5c0.1,0,0.2,0,0.4,0
		L7,3.7c1-0.2,1.7-0.4,2.3-0.4s1.2,0.1,1.7,0.4c0.4-0.2,0.9-0.4,1.3-0.4s1,0.1,1.5,0.4c0.5-0.2,1-0.4,1.5-0.4c0.7,0,1.5,0.1,2.1,0.2
		l1.1,0.2c0.1,0,0.2,0,0.4,0c0.2,0,0.4-0.1,0.4-0.5c0-0.1,0-0.2-0.1-0.4c0.1-0.1,0.4-0.1,0.5-0.1s0.4,0,0.6,0.1s0.4,0.1,0.5,0.4
		C21,3.5,21.1,4,21.1,4.5s-0.1,1-0.5,1.3C20.9,6.1,21,6.5,21,6.9s-0.1,0.9-0.5,1.2c0.2,0.4,0.2,0.6,0.2,1s0,0.6-0.1,0.9
		c-0.1,0.2-0.2,0.5-0.4,0.7c-0.4,0.5-0.7,0.7-1.2,0.7c-0.2,0-0.5-0.1-0.6-0.2c0.2-0.4,0.4-1,0.4-1.7s-0.1-1.3-0.2-2
		c-0.2-0.6-0.5-1-0.7-1.3c-0.6-0.7-1.5-1.1-2.3-1.1c-0.4,0-0.6,0-0.9,0.1v5.6c0,0.4,0.1,0.7,0.2,0.9c0.2,0.4,0.7,0.6,1.2,0.9
		c-0.6,0.2-1,0.5-1.1,0.7c-0.2,0.2-0.4,0.6-0.4,1v5.9c0.1,0.4,0.4,0.6,0.6,0.7c0.2,0.1,0.6,0.2,0.9,0.2s0.5-0.1,0.7-0.2
		C17,21,17,21.1,17,21.2c0,0.1,0,0.2-0.1,0.5c-0.1,0.1-0.2,0.2-0.4,0.4c-0.4,0.2-0.9,0.4-1.3,0.4S14.2,22.1,13.8,21.8z M11.2,18.8
		c0.4-0.1,0.6-0.7,0.6-1.6c0-0.9,0.1-2.2,0.1-3.8c0-1.6,0-2.7,0-3.2c0-0.5,0-1,0-1.2c0-1-0.1-1.5-0.2-1.7s-0.2-0.4-0.5-0.4
		c0,2.8,0,4.4-0.1,4.8c-0.1,0.4-0.4,0.6-0.9,0.7c0.5,0.1,0.7,0.4,0.9,0.6c0.1,0.4,0.1,1.8,0.1,4.3V18.8z"/>
	<path d="M24.9,21.8c-0.4,0.2-0.7,0.4-1.2,0.4c-0.5,0-0.9-0.1-1.1-0.4c-0.2-0.2-0.4-0.4-0.4-0.6s0-0.5,0.1-0.6
		c0.1,0.1,0.4,0.2,0.7,0.2c0.5,0,0.9-0.2,1-0.9v-3.7c0-0.4-0.1-0.7-0.2-0.9c-0.2-0.2-0.6-0.5-1.2-0.7c0.6-0.2,1-0.5,1.1-0.6
		c0.2-0.2,0.4-0.6,0.4-1V6.3c0-1-0.4-1.3-1.1-1.3c-0.2,0-0.5,0.1-0.7,0.2c-0.1-0.1-0.1-0.4-0.1-0.5c0-0.1,0-0.4,0.1-0.5
		c0.1-0.1,0.2-0.2,0.4-0.4c0.4-0.2,0.9-0.4,1.5-0.4c0.6,0,1,0,1.3,0.1c0.5-0.6,1-0.9,1.5-0.9c0.9,0,1.2,0.5,1.2,1.3v6
		c0.7-1.5,2.1-2.2,3.8-2.2c2.1,0,3.3,0.9,3.9,2.7c0.1,0.6,0.2,1.2,0.2,2v0.9c0,0.4,0.1,0.6,0.2,0.9c0.2,0.2,0.6,0.5,1.2,0.7
		c-0.6,0.2-1,0.5-1.1,0.7C36.1,16,36,16.3,36,16.6v3.8c0.1,0.5,0.5,0.7,1,0.7c0.2,0,0.5-0.1,0.7-0.2c0.1,0.1,0.1,0.2,0.1,0.5
		s-0.1,0.5-0.4,0.7c-0.2,0.2-0.6,0.4-1,0.4s-0.9-0.1-1.3-0.4c-0.4,0.2-0.7,0.4-1.2,0.4s-0.9-0.1-1.2-0.4c-0.4,0.2-0.6,0.4-1.1,0.4
		s-0.7-0.1-1-0.2c-0.2-0.2-0.4-0.5-0.4-0.9c0-0.1,0-0.4,0.1-0.4c0.2,0.1,0.4,0.2,0.6,0.2c0.4,0,0.6-0.2,0.7-0.6V13
		c0-1.6-0.4-2.4-1.1-2.7c-0.2-0.1-0.5-0.1-0.7-0.1c-0.9,0-1.5,0.5-1.7,1.3c-0.1,0.2-0.1,0.6-0.2,0.9v7.8c0.1,0.4,0.4,0.6,0.7,0.6
		c0.2,0,0.4-0.1,0.6-0.2c0.1,0.1,0.1,0.2,0.1,0.6s-0.1,0.5-0.4,0.7c-0.2,0.2-0.5,0.2-1,0.2c-0.4,0-0.7-0.1-1.1-0.4
		c-0.4,0.2-0.7,0.4-1.2,0.4S25.3,22.1,24.9,21.8z M25.3,18.8c0.4-0.2,0.6-0.7,0.6-1.6c0-0.4,0-0.7,0-1.1c0-0.4,0-0.7,0-0.9
		s0-0.4,0-0.4v-1.1c0-0.2,0-0.6,0-1v-1.2c0-2.1,0-3.3-0.1-3.5c-0.1-0.5-0.4-0.9-0.6-1v4c0,1.7,0,2.6,0,2.8S25,14.3,25,14.3
		c-0.1,0.2-0.4,0.5-0.9,0.6c0.5,0.1,0.7,0.4,0.9,0.6c0.1,0.4,0.1,1.2,0.1,2.6v0.7H25.3z M33.2,18.8c0.4-0.1,0.6-0.7,0.7-1.6
		c0-0.9,0-1.7,0-2.4c0-0.7,0-1.3-0.1-1.8s-0.1-0.9-0.2-1.1s-0.2-0.5-0.4-0.6c-0.1-0.1-0.4-0.2-0.6-0.4c0.4,0.7,0.5,1.3,0.5,2
		c0,0.6,0.1,1.2,0.1,1.7V18.8z"/>
	<path d="M49.9,18.3c0.1-0.4,0.5-0.5,1-0.5c0.4,0,0.6,0.1,0.7,0.4c0.1,0.2,0.2,0.5,0.2,0.7c0,0.2-0.1,0.6-0.2,0.9
		c-0.1,0.4-0.4,0.6-0.6,0.9s-0.6,0.5-0.9,0.6s-0.7,0.4-1.1,0.5c-0.9,0.2-1.6,0.4-2.4,0.4s-1.7-0.1-2.4-0.5c-0.7-0.2-1.3-0.7-2-1.2
		c-1.1-1-1.7-2.4-2-4.1c0-0.4-0.1-0.7-0.2-0.9c-0.2-0.2-0.6-0.6-1.2-0.9c0.7-0.4,1.1-0.9,1.3-1.5c0-0.2,0.1-0.4,0.1-0.6
		c0.2-1.5,1-2.6,2.2-3.7c1.2-1,2.6-1.5,4-1.5c1.6,0,2.8,0.5,4,1.6c1.1,1.1,1.7,2.4,1.7,4.1v0.1v0.1c0,0.1,0.1,0.1,0.2,0.1
		c0.1,0.2,0.2,0.4,0.2,0.6c0,0.5-0.2,0.7-0.7,0.9c-0.1,0-0.4,0-0.6,0.1l-6.8,1.1v1.1c0,1,0.2,1.7,0.9,2.2c0.5,0.5,1.2,0.7,2.1,0.7
		c0.9,0,1.6-0.1,2.1-0.5c0.5-0.4,0.7-0.7,0.7-1.3C49.9,18.7,49.9,18.5,49.9,18.3z M42.3,18.8c0.1-0.1,0.1-0.2,0.1-0.2
		c0-0.1,0-0.4-0.1-0.7c-0.4-1.2-0.5-2.2-0.5-2.7s0-0.9,0-1.1s0.1-0.6,0.1-0.9c0.1-0.5,0.2-1,0.4-1.5c0.1-0.2,0.1-0.5,0.1-0.6
		c0-0.2,0-0.4-0.1-0.4c-0.4,0.4-0.6,1-0.7,1.6s-0.4,1.2-0.5,1.8c0,0.2-0.2,0.4-0.7,0.6c0.5,0.2,0.7,0.4,0.7,0.6
		c0.2,1.3,0.5,2.2,0.7,2.6C42,18.3,42.2,18.7,42.3,18.8z M47.7,14.4V11c0-0.5-0.1-1-0.4-1.2c-0.4-0.4-0.7-0.6-1.1-0.6
		s-0.6,0-0.9,0.1s-0.5,0.2-0.6,0.5c-0.4,0.5-0.6,1.2-0.6,2.3v2.8L47.7,14.4z M49.5,14.1v-0.4c0-1.5-0.1-2.4-0.4-2.7
		c-0.1-0.1-0.2-0.2-0.4-0.2v3.5L49.5,14.1z"/>
	<g>
		<g>
			<defs>
				<polyline id="SVGID_2_" points="233.9,24.3 -5.1,24.3 -5.1,92.5 233.9,92.5 233.9,24.3 				"/>
			</defs>
			<clipPath id="SVGID_3_">
				<use xlink:href="#SVGID_2_"  style="overflow:visible;"/>
			</clipPath>
			<g class="st1">
				
					<image style="overflow:visible;enable-background:new    ;" width="199" height="59" xlink:href="8E8E16E9.png"  transform="matrix(1.2132 0 0 1.1987 -6.3763 22.9809)">
				</image>
			</g>
		</g>
	</g>
	
		<linearGradient id="SVGID_4_" gradientUnits="userSpaceOnUse" x1="-23.8681" y1="579.4996" x2="-22.6488" y2="579.4996" gradientTransform="matrix(40.6734 0 0 40.6734 975.0538 -23514.4395)">
		<stop  offset="0" style="stop-color:#D8C5A1"/>
		<stop  offset="0.5" style="stop-color:#C6AC7A"/>
		<stop  offset="1" style="stop-color:#B3914E"/>
	</linearGradient>
	<path class="st2" d="M17.1,82.8c-1.5,0-2.8-0.4-4-1.1c-1.2,0.7-2.2,1.1-3.3,1.1s-1.8-0.1-2.4-0.2s-1.2-0.4-1.7-0.7
		c-1-0.6-1.5-1.3-1.5-2.2c0-0.5,0.1-0.9,0.4-1.2C5,78.8,5.6,79,6.5,79c2.1,0,3.4-0.9,4.3-2.6V59.6c0-1-0.2-1.8-0.6-2.3
		c-0.7-0.9-1.8-1.7-3.5-2.6c1.6-0.7,2.6-1.3,3-1.8c0.7-0.9,1.2-1.8,1.2-3V35.4c-0.7-1.7-2.2-2.7-4.3-2.7c-0.7,0-1.5,0.2-2,0.6
		c-0.2-0.4-0.4-0.7-0.4-1.2c0-0.5,0.1-0.9,0.4-1.2c0.2-0.4,0.6-0.7,1.1-1c1.1-0.6,2.3-1,3.7-1s2.6,0.4,3.8,1.1
		c1.2-0.7,2.6-1.1,4-1.1c1.6,0,3,0.4,4.1,1.2c2.6-1.1,5.1-1.6,7.6-1.6c2.6,0,4.8,0.2,6.8,0.7c2.1,0.5,3.9,1.2,5.6,2.1
		c3.7,2,5.9,4.4,6.8,7.4c0.5,1.7,1.6,2.9,3.3,3.8c-1.8,1.3-3,2.8-3.4,4.4c-1,3.7-2.9,6-5.9,7.1c4.3,1.2,7.1,4,8.4,8.4
		c0.5,1.6,1.6,2.9,3.3,3.9c-1.7,1-2.9,2.4-3.5,4.5c-0.6,2-1.6,3.8-3.2,5.4c-1.5,1.6-3.3,2.9-5.2,3.9c-3.9,2-8.2,2.9-13,2.9
		c-2.9,0-5.5-0.5-7.7-1.6C20,82.4,18.7,82.8,17.1,82.8z M14,73c1.1-0.5,1.8-2,1.8-4.5c0.1-2.6,0.2-6.1,0.2-10.6s0-7.6,0-9
		c0-1.5,0-2.7,0-3.7c-0.1-2.7-0.4-4.4-0.7-4.9c-0.5-0.6-0.9-1-1.2-1.1c0,7.9-0.1,12.6-0.4,13.7c-0.4,1-1.1,1.6-2.3,2
		c1.3,0.5,2.2,1.1,2.3,1.7c0.2,1.1,0.4,5.1,0.4,12.1V73H14z M29.9,52.4c2.1,0,3.4-0.5,4.3-1.5c0.9-1,1.3-2.7,1.3-5.1v-7.9
		c0-1.3-0.7-2.6-2.2-3.5c-1.3-0.9-2.4-1.2-3.5-1.2s-2,0.1-2.7,0.4c-0.7,0.2-1.3,0.6-1.8,1.1c-1.2,1-1.7,2.1-1.7,3.4v14.3h6.3V52.4z
		 M23.4,73.2c0,1.6,0.6,2.9,1.8,3.9c1.2,1,2.6,1.5,4.1,1.5c1.6,0,2.9-0.4,4-1c2.1-1.3,3-2.9,3-4.6V62.8c0-2.1-0.7-3.7-2.1-4.8
		c-1.1-0.9-2.7-1.3-4.5-1.3h-6.6v16.5H23.4z M37.5,34c0.7,1.7,1.2,4.3,1.2,7.7c0,4.9-0.4,8.2-1,9.6c1-0.1,1.8-1.1,2.4-2.8
		c0.2-0.6,0.5-1.2,0.6-2s0.2-1.2,0.4-1.6s0.2-0.7,0.4-1c0.4-0.6,1-1,1.8-1.3c-1-0.2-1.5-0.6-1.7-1c-0.2-0.4-0.5-1.1-0.7-2.1
		c-0.2-1-0.4-1.8-0.6-2.6s-0.5-1.2-0.9-1.6C38.7,34.5,38.1,34.1,37.5,34z M38.8,57.9c0.6,1.2,0.9,4.1,0.9,8.5c0,5.7-0.2,9-0.6,10
		c0.5-0.1,1-0.7,1.5-1.7c0.5-1,0.9-2.2,1.1-3.3c0.2-1.1,0.4-2,0.5-2.3s0.2-0.7,0.4-1.1c0.4-0.7,1-1.2,1.8-1.5
		c-1.3-0.5-2.2-1.3-2.4-2.6c-0.2-1.3-0.5-2.3-0.7-3s-0.5-1.2-0.7-1.7C39.9,58.4,39.4,58,38.8,57.9z"/>
	<path d="M28.9,83.8c-2.8,0-5.4-0.5-7.7-1.5c-1.2,0.7-2.6,1.1-4.1,1.1c-1.5,0-2.8-0.4-4-1c-1.1,0.6-2.2,1-3.3,1
		c-1.1,0-2-0.1-2.6-0.2c-0.7-0.2-1.3-0.5-1.8-0.7c-1.2-0.7-1.7-1.6-1.7-2.8c0-0.6,0.1-1.1,0.5-1.6l0.4-0.5L5,77.9
		c0.4,0.4,0.9,0.5,1.6,0.5c1.7,0,2.9-0.7,3.7-2.2V59.5c0-0.9-0.1-1.6-0.5-2c-0.6-0.9-1.7-1.6-3.3-2.3l-1.2-0.6l1.2-0.5
		c1.8-0.9,2.6-1.3,2.8-1.7c0.7-0.7,1-1.6,1-2.6V35.5c-0.7-1.5-1.8-2.2-3.7-2.2c-0.6,0-1.1,0.1-1.6,0.5l-0.5,0.4l-0.4-0.5
		c-0.4-0.5-0.5-1-0.5-1.6c0-0.6,0.1-1.1,0.5-1.6c0.4-0.5,0.7-0.9,1.2-1.2c1.1-0.7,2.4-1.1,3.9-1.1c1.3,0,2.6,0.4,3.8,1
		c1.2-0.7,2.6-1,4-1c1.6,0,3,0.4,4.3,1.2c2.6-1,5-1.6,7.6-1.6s4.9,0.2,7.1,0.7c2.1,0.5,4,1.2,5.7,2.1c3.8,2,6.2,4.6,7.1,7.8
		c0.5,1.6,1.5,2.7,2.9,3.4l1,0.5l-0.9,0.6c-1.7,1.2-2.8,2.6-3.2,4c-0.9,3.2-2.4,5.5-4.8,6.8c3.7,1.5,6.1,4.3,7.3,8.4
		c0.4,1.5,1.3,2.6,2.9,3.5l1,0.5l-1,0.5c-1.6,0.9-2.7,2.2-3.3,4.1c-0.6,2.1-1.7,4-3.3,5.6c-1.6,1.6-3.4,3-5.4,4
		C38.3,82.8,33.8,83.8,28.9,83.8z M21.1,81l0.4,0.1c2.2,1,4.6,1.5,7.4,1.5c4.8,0,9-1,12.7-2.9c2-1,3.7-2.3,5.1-3.8
		c1.5-1.5,2.4-3.3,3-5.1c0.5-1.8,1.6-3.3,3-4.3c-1.3-1-2.3-2.2-2.7-3.7c-1.2-4.3-3.9-7-8-8l-1.8-0.5l1.7-0.6c2.8-1,4.5-3.2,5.5-6.7
		c0.4-1.6,1.3-2.9,2.9-4.1c-1.3-0.9-2.3-2.1-2.7-3.7c-0.9-2.9-3-5.2-6.5-7.1c-1.6-0.9-3.4-1.6-5.5-2.1c-2.1-0.5-4.3-0.7-6.7-0.7
		s-4.9,0.5-7.3,1.6L21.4,31l-0.2-0.2c-1.1-0.7-2.3-1.2-3.8-1.2c-1.3,0-2.6,0.4-3.7,1.1l-0.4,0.2l-0.4-0.2c-2.1-1.3-4.9-1.3-6.7-0.1
		c-0.4,0.2-0.7,0.5-0.9,0.9c-0.2,0.2-0.2,0.6-0.2,0.9c0,0.1,0,0.2,0,0.4c0.5-0.2,1.1-0.4,1.7-0.4c2.3,0,3.9,1,4.8,3v0.2V50
		c0,1.2-0.5,2.4-1.3,3.4c-0.4,0.5-1.1,1-2.1,1.5c1.2,0.7,2.1,1.3,2.7,2.2c0.5,0.6,0.7,1.6,0.7,2.7v17.1c-0.9,2-2.4,2.9-4.8,2.9
		c-0.6,0-1.2-0.1-1.7-0.4c0,0.1,0,0.2,0,0.4c0,0.7,0.4,1.2,1.2,1.7c0.5,0.2,1,0.5,1.6,0.6c0.6,0.1,1.3,0.2,2.3,0.2
		c0.9,0,1.8-0.4,2.9-1l0.4-0.2l0.4,0.2c1.1,0.6,2.3,1,3.7,1c1.3,0,2.7-0.4,3.7-1.1L21.1,81z M29.4,79.1c-1.7,0-3.3-0.5-4.6-1.6
		c-1.3-1.1-2.1-2.7-2.1-4.4V56.2h7.2c2,0,3.7,0.5,4.9,1.5c1.5,1.2,2.3,2.9,2.3,5.2V73c0,2-1.1,3.7-3.4,5.1
		C32.6,78.8,31.1,79.1,29.4,79.1z M24,57.4v15.7c0,1.5,0.5,2.6,1.6,3.5c1.1,0.9,2.3,1.3,3.8,1.3c1.5,0,2.7-0.4,3.7-1
		c1.8-1.2,2.8-2.6,2.8-4.1V62.8c0-2-0.6-3.3-1.8-4.3c-1-0.9-2.4-1.2-4.1-1.2H24V57.4z M38.1,77.3l0.5-1.1c0.2-0.6,0.6-2.8,0.6-9.8
		c0-5.5-0.4-7.6-0.7-8.3l-0.5-1.1l1.1,0.2c0.7,0.1,1.5,0.7,2,1.6c0.2,0.5,0.5,1.1,0.7,1.8s0.5,1.8,0.7,3c0.2,1.1,0.9,1.8,2,2.2
		l1.7,0.6l-1.7,0.6c-0.7,0.2-1.2,0.6-1.5,1.2c-0.1,0.2-0.2,0.6-0.2,1c-0.1,0.4-0.2,1.2-0.5,2.3c-0.2,1.2-0.6,2.3-1.1,3.5
		c-0.6,1.3-1.2,2-2,2.1H38.1z M39.9,59.5c0.2,1.6,0.4,3.9,0.4,7c0,3.9-0.1,6.3-0.2,7.8c0.5-1,0.7-2,1-3c0.2-1.1,0.4-2,0.5-2.3
		c0.1-0.5,0.2-0.9,0.4-1.2c0.2-0.5,0.6-0.9,1-1.2c-0.9-0.6-1.5-1.5-1.6-2.6c-0.2-1.2-0.5-2.3-0.7-2.9C40.3,60.4,40,59.9,39.9,59.5z
		 M13.4,73.9v-5.4c0-8.5-0.2-11.2-0.4-11.9c-0.1-0.5-0.9-1-2-1.3l-1.7-0.6l1.7-0.6c1.1-0.4,1.7-0.9,2-1.6c0.1-0.6,0.4-3.5,0.4-13.4
		v-1l0.9,0.4c0.5,0.2,1,0.6,1.5,1.3c0.4,0.5,0.9,1.5,0.9,5.2c0,1,0,2.1,0,3.7c0,1.5,0,4.5,0,9c0,4.5-0.1,8.2-0.2,10.7
		c-0.1,2.8-0.9,4.5-2.3,5L13.4,73.9z M12.8,54.7c0.9,0.5,1.2,1,1.5,1.6c0.2,1.2,0.5,5.1,0.5,12.2v3c0.5-0.9,0.6-2.1,0.6-3.2
		c0.1-2.6,0.2-6.1,0.2-10.6s0-7.6,0-9c0-1.5,0-2.7,0-3.7c-0.1-3.4-0.5-4.3-0.6-4.5l-0.1-0.2c0,7.3-0.1,11.3-0.5,12.4
		C14,53.8,13.6,54.3,12.8,54.7z M29.9,53h-7.1V38.2c0-1.6,0.6-2.8,2-3.9c0.6-0.5,1.3-0.9,2.1-1.2c0.7-0.2,1.7-0.5,2.9-0.5
		c1.2,0,2.6,0.5,3.9,1.3c1.6,1.1,2.4,2.4,2.4,4v7.9c0,2.6-0.5,4.4-1.5,5.5C33.7,52.5,32.1,53,29.9,53z M24,51.8h5.9
		c1.8,0,3.2-0.4,3.8-1.2c0.7-0.9,1.2-2.4,1.2-4.6V38c0-1.2-0.6-2.2-2-3c-1.2-0.7-2.3-1.2-3.2-1.2c-1,0-1.8,0.1-2.4,0.4
		c-0.6,0.2-1.2,0.6-1.7,1c-1,0.9-1.6,1.8-1.6,3V51.8z M36.6,52.1l0.5-1.1c0.6-1.3,0.9-4.5,0.9-9.4c0-3.3-0.4-5.7-1.1-7.3l-0.5-1
		l1.1,0.1c0.9,0.1,1.6,0.6,2.2,1.6c0.4,0.5,0.6,1,0.9,1.7s0.5,1.6,0.7,2.7c0.2,1.1,0.5,1.7,0.6,1.8c0.1,0.1,0.4,0.4,1.5,0.7l1.7,0.6
		l-1.7,0.6c-0.7,0.2-1.2,0.6-1.6,1.1c-0.1,0.2-0.2,0.5-0.2,0.7c-0.1,0.4-0.1,0.9-0.4,1.6c-0.1,0.7-0.4,1.5-0.6,2.1
		c-0.7,2-1.7,2.9-2.9,3.2L36.6,52.1z M38.6,35.5c0.4,1.6,0.6,3.7,0.6,6.1c0,3.7-0.1,6.3-0.5,8.2c0.2-0.4,0.6-0.9,0.9-1.6
		c0.2-0.6,0.4-1.2,0.5-1.8c0.1-0.7,0.2-1.2,0.4-1.6c0.1-0.5,0.2-0.9,0.5-1.2c0.2-0.4,0.5-0.7,1-1c-0.4-0.2-0.6-0.4-0.7-0.6
		c-0.4-0.5-0.6-1.2-0.9-2.3c-0.1-1-0.4-1.8-0.6-2.4s-0.5-1.1-0.7-1.5L38.6,35.5z"/>
	
		<linearGradient id="SVGID_5_" gradientUnits="userSpaceOnUse" x1="-23.9166" y1="578.5668" x2="-22.6973" y2="578.5668" gradientTransform="matrix(36.054 0 0 36.054 917.7903 -20797.7129)">
		<stop  offset="0" style="stop-color:#D8C5A1"/>
		<stop  offset="0.5" style="stop-color:#C6AC7A"/>
		<stop  offset="1" style="stop-color:#B3914E"/>
	</linearGradient>
	<path class="st3" d="M61.5,73c-0.9-2.1-1.3-3.8-1.6-5.2c-0.2-1.5-0.4-2.3-0.5-2.8c-0.1-0.4-0.4-0.9-0.6-1.2
		c-0.6-0.7-1.7-1.5-3.3-2.3c2-0.9,3.3-2.3,3.8-4.3c0.1-0.6,0.2-1.1,0.4-1.7c0.6-4.1,2.6-7.6,6-10.2c3.4-2.8,7.3-4.1,11.8-4.1
		c4.6,0,8.7,1.3,12.1,4.1c3.3,2.7,5.2,6.1,5.9,10.2c0.2,1.5,0.5,2.4,1,3.2c0.7,1.2,1.8,2.2,3.3,2.8c-1.6,0.7-2.6,1.5-3,2
		c-0.6,0.9-1,1.7-1.2,2.8c-0.7,5.4-2.6,9.5-5.6,12.3c-3,2.8-7.1,4.3-12.1,4.3c-5.4,0-9.6-1.6-12.7-4.8C63.4,76.8,62.2,75.1,61.5,73z
		 M66.1,73c0.4-0.2,0.5-0.5,0.5-0.9c0-0.5-0.1-1.1-0.4-2c-1-3.5-1.5-6.1-1.5-7.6c0-1.5,0-2.6,0.1-3.3c0.1-0.7,0.2-1.6,0.4-2.4
		c0.2-1.6,0.6-2.9,1-4.1c0.2-0.7,0.4-1.3,0.4-1.6c0-0.6-0.1-1-0.5-1.2c-1,1.1-1.7,2.7-2.2,4.6c-0.5,2-1,3.7-1.2,5.1
		c-0.1,0.6-0.7,1.2-2.1,1.8c1.2,0.6,2,1.1,2.1,1.7c0.9,3.9,1.6,6.3,2.1,7.4C65.3,71.8,65.7,72.5,66.1,73z M77.6,46.1
		c-3.9,0-5.9,2.8-5.9,8.5v15.2c0,5.5,2,8.3,5.9,8.3c3.9,0,5.9-2.8,5.9-8.3V54.6C83.3,49,81.4,46.1,77.6,46.1z M86.6,73
		c1.1-0.5,1.8-2,1.8-4.5c0.1-2.6,0.2-4.5,0.2-5.7c0-1.2,0-2.3,0-3.2c0-0.9,0-1.7,0-2.6c-0.1-3.3-0.4-5.2-0.7-5.9
		c-0.5-0.6-0.9-1-1.2-1.1V73H86.6z"/>
	<path d="M77.6,83.6c-5.5,0-10-1.6-13.2-4.9c-1.5-1.5-2.7-3.3-3.5-5.4c-0.9-2.1-1.3-3.9-1.6-5.4c-0.2-1.7-0.4-2.4-0.5-2.7
		c-0.1-0.4-0.2-0.6-0.5-1c-0.5-0.7-1.6-1.5-3-2.2L54,61.6l1.2-0.5c1.8-0.9,2.9-2.1,3.4-3.9c0.1-0.5,0.2-1.1,0.4-1.6
		c0.6-4.3,2.7-7.8,6.1-10.6c3.4-2.8,7.6-4.3,12.2-4.3c4.8,0,9,1.5,12.4,4.4c3.4,2.8,5.4,6.3,6,10.6c0.2,1.3,0.5,2.3,0.9,2.9
		c0.7,1.1,1.7,2,3,2.6l1.2,0.5l-1.2,0.6c-1.8,0.9-2.6,1.5-2.8,1.8c-0.5,0.7-0.9,1.6-1.1,2.6c-0.7,5.5-2.7,9.8-5.9,12.7
		C87,82.2,82.8,83.6,77.6,83.6z M62,72.8c0.9,2,2,3.7,3.3,5c2.9,3,7.1,4.5,12.3,4.5c4.9,0,8.8-1.3,11.7-4c2.9-2.7,4.8-6.7,5.5-11.9
		c0.1-1.2,0.6-2.3,1.3-3.2c0.4-0.5,1.1-1.1,2.2-1.6c-1-0.6-1.8-1.5-2.4-2.4c-0.5-0.7-0.9-1.8-1-3.4c-0.6-3.9-2.4-7.2-5.6-9.9
		c-3.3-2.7-7.2-4-11.7-4c-4.3,0-8.2,1.3-11.3,4c-3.2,2.7-5.1,6-5.7,9.9c-0.1,0.6-0.2,1.2-0.4,1.7c-0.5,1.7-1.6,3.2-3,4.1
		c1.1,0.6,2,1.2,2.4,2c0.4,0.4,0.6,0.9,0.7,1.3s0.2,1.3,0.5,2.9C60.6,69.3,61.2,70.8,62,72.8z M77.4,78.8c-4.3,0-6.5-2.9-6.5-8.9
		V54.6c0-6.1,2.2-9.1,6.5-9.1c4.3,0,6.5,3,6.5,9.1v15.2C83.9,75.8,81.8,78.8,77.4,78.8z M77.6,46.7c-3.5,0-5.2,2.6-5.2,7.9v15.2
		c0,5.1,1.7,7.7,5.2,7.7s5.2-2.4,5.2-7.7V54.6C82.7,49.4,81,46.7,77.6,46.7z M86,73.9V49.1l0.9,0.4c0.5,0.2,1,0.6,1.5,1.2
		c0.4,0.5,0.9,1.6,1,6.2c0,0.9,0,1.7,0,2.6s0,1.8,0,3.2c0,1.2-0.1,3.2-0.2,5.7c-0.1,2.8-0.9,4.5-2.3,5L86,73.9z M87.2,51.5v20.2
		c0.5-0.9,0.6-2.1,0.6-3.2c0.1-2.6,0.2-4.5,0.2-5.7c0-1.2,0-2.3,0-3.2c0-0.9,0-1.7,0-2.6c-0.1-4.5-0.5-5.4-0.6-5.5L87.2,51.5z
		 M66,73.9l-0.4-0.5c-0.4-0.5-0.9-1.3-1.3-2.3c-0.6-1.1-1.3-3.5-2.2-7.6c0-0.1-0.2-0.6-1.7-1.3l-1.2-0.6l1.2-0.6
		c1.5-0.6,1.7-1.1,1.7-1.3c0.4-1.5,0.7-3.2,1.2-5.1s1.3-3.7,2.3-4.9l0.4-0.5l0.5,0.4c0.5,0.4,0.7,1,0.7,1.7c0,0.2,0,0.6-0.4,1.7
		c-0.4,1.2-0.6,2.6-1,4c-0.1,0.7-0.2,1.6-0.4,2.3c-0.1,0.7-0.1,1.8-0.1,3.2c0,1.3,0.5,3.8,1.3,7.3c0.2,0.9,0.4,1.5,0.4,2.1
		c0,0.4-0.1,0.9-0.7,1.3L66,73.9z M62,61.7c0.9,0.5,1.2,1,1.3,1.6c0.9,3.8,1.5,6.2,2.1,7.2c0.2,0.5,0.5,0.9,0.6,1.2
		c0-0.4-0.1-0.7-0.2-1.2c-1-3.7-1.5-6.2-1.5-7.7c0-1.5,0-2.6,0.1-3.4c0.1-0.9,0.2-1.6,0.4-2.4c0.2-1.6,0.6-2.9,1-4.1
		c0.2-1,0.2-1.3,0.2-1.5c-0.6,1-1.1,2.2-1.5,3.5c-0.5,2-1,3.7-1.2,5C63.2,60.6,62.7,61.1,62,61.7z"/>
	
		<linearGradient id="SVGID_6_" gradientUnits="userSpaceOnUse" x1="-23.68" y1="578.5668" x2="-22.4607" y2="578.5668" gradientTransform="matrix(36.054 0 0 36.054 956.5202 -20797.7129)">
		<stop  offset="0" style="stop-color:#D8C5A1"/>
		<stop  offset="0.5" style="stop-color:#C6AC7A"/>
		<stop  offset="1" style="stop-color:#B3914E"/>
	</linearGradient>
	<path class="st4" d="M108.7,73c-0.9-2.1-1.3-3.8-1.6-5.2c-0.2-1.5-0.4-2.3-0.5-2.8s-0.4-0.9-0.6-1.2c-0.6-0.7-1.7-1.5-3.3-2.3
		c2-0.9,3.3-2.3,3.8-4.3c0.1-0.6,0.2-1.1,0.4-1.7c0.6-4.1,2.6-7.6,6-10.2c3.4-2.7,7.3-4.1,11.8-4.1c4.6,0,8.7,1.3,12.1,4.1
		c3.3,2.7,5.2,6.1,5.9,10.2c0.2,1.5,0.5,2.4,1,3.2c0.7,1.2,1.8,2.2,3.3,2.8c-1.6,0.7-2.6,1.5-3,2c-0.6,0.9-1,1.7-1.2,2.8
		c-0.7,5.4-2.6,9.5-5.6,12.3c-3,2.8-7.1,4.3-12.1,4.3c-5.4,0-9.6-1.6-12.7-4.8C110.6,76.8,109.5,75.1,108.7,73z M113.3,73
		c0.4-0.2,0.5-0.5,0.5-0.9c0-0.5-0.1-1.1-0.4-2c-1-3.5-1.5-6.1-1.5-7.6c0-1.5,0-2.6,0.1-3.3c0.1-0.7,0.2-1.6,0.4-2.4
		c0.2-1.6,0.6-2.9,1-4.1c0.2-0.7,0.4-1.3,0.4-1.6c0-0.6-0.1-1-0.5-1.2c-1,1.1-1.7,2.7-2.2,4.6s-1,3.7-1.2,5.1
		c-0.1,0.6-0.7,1.2-2.1,1.8c1.2,0.6,2,1.1,2.1,1.7c0.9,3.9,1.6,6.3,2.1,7.4C112.6,71.8,112.9,72.5,113.3,73z M124.8,46.1
		c-3.9,0-5.9,2.8-5.9,8.5v15.2c0,5.5,2,8.3,5.9,8.3c3.9,0,5.9-2.8,5.9-8.3V54.6C130.6,49,128.7,46.1,124.8,46.1z M133.9,73
		c1.1-0.5,1.8-2,1.8-4.5c0.1-2.6,0.2-4.5,0.2-5.7c0-1.2,0-2.3,0-3.2c0-0.9,0-1.7,0-2.6c-0.1-3.3-0.4-5.2-0.7-5.9
		c-0.5-0.6-0.9-1-1.2-1.1V73H133.9z"/>
	<path d="M124.8,83.6c-5.5,0-10-1.6-13.2-4.9c-1.5-1.5-2.7-3.3-3.5-5.4c-0.9-2.1-1.3-3.9-1.6-5.4c-0.2-1.7-0.4-2.4-0.5-2.7
		c-0.1-0.4-0.2-0.6-0.5-1c-0.5-0.7-1.6-1.5-3-2.2l-1.2-0.6l1.2-0.5c1.8-0.9,2.9-2.1,3.4-3.9c0.1-0.5,0.2-1.1,0.4-1.6
		c0.6-4.3,2.7-7.8,6.1-10.6c3.4-2.8,7.6-4.3,12.2-4.3c4.8,0,9,1.5,12.4,4.4c3.4,2.8,5.4,6.3,6,10.6c0.2,1.3,0.5,2.3,0.9,2.9
		c0.7,1.1,1.7,2,3,2.6l1.2,0.5l-1.2,0.6c-1.8,0.9-2.6,1.5-2.8,1.8c-0.5,0.7-0.9,1.6-1.1,2.6c-0.7,5.5-2.7,9.8-5.9,12.7
		C134.1,82.2,130,83.6,124.8,83.6z M104,61.7c1.1,0.6,2,1.2,2.4,2c0.4,0.4,0.6,0.9,0.7,1.3s0.2,1.3,0.5,2.9c0.1,1.3,0.7,3,1.5,5
		c0.9,2,2,3.7,3.3,5c2.9,3,7.1,4.5,12.3,4.5c4.9,0,8.8-1.3,11.7-4c2.9-2.7,4.8-6.7,5.5-11.9c0.1-1.2,0.6-2.3,1.3-3.2
		c0.4-0.5,1.1-1.1,2.2-1.6c-1-0.6-1.8-1.5-2.4-2.4c-0.5-0.7-0.9-1.8-1-3.4c-0.6-3.9-2.4-7.2-5.6-9.9c-3.3-2.7-7.2-4-11.7-4
		c-4.3,0-8.2,1.3-11.3,4c-3.2,2.7-5.1,6-5.7,9.9c-0.1,0.6-0.2,1.2-0.4,1.7C106.7,59.3,105.6,60.7,104,61.7z M124.8,78.8
		c-4.3,0-6.5-2.9-6.5-8.9V54.6c0-6.1,2.2-9.1,6.5-9.1c4.3,0,6.5,3,6.5,9.1v15.2C131.2,75.8,129,78.8,124.8,78.8z M124.8,46.7
		c-3.5,0-5.2,2.6-5.2,7.9v15.2c0,5.1,1.7,7.7,5.2,7.7s5.2-2.4,5.2-7.7V54.6C130,49.4,128.3,46.7,124.8,46.7z M133.3,73.9V49.1
		l0.9,0.4c0.5,0.2,1,0.6,1.5,1.2c0.4,0.5,0.9,1.6,1,6.2c0,0.9,0,1.7,0,2.6s0,1.8,0,3.2c0,1.2-0.1,3.2-0.2,5.7
		c-0.1,2.8-0.9,4.5-2.3,5L133.3,73.9z M134.5,51.5v20.2c0.5-0.9,0.6-2.1,0.6-3.2c0.1-2.6,0.2-4.4,0.2-5.7c0-1.2,0-2.3,0-3.2
		c0-0.9,0-1.7,0-2.6c-0.1-4.5-0.5-5.4-0.6-5.5L134.5,51.5z M113.2,73.9l-0.4-0.5c-0.4-0.5-0.9-1.3-1.3-2.3c-0.6-1.1-1.3-3.5-2.2-7.6
		c0-0.1-0.2-0.6-1.7-1.3l-1.2-0.6l1.2-0.6c1.5-0.6,1.7-1.1,1.7-1.3c0.4-1.5,0.7-3.2,1.2-5.1s1.3-3.7,2.3-4.9l0.4-0.5l0.5,0.4
		c0.5,0.4,0.7,1,0.7,1.7c0,0.2,0,0.6-0.4,1.7c-0.4,1.2-0.6,2.6-1,4c-0.1,0.7-0.2,1.6-0.4,2.3c-0.1,0.7-0.1,1.8-0.1,3.2
		c0,1.3,0.5,3.8,1.3,7.3c0.2,0.9,0.4,1.5,0.4,2.1c0,0.4-0.1,0.9-0.7,1.3L113.2,73.9z M109.2,61.7c0.9,0.5,1.2,1,1.3,1.6
		c0.9,3.8,1.5,6.2,2.1,7.2c0.2,0.5,0.5,0.9,0.6,1.1c0-0.4-0.1-0.7-0.2-1.2c-1-3.7-1.5-6.2-1.5-7.7c0-1.5,0-2.6,0.1-3.4
		c0.1-0.9,0.2-1.6,0.4-2.4c0.2-1.6,0.6-2.9,1-4.1c0.2-1,0.2-1.3,0.2-1.5c-0.6,1-1.1,2.2-1.5,3.5c-0.5,2-0.9,3.7-1.2,5
		C110.4,60.6,109.9,61.1,109.2,61.7z"/>
	
		<linearGradient id="SVGID_7_" gradientUnits="userSpaceOnUse" x1="-23.7287" y1="577.3329" x2="-22.5094" y2="577.3329" gradientTransform="matrix(31.4192 0 0 31.4192 896.0154 -18076.7324)">
		<stop  offset="0" style="stop-color:#D8C5A1"/>
		<stop  offset="0.5" style="stop-color:#C6AC7A"/>
		<stop  offset="1" style="stop-color:#B3914E"/>
	</linearGradient>
	<path class="st5" d="M154,82.8c-2.4,0-3.7-1.1-3.5-3.2c0-0.4,0.1-0.7,0.4-1.2c0.4,0.2,0.9,0.4,1.5,0.4c0.7,0,1.2-0.2,1.7-0.6
		c0.9-0.9,1.7-2.1,2.7-3.5c3.5-6,5.2-9.3,5.2-10.1c0.1-0.5-0.2-1.1-0.9-1.7s-1.1-1-1.5-1.2c2.2-0.7,4.3-2,5.9-3.5
		c0.6-0.5,1-1.1,1.3-1.6l5.2-9c-1.1-0.4-2.4-0.6-4-0.6s-2.9,0.2-4,0.6c-1.1,0.4-2.2,1-3,1.7c-2,1.6-2.9,3.7-2.9,6.1
		c0,1.2,0.2,2.1,0.6,2.6c-0.2,0.6-0.7,0.9-1.3,0.9s-1.1-0.1-1.5-0.4c-0.4-0.2-0.7-0.5-1.1-0.9c-0.7-0.9-1.1-1.8-1.1-2.9
		s0.1-2,0.5-2.6c-1-0.6-1.5-1.5-1.5-2.4s0.4-1.8,1-2.4c-0.6-0.7-0.9-1.3-0.9-2c0-0.6,0.1-1.1,0.4-1.6c0.2-0.4,0.5-0.7,0.9-1.1
		c0.7-0.7,1.6-1,2.6-1c0.6,0,1.1,0.1,1.6,0.2c-0.1,0.2-0.1,0.6-0.1,1.2c0,0.7,0.4,1.2,1.1,1.2c1.1,0,2.2-0.2,3.2-0.6
		c1.8-0.9,4-1.2,6.5-1.2s4.6,0.4,6.8,1.2c1-0.7,2.1-1.2,3.3-1.2c1.5,0,2.7,0.4,3.5,1.2c1-0.7,2-1.2,3-1.2c1.1,0,2,0.2,2.6,0.9
		s0.9,1.3,0.9,2.3c0,0.5-0.1,0.9-0.4,1.2c-0.4-0.2-0.9-0.4-1.6-0.4c-1.3,0-2.4,0.9-3.3,2.7l-3.8,7.2c-0.6,1.2-0.9,2-1,2.3
		c0,0.4,0,0.6,0.1,0.9c0.1,0.2,0.2,0.5,0.4,0.7c0.4,0.6,0.9,1.2,1.5,1.6c-2.9,0.6-5.2,2.4-6.8,5.4l-6.2,10.5c1,0.6,2.3,1,4.3,1
		c2,0,3.4-0.2,4.4-0.7c1-0.5,2-1.1,2.7-2c1.6-1.7,2.3-3.8,2.3-6.3c0-1.1-0.1-2-0.6-2.6c0.7-0.6,1.3-0.9,1.8-0.9c0.5,0,1,0.1,1.3,0.4
		c0.4,0.2,0.7,0.5,1.1,0.9c0.7,0.9,1.1,1.8,1.1,2.9s-0.2,2-0.7,2.7c1.1,0.7,1.7,1.5,1.7,2.3c0,0.9-0.4,1.7-1.2,2.4
		c0.7,0.7,1.1,1.5,1.1,2.1s-0.1,1.1-0.4,1.6c-0.2,0.5-0.5,0.9-0.9,1.2c-0.7,0.9-1.6,1.2-2.6,1.2c-0.4,0-0.7-0.1-1.2-0.2
		c0.1-0.2,0.1-0.6,0.1-1.2c0-0.7-0.4-1.2-1.1-1.2c-0.6,0-1.2,0.1-1.8,0.5c-0.7,0.4-1.3,0.6-2,0.7s-1.2,0.4-2,0.5
		c-1.3,0.2-2.7,0.4-3.9,0.4c-2.9,0-5.4-0.5-7.3-1.3c-1.1,0.7-2.3,1.2-3.5,1.2s-2.3-0.4-3.3-1.2C156,82.4,155,82.8,154,82.8z
		 M176,50.2c-1.5,0.1-2.7,1.1-3.8,2.9l-2.7,4.6c-0.7,1.2-1.2,2.1-1.6,2.4c-0.5,0.6-1.5,1.1-2.8,1.3c0.7,0.4,1.1,0.7,1.1,1.2
		s-0.1,0.9-0.2,1.1c-0.1,0.2-0.2,0.6-0.4,1c-0.2,0.5-0.5,1.1-1,2l-1.3,2.3c-0.7,1.3-0.9,2.6-0.2,3.7c0.1,0.1,0.1,0.2,0.4,0.2
		L176,50.2z"/>
	<path d="M183.2,84.1c-0.5,0-1-0.1-1.5-0.4l-0.5-0.2l0.1-0.5c0-0.1,0.1-0.5,0.1-1s-0.1-0.6-0.5-0.6c-0.5,0-1,0.1-1.6,0.4
		c-0.7,0.4-1.3,0.6-2.1,0.7c-0.6,0.2-1.3,0.4-2,0.5c-1.5,0.2-2.8,0.4-4,0.4c-2.8,0-5.2-0.4-7.3-1.2c-2.2,1.5-5,1.5-7,0.1
		c-1,0.7-2.1,1-3,1c-1.5,0-2.6-0.4-3.3-1.1c-0.6-0.6-0.9-1.6-0.9-2.8c0-0.5,0.1-1,0.5-1.5l0.4-0.5l0.5,0.4c0.2,0.1,0.6,0.2,1.1,0.2
		c0.5,0,1-0.1,1.2-0.5c0.9-0.7,1.7-2,2.6-3.4c4.6-7.8,5.1-9.4,5.1-9.8s-0.2-0.7-0.7-1.2c-0.7-0.7-1.2-1-1.3-1.1l-1.1-0.7l1.2-0.4
		c2.2-0.7,4-1.8,5.7-3.4c0.5-0.5,1-1,1.2-1.5l4.9-8.3c-0.9-0.2-2-0.4-3-0.4c-1.5,0-2.7,0.2-3.8,0.6c-1.1,0.4-2.1,0.9-2.9,1.6
		c-1.8,1.5-2.7,3.4-2.7,5.7c0,1.3,0.2,1.8,0.4,2.2l0.2,0.2l-0.1,0.4c-0.4,0.7-1,1.2-1.8,1.2c-0.7,0-1.3-0.1-1.8-0.4
		c-0.5-0.2-0.9-0.6-1.3-1c-0.9-1-1.2-2.1-1.2-3.4c0-1,0.1-1.7,0.4-2.3c-0.9-0.7-1.2-1.6-1.2-2.6c0-1,0.2-1.8,0.9-2.4
		c-0.5-0.6-0.6-1.3-0.6-2c0-0.7,0.1-1.3,0.4-1.8c0.2-0.5,0.6-0.9,1-1.2c0.9-0.7,1.8-1.2,2.9-1.2c0.6,0,1.2,0.1,1.8,0.4l0.5,0.2
		l-0.1,0.5c0,0.1-0.1,0.5-0.1,1s0.1,0.6,0.5,0.6c1.1,0,2.1-0.2,2.9-0.6c2-0.9,4.1-1.3,6.7-1.3c2.3,0,4.6,0.4,6.8,1.1
		c1.1-0.7,2.2-1.1,3.4-1.1c1.5,0,2.7,0.4,3.5,1c1-0.6,2-1,3-1c1.2,0,2.3,0.4,3,1.1c0.7,0.7,1.1,1.7,1.1,2.8c0,0.6-0.2,1.2-0.6,1.6
		l-0.4,0.4l-0.4-0.2c-0.2-0.2-0.7-0.2-1.2-0.2c-1.1,0-2,0.7-2.8,2.3l-3.8,7.2c-0.7,1.6-0.9,2-0.9,2.1c0,0.2,0,0.5,0,0.6
		c0.1,0.2,0.1,0.4,0.2,0.6c0.4,0.6,0.7,1.1,1.3,1.5l1.1,0.9l-1.3,0.2c-2.8,0.6-5,2.3-6.5,5l-5.9,9.9c0.9,0.4,2,0.6,3.4,0.6
		c1.8,0,3.2-0.2,4.1-0.6c1-0.5,1.8-1,2.4-1.7c1.5-1.6,2.2-3.5,2.2-6c0-1-0.1-1.7-0.5-2.2l-0.2-0.5l0.5-0.4c1.6-1.2,2.8-1.1,3.8-0.6
		c0.5,0.2,0.9,0.6,1.2,1c0.9,1,1.2,2.1,1.2,3.3c0,1-0.1,1.7-0.5,2.4c1,0.7,1.5,1.6,1.5,2.6c0,0.9-0.4,1.7-1,2.4
		c0.6,0.7,0.9,1.3,0.9,2c0,0.7-0.1,1.2-0.4,1.8c-0.2,0.5-0.5,1-1,1.3C185.2,83.6,184.3,84.1,183.2,84.1z M182.6,82.8
		c0.2,0,0.4,0.1,0.6,0.1c0.7,0,1.5-0.4,2.1-1c0.2-0.4,0.5-0.7,0.7-1.1c0.1-0.4,0.2-0.9,0.2-1.3c0-0.2-0.1-0.9-1-1.6l-0.5-0.5
		l0.5-0.4c0.7-0.6,1-1.2,1-2c0-0.7-0.5-1.2-1.3-1.8l-0.5-0.4l0.4-0.5c0.4-0.6,0.6-1.3,0.6-2.3s-0.4-1.7-1-2.6
		c-0.2-0.2-0.6-0.5-0.9-0.7c-0.4-0.1-0.6-0.2-1.1-0.2c-0.1,0-0.5,0-1.1,0.4c0.2,0.6,0.4,1.3,0.4,2.3c0,2.7-0.9,4.9-2.4,6.7
		c-0.7,0.9-1.7,1.6-2.8,2.1c-1.1,0.5-2.7,0.7-4.6,0.7c-2.1,0-3.5-0.4-4.6-1l-0.5-0.4l6.5-11c1.5-2.7,3.5-4.4,6.1-5.2
		c-0.2-0.2-0.5-0.6-0.7-1c-0.1-0.2-0.4-0.6-0.4-0.9c-0.1-0.4-0.1-0.6-0.1-1.1c0-0.2,0.1-0.9,1-2.4l3.8-7.2c1-2,2.3-3,3.9-3
		c0.5,0,1,0.1,1.3,0.2c0-0.1,0-0.2,0-0.4c0-0.9-0.1-1.5-0.7-2c-0.5-0.5-1.2-0.7-2.2-0.7s-1.8,0.4-2.7,1l-0.4,0.4l-0.4-0.4
		c-0.7-0.7-1.8-1-3.2-1c-1.1,0-2,0.4-2.9,1.1l-0.2,0.2L175,44c-2.1-0.7-4.4-1.1-6.7-1.1s-4.4,0.4-6.2,1.2c-1.1,0.5-2.2,0.7-3.4,0.7
		c-1.1,0-1.7-0.6-1.7-1.8c0-0.2,0-0.5,0-0.7c-0.2-0.1-0.6-0.1-0.9-0.1c-0.7,0-1.5,0.2-2.1,0.9c-0.2,0.2-0.5,0.6-0.7,1
		c-0.1,0.4-0.2,0.7-0.2,1.2s0.2,1,0.7,1.6l0.4,0.4l-0.4,0.4c-0.6,0.6-0.9,1.2-0.9,2.1c0,0.7,0.4,1.3,1.1,1.8l0.5,0.2l-0.2,0.5
		c-0.2,0.5-0.4,1.3-0.4,2.3s0.4,1.8,1,2.6c0.2,0.2,0.6,0.5,0.9,0.7c0.4,0.1,0.7,0.2,1.2,0.2c0.2,0,0.5-0.1,0.6-0.2
		c-0.2-0.6-0.5-1.5-0.5-2.4c0-2.7,1.1-4.9,3.2-6.6c1-0.7,2.1-1.3,3.3-1.8c1.2-0.4,2.7-0.6,4.3-0.6s3,0.2,4.1,0.6l0.7,0.2l-5.6,9.6
		c-0.4,0.6-0.9,1.1-1.5,1.7c-1.5,1.3-3.2,2.4-5.1,3.3c0.2,0.1,0.4,0.4,0.6,0.6c0.9,0.7,1.2,1.5,1.1,2.2c0,0.6-0.6,2.3-5.2,10.2
		c-1,1.6-1.8,2.8-2.8,3.7c-0.5,0.5-1.2,0.9-2.1,0.9c-0.5,0-0.9,0-1.1-0.1c0,0.1-0.1,0.2-0.1,0.4c0,0.9,0.1,1.5,0.5,2
		c0.5,0.5,1.2,0.7,2.4,0.7c0.9,0,1.7-0.4,2.7-1.1l0.4-0.2l0.4,0.4c0.9,0.7,1.7,1,2.9,1c1.1,0,2.2-0.4,3.2-1.1l0.2-0.2l0.4,0.1
		c2,0.9,4.3,1.3,7.1,1.3c1.2,0,2.4-0.1,3.9-0.4c0.6-0.1,1.2-0.2,1.8-0.5c0.6-0.1,1.2-0.4,1.8-0.7c0.7-0.4,1.5-0.5,2.2-0.5
		c1.1,0,1.7,0.6,1.7,1.8C182.6,82.3,182.6,82.7,182.6,82.8z M163.7,73.8l-0.4-0.1c-0.4,0-0.6-0.2-0.7-0.6c-0.6-1.2-0.6-2.6,0.2-4.1
		l1.3-2.3c0.4-0.7,0.7-1.5,1-1.8c0.1-0.2,0.2-0.6,0.4-0.9c0.1-0.2,0.1-0.6,0.1-1c0-0.1-0.1-0.4-0.7-0.6l-1.7-0.7l1.8-0.4
		c1.2-0.2,2.1-0.6,2.4-1.1c0.2-0.4,0.9-1.2,1.5-2.4l2.7-4.6c1.2-2.1,2.7-3.2,4.3-3.3l1.1-0.1L163.7,73.8z M163.7,72.5L163.7,72.5z
		 M166.5,61.8c0.2,0.4,0.4,0.6,0.4,1c0,0.5-0.1,1-0.2,1.3c-0.1,0.4-0.2,0.7-0.4,1c-0.2,0.5-0.5,1.2-1,2l-1.3,2.3
		c-0.5,0.9-0.6,1.7-0.5,2.3l11.3-20.6c-0.7,0.4-1.5,1.2-2.1,2.2l-2.7,4.6c-0.7,1.2-1.2,2.1-1.6,2.6
		C167.9,61.1,167.3,61.6,166.5,61.8z"/>
	
		<linearGradient id="SVGID_8_" gradientUnits="userSpaceOnUse" x1="-23.4558" y1="577.5126" x2="-22.2364" y2="577.5126" gradientTransform="matrix(32.0542 0 0 32.0542 943.0549 -18449.8281)">
		<stop  offset="0" style="stop-color:#D8C5A1"/>
		<stop  offset="0.5" style="stop-color:#C6AC7A"/>
		<stop  offset="1" style="stop-color:#B3914E"/>
	</linearGradient>
	<path class="st6" d="M222.9,71.8c0.5-1,1.5-1.5,2.8-1.5c1,0,1.6,0.4,2.1,1.1c0.4,0.6,0.6,1.3,0.6,2.2s-0.2,1.7-0.6,2.6
		c-0.5,0.9-1,1.7-1.8,2.3s-1.6,1.3-2.6,1.8c-1,0.6-2,1-3,1.3c-2.3,0.7-4.6,1.1-7.1,1.1s-4.8-0.4-6.8-1.2c-2.2-0.9-4-2-5.5-3.4
		c-3-2.9-4.9-6.8-5.5-11.8c-0.1-1.1-0.4-2-0.7-2.4c-0.7-0.9-1.8-1.7-3.4-2.4c2-0.9,3.3-2.3,3.8-4.3c0.1-0.6,0.2-1.1,0.4-1.7
		c0.6-4,2.6-7.4,6.1-10.4c3.4-2.8,7.2-4.1,11.3-4.1c4.4,0,8.2,1.6,11.3,4.6c3.3,3.2,5,7.1,5,11.6c0,0.1,0,0.4,0,0.5s0,0.4,0,0.5
		c0,0.2,0.2,0.5,0.6,0.5c0.4,0.5,0.6,1.1,0.6,1.7c0,1.3-0.7,2.2-2.2,2.4c-0.4,0.1-1,0.1-1.7,0.2l-19.4,3v3.3c0,2.7,0.9,4.8,2.4,6.3
		c1.5,1.5,3.4,2.2,5.7,2.2c2.4,0,4.4-0.5,5.9-1.5c1.3-1,2.1-2.2,2.1-3.8C223.2,72.7,223,72.2,222.9,71.8z M201.5,73
		c0.4-0.2,0.5-0.5,0.5-0.9c0-0.5-0.1-1.1-0.4-2c-1-3.5-1.5-6.1-1.5-7.6c0-1.5,0-2.6,0.1-3.3c0.1-0.7,0.2-1.6,0.4-2.4
		c0.2-1.6,0.6-2.9,0.9-4.1c0.2-0.7,0.4-1.3,0.4-1.6c0-0.6-0.1-1-0.5-1.2c-1,1.1-1.7,2.7-2.2,4.6c-0.5,2-1,3.7-1.2,5.1
		c-0.1,0.6-0.7,1.2-2.1,1.8c1.2,0.6,2,1.1,2.1,1.7c0.9,3.9,1.6,6.3,2.1,7.4C200.6,71.8,201.1,72.5,201.5,73z M216.9,60.7v-9.6
		c0-1.5-0.2-2.7-0.9-3.3c-1.1-1.2-2.1-1.8-3.2-1.8c-1,0-1.8,0.1-2.6,0.5c-0.7,0.4-1.3,0.9-1.8,1.5c-1.1,1.3-1.6,3.5-1.6,6.6v7.9
		L216.9,60.7z M222.1,59.9v-1.1c0-4.3-0.4-6.8-1.1-7.7c-0.4-0.4-0.7-0.7-1.1-0.9v10L222.1,59.9z"/>
	<path d="M213.3,83.6c-2.6,0-4.9-0.4-7.1-1.2s-4.1-2.1-5.7-3.5c-3-2.9-5-7.1-5.7-12.2c-0.1-1.2-0.5-1.8-0.6-2.1
		c-0.6-0.7-1.7-1.6-3.2-2.3l-1.2-0.6l1.2-0.5c1.8-0.9,2.9-2.1,3.4-3.9c0.1-0.5,0.2-1.1,0.4-1.6c0.6-4.1,2.7-7.8,6.3-10.7
		c3.5-2.8,7.4-4.3,11.7-4.3c4.5,0,8.4,1.6,11.7,4.8c3.4,3.3,5.1,7.3,5.1,12.1c0,0.1,0,0.4,0,0.5c0,0.1,0,0.2,0,0.4h0.2l0.2,0.2
		c0.5,0.6,0.7,1.3,0.7,2.1c0,1.2-0.5,2.7-2.7,3c-0.4,0.1-1,0.1-1.7,0.2l-18.9,3v2.8c0,2.6,0.7,4.4,2.2,5.9c1.5,1.3,3.2,2.1,5.4,2.1
		c2.3,0,4.1-0.5,5.6-1.5c1.2-0.9,1.8-2,1.8-3.3c0-0.4,0-0.7-0.1-1.1v-0.2l0.1-0.2c0.6-1.2,1.7-1.8,3.3-1.8c1.1,0,2.1,0.5,2.7,1.5
		c0.5,0.7,0.7,1.6,0.7,2.6c0,1-0.2,2-0.7,2.8c-0.5,1-1.1,1.8-2,2.6c-0.7,0.7-1.7,1.5-2.7,2c-1,0.6-2.1,1.1-3.2,1.5
		C218.3,83.3,215.8,83.6,213.3,83.6z M192.6,61.7c1.1,0.6,2,1.3,2.6,2.1c0.5,0.6,0.7,1.5,1,2.7c0.6,4.9,2.4,8.8,5.4,11.6
		c1.5,1.3,3.3,2.6,5.4,3.3c4.1,1.6,9.1,1.6,13.5,0.1c1.1-0.4,2.1-0.9,3-1.3s1.7-1.1,2.4-1.8c0.7-0.6,1.2-1.3,1.7-2.2
		c0.4-0.7,0.6-1.6,0.6-2.3s-0.1-1.3-0.5-1.8c-0.4-0.6-0.9-0.9-1.6-0.9c-1,0-1.7,0.4-2.2,1c0.1,0.4,0.1,0.7,0.1,1.1
		c0,1.7-0.9,3.2-2.3,4.3c-1.6,1.1-3.7,1.6-6.2,1.6c-2.4,0-4.5-0.9-6.2-2.4c-1.7-1.7-2.6-3.9-2.6-6.7v-3.8l19.9-3.2
		c0.7-0.1,1.3-0.2,1.7-0.2c1.2-0.2,1.7-0.7,1.7-1.8c0-0.4-0.1-0.7-0.4-1.1c-0.5-0.1-0.7-0.5-0.7-1c0-0.1,0-0.4,0-0.6
		c0-0.1,0-0.2,0-0.5c0-4.4-1.6-8.2-4.8-11.2c-3-2.9-6.7-4.4-10.9-4.4c-4,0-7.7,1.3-11,4c-3.4,2.7-5.4,6.1-5.9,9.9
		c-0.1,0.6-0.2,1.2-0.4,1.7C195.1,59.3,194,60.7,192.6,61.7z M201.3,73.9l-0.4-0.5c-0.4-0.5-0.9-1.3-1.3-2.3
		c-0.6-1.1-1.3-3.5-2.2-7.6c0-0.1-0.2-0.6-1.7-1.3l-1.2-0.6l1.2-0.6c1.5-0.6,1.7-1.1,1.7-1.3c0.4-1.5,0.7-3.2,1.2-5.1
		c0.5-2,1.3-3.7,2.3-4.9l0.4-0.5l0.5,0.4c0.5,0.4,0.7,1,0.7,1.7c0,0.2,0,0.6-0.4,1.7c-0.4,1.2-0.6,2.6-0.9,4
		c-0.1,0.7-0.2,1.6-0.4,2.3c-0.1,0.7-0.1,1.8-0.1,3.2c0,1.3,0.5,3.8,1.3,7.3c0.2,0.9,0.4,1.5,0.4,2.1c0,0.4-0.1,0.9-0.7,1.3
		L201.3,73.9z M197.2,61.7c0.9,0.5,1.2,1,1.3,1.6c0.9,3.8,1.5,6.2,2.1,7.2c0.2,0.5,0.5,0.9,0.6,1.2c0-0.4-0.1-0.7-0.2-1.2
		c-1-3.7-1.5-6.2-1.5-7.7c0-1.5,0-2.6,0.1-3.4c0.1-0.9,0.2-1.6,0.4-2.4c0.2-1.6,0.6-2.9,0.9-4.1c0.2-1,0.2-1.3,0.2-1.5
		c-0.6,1-1.1,2.2-1.5,3.5c-0.5,2-0.9,3.7-1.2,5C198.4,60.6,198,61.1,197.2,61.7z M206.3,63v-8.7c0-3,0.6-5.4,1.7-7
		c0.6-0.7,1.2-1.3,2.1-1.7c0.7-0.4,1.7-0.5,2.8-0.5c1.2,0,2.4,0.7,3.5,2.1c0.7,0.9,1.1,2.1,1.1,3.8v10.1L206.3,63z M212.9,46.6
		c-1,0-1.7,0.1-2.3,0.4c-0.6,0.2-1.1,0.7-1.6,1.2c-1,1.2-1.5,3.3-1.5,6.1v7.2l8.8-1.5v-9.1c0-1.3-0.2-2.3-0.7-2.9
		C214.6,47.1,213.8,46.6,212.9,46.6z M219.3,60.8V49.1l0.9,0.4c0.5,0.2,0.9,0.6,1.2,1c0.5,0.6,1.2,2.2,1.2,8.2v1.6L219.3,60.8z
		 M220.5,51.5v8l0.9-0.1v-0.5C221.5,53.5,220.8,51.9,220.5,51.5z"/>
	<path d="M117.7,127.7c-1,0-1.8-0.2-2.6-0.7c-0.7,0.5-1.5,0.7-2.1,0.7s-1.2,0-1.6-0.1c-0.4-0.1-0.7-0.2-1.1-0.5
		c-0.6-0.4-1-0.9-1-1.5c0-0.2,0.1-0.6,0.2-0.7c0.4,0.2,0.7,0.4,1.2,0.4c1.3,0,2.2-0.6,2.7-1.7v-10.7c0-0.6-0.1-1.2-0.4-1.5
		c-0.5-0.6-1.2-1.1-2.3-1.6c1-0.5,1.6-0.9,2-1.2c0.5-0.6,0.7-1.2,0.7-2v-9.4c-0.5-1.1-1.5-1.7-2.7-1.7c-0.5,0-0.9,0.1-1.2,0.4
		c-0.1-0.2-0.2-0.5-0.2-0.7s0.1-0.6,0.2-0.9s0.4-0.5,0.7-0.6c0.7-0.4,1.5-0.6,2.3-0.6c0.9,0,1.7,0.2,2.4,0.7
		c0.7-0.5,1.6-0.7,2.6-0.7c1,0,2,0.2,2.7,0.9c1.6-0.7,3.3-1.1,4.9-1.1s3,0.1,4.4,0.5c1.3,0.4,2.6,0.7,3.7,1.3
		c2.3,1.2,3.8,2.8,4.4,4.8c0.4,1.1,1,2,2.1,2.4c-1.2,0.9-2,1.7-2.2,2.8c-0.6,2.3-1.8,3.8-3.8,4.5c2.8,0.7,4.5,2.6,5.4,5.5
		c0.2,1,1,1.8,2.1,2.4c-1.1,0.6-1.8,1.6-2.3,2.9c-0.4,1.2-1.1,2.4-2.1,3.4c-1,1-2.1,1.8-3.4,2.6c-2.4,1.2-5.2,2-8.4,2
		c-1.8,0-3.5-0.4-5-1C119.5,127.4,118.7,127.7,117.7,127.7z M115.7,121.3c0.7-0.2,1.1-1.2,1.2-2.9s0.1-3.9,0.1-6.8s0-4.9,0-5.9
		s0-1.7,0-2.3c0-1.7-0.2-2.8-0.5-3.2c-0.2-0.4-0.6-0.6-0.9-0.7c0,5.1-0.1,8-0.2,8.8c-0.2,0.6-0.7,1-1.5,1.2c0.9,0.4,1.3,0.7,1.5,1.1
		c0.1,0.7,0.2,3.3,0.2,7.8V121.3z M125.9,108.2c1.3,0,2.2-0.4,2.8-1s0.9-1.7,0.9-3.3v-5.1c0-0.9-0.5-1.7-1.5-2.3
		c-0.9-0.5-1.6-0.9-2.3-0.9s-1.2,0.1-1.7,0.2s-0.9,0.4-1.2,0.7c-0.7,0.6-1.1,1.3-1.1,2.2v9.1h4.1V108.2z M121.7,121.4
		c0,1,0.4,1.8,1.2,2.6c0.7,0.6,1.7,1,2.7,1c1,0,1.8-0.2,2.6-0.6c1.3-0.9,2-1.8,2-2.9V115c0-1.3-0.5-2.3-1.3-3
		c-0.7-0.6-1.7-0.9-2.9-0.9h-4.3v10.4H121.7z M130.7,96.2c0.5,1.1,0.7,2.8,0.7,4.9c0,3.2-0.2,5.2-0.6,6.1c0.6-0.1,1.1-0.7,1.6-1.8
		c0.1-0.4,0.2-0.9,0.4-1.2c0.1-0.5,0.1-0.7,0.2-1c0.1-0.2,0.1-0.5,0.2-0.6c0.2-0.4,0.6-0.6,1.2-0.9c-0.6-0.2-1-0.4-1.1-0.6
		c-0.2-0.2-0.4-0.7-0.5-1.3c-0.1-0.6-0.2-1.2-0.4-1.6s-0.4-0.7-0.5-1C131.6,96.6,131.2,96.3,130.7,96.2z M131.6,111.6
		c0.4,0.9,0.5,2.7,0.5,5.5c0,3.7-0.1,5.7-0.4,6.5c0.4,0,0.6-0.5,1-1.1c0.4-0.7,0.6-1.5,0.7-2.2c0.1-0.7,0.2-1.2,0.2-1.5
		s0.1-0.5,0.2-0.7c0.2-0.5,0.6-0.7,1.2-1c-0.9-0.2-1.3-0.9-1.6-1.7c-0.1-0.9-0.4-1.5-0.5-2c-0.1-0.5-0.2-0.9-0.5-1.1
		C132.3,111.9,132.1,111.7,131.6,111.6z"/>
	<path d="M147.4,126.9c-0.7,0.5-1.5,0.7-2.3,0.7c-0.9,0-1.5-0.2-2-0.6c-0.4-0.4-0.6-0.7-0.6-1.1c0-0.5,0.1-0.9,0.4-1.1
		c0.4,0.2,0.9,0.4,1.5,0.4s1.2-0.4,1.6-1.2v-7.1c0-0.6-0.1-1.1-0.4-1.5c-0.5-0.5-1.2-1-2.3-1.5c1-0.5,1.7-0.9,2-1.1
		c0.5-0.5,0.7-1.1,0.7-1.8v-3.2c0-1.2-0.5-2-1.2-2.1c-0.2,0-0.6,0-1,0s-0.7,0.1-1.1,0.4c-0.2-0.2-0.4-0.6-0.4-0.9s0.1-0.6,0.2-1
		c0.1-0.4,0.4-0.7,0.7-1.1c0.7-0.9,1.7-1.2,2.7-1.2c1,0,2,0.1,2.7,0.5c0.7-1,1.6-1.5,2.4-1.5c1.5,0,2.3,0.9,2.3,2.4v7.6
		c0,0.7,0.1,1.2,0.5,1.5c0.5,0.5,1.2,1,2.2,1.3c-1.1,0.5-1.8,1-2.1,1.2c-0.4,0.5-0.6,1-0.6,1.7v7.1c0.5,0.7,1.1,1.2,1.7,1.2
		s1.1-0.1,1.5-0.4c0.2,0.2,0.4,0.6,0.4,1.1s-0.2,0.9-0.6,1.2s-1.1,0.6-1.8,0.6c-0.7,0-1.6-0.2-2.3-0.7c-0.6,0.5-1.3,0.7-2.2,0.7
		C148.9,127.7,148.2,127.4,147.4,126.9z M149.6,98c-0.7,0-1.5-0.2-2.2-0.6c-0.7-0.4-1.2-1-1.6-1.6c-0.4-0.7-1-1.2-1.6-1.6
		c-0.2-0.1-0.5-0.2-0.7-0.4l0.7-0.5c0.7-0.5,1.2-1,1.6-1.6s0.9-1.1,1.6-1.5c0.7-0.4,1.5-0.5,2.2-0.5c1.7,0,2.8,0.7,3.5,2.1
		c0.5,0.9,1.2,1.6,2.3,2.1c-0.2,0.1-0.5,0.2-0.6,0.4c-0.2,0.1-0.4,0.2-0.6,0.4c-0.4,0.2-0.9,0.7-1.1,1.3c-0.2,0.6-0.9,1.1-1.5,1.5
		C151.1,97.8,150.4,98,149.6,98z M148.4,95.2c-0.1-0.1-0.1-0.4-0.2-0.6c0-0.2-0.1-0.6-0.1-1.1s0.2-1.2,0.9-2.1c-0.5,0-1,0.1-1.1,0.2
		c-0.2,0.2-0.4,0.4-0.5,0.5c-0.1,0.1-0.2,0.2-0.2,0.4s-0.1,0.2-0.2,0.5c-0.2,0.4-0.5,0.6-0.7,0.7c0.2,0.1,0.5,0.4,0.6,0.6
		c0.2,0.2,0.5,0.6,0.7,0.9c0.4,0.5,1,0.7,1.6,0.7c-0.1-0.1-0.1-0.4-0.2-0.5C148.7,95.6,148.5,95.5,148.4,95.2z M149.3,116.4
		c0-0.5,0-1,0-1.2c0-0.4,0-0.6,0-0.9v-0.6c0-0.2,0-0.5,0-0.9c0-0.4,0-0.7,0-1.2s0-0.9,0-1.2c0-1-0.1-1.7-0.2-2.1
		c-0.1-0.9-0.5-1.5-1-1.7v1.5c0,2.4,0,3.9-0.1,4.4c-0.1,0.5-0.2,0.7-0.5,1c-0.2,0.2-0.6,0.4-1.1,0.6c0.9,0.4,1.3,0.7,1.5,1.1
		c0.1,0.7,0.2,2.3,0.2,4.8v1.5c0.7-0.5,1.1-1.3,1.1-2.7C149.3,117.7,149.3,116.9,149.3,116.4z"/>
	<path d="M168.8,125.6c-1.6,1.3-3.3,2-4.9,2c-1.5,0-2.4-0.2-2.7-0.6c0.4-0.4,0.5-1,0.5-1.8s0-1.6,0-2.2v-6.1c0-0.6-0.1-1.1-0.4-1.5
		c-0.4-0.5-1.1-1-2.3-1.5c1-0.5,1.7-0.9,2-1.1c0.5-0.5,0.7-1.1,0.7-1.7V98.6c0-1.7-0.7-2.6-2.1-2.6c-0.5,0-0.9,0.1-1.2,0.4
		c-0.2-0.2-0.4-0.6-0.4-0.9s0.1-0.6,0.2-0.9c0.1-0.2,0.4-0.5,0.7-0.7c0.7-0.5,1.6-0.7,2.7-0.7c1.1,0,2,0.1,2.4,0.2
		c0.9-1,1.8-1.5,2.7-1.5c1.5,0,2.3,0.9,2.3,2.4v9.4c1.1-1.1,2.7-2,4.5-2.3c0.6-0.1,1.3-0.2,2.2-0.2c0.9,0,1.8,0.1,2.9,0.4
		c1,0.2,1.8,0.7,2.6,1.5c1.5,1.3,2.3,3.8,2.7,7.2c0.1,1.8,1.1,3,2.7,3.8c-1.1,0.5-1.7,1-2,1.3c-0.4,0.5-0.6,1.1-0.7,1.8
		c-0.4,3.5-1.3,6.2-2.7,7.8c-1.6,1.8-3.8,2.8-6.6,2.8c-1.5,0-3-0.4-4.6-1.2C169.6,126.3,169.1,126,168.8,125.6z M167.1,99.6
		c-0.6,0.2-1,0.9-1.1,1.6c-0.1,1-0.2,2.6-0.2,4.8v3.4v0.7c0,0.9,0,1.8,0,3.3c0,1.3,0,2.4,0,3.2c0,1.6,0.1,2.6,0.1,3
		c0,0.4,0.2,0.9,0.4,1.1s0.5,0.6,0.7,0.7V99.6H167.1z M169.1,120.2c0,1.2,0.4,2.2,1.2,3c0.7,0.9,1.6,1.2,2.6,1.2
		c2.4,0,3.7-1.7,3.7-5.2v-9.6c0-2.8-0.6-4.4-2-4.9c-0.4-0.1-0.9-0.2-1.3-0.2c-1.8,0-3.2,0.9-3.8,2.7c-0.2,0.6-0.4,1.5-0.4,2.4V120.2
		z M178.8,121.3c0.7-0.2,1.1-1.2,1.2-2.9c0.1-1.7,0.1-2.9,0.1-3.7s0-1.5,0-2s0-1.1,0-1.7c0-2.2-0.2-3.4-0.5-3.8
		c-0.2-0.4-0.5-0.6-0.9-0.7V121.3z"/>
	<path d="M193.9,126.9c-0.7,0.5-1.5,0.7-2.3,0.7s-1.5-0.2-2-0.6c-0.4-0.4-0.6-0.7-0.6-1.1c0-0.5,0.1-0.9,0.4-1.1
		c0.4,0.2,0.7,0.4,1.2,0.4c0.9,0,1.5-0.5,1.8-1.5v-6.8c0-0.6-0.1-1.1-0.4-1.5c-0.4-0.5-1.2-1-2.3-1.5c1-0.5,1.7-0.9,2-1.1
		c0.5-0.5,0.7-1.1,0.7-1.8V98.6c0-1.7-0.7-2.6-2.1-2.6c-0.5,0-0.9,0.1-1.2,0.4c-0.2-0.2-0.4-0.6-0.4-0.9s0.1-0.6,0.2-0.9
		s0.4-0.5,0.7-0.7c0.7-0.5,1.6-0.7,2.7-0.7c1.1,0,1.8,0.1,2.4,0.2c0.9-1,1.7-1.5,2.7-1.5c1.5,0,2.2,0.9,2.2,2.4v16.8
		c0,0.7,0.1,1.2,0.5,1.5c0.5,0.5,1.2,1,2.2,1.5c-1.1,0.5-1.8,1-2.1,1.2c-0.4,0.5-0.6,1-0.6,1.7v6.8c0.4,1,1,1.5,1.8,1.5
		c0.5,0,0.9-0.1,1.2-0.4c0.2,0.2,0.4,0.6,0.4,1.1s-0.2,0.9-0.6,1.2s-1.1,0.6-1.8,0.6c-0.7,0-1.6-0.2-2.3-0.7
		c-0.6,0.5-1.3,0.7-2.2,0.7C195.4,127.7,194.5,127.4,193.9,126.9z M194.5,121.3c0.6-0.4,1.1-1.3,1.2-2.8c0-0.6,0.1-1.3,0.1-2.1
		c0-0.7,0-1.3,0-1.7s0-0.6,0-0.7v-2c0-0.5,0-1.2,0-1.8V108c0-3.9-0.1-6.1-0.2-6.5c-0.2-1-0.6-1.6-1.1-1.8v7.4c0,3,0,4.8-0.1,5.1
		c-0.1,0.4-0.1,0.6-0.1,0.7c-0.1,0.5-0.6,0.9-1.5,1.1c0.9,0.4,1.3,0.7,1.5,1.1c0.1,0.7,0.2,2.3,0.2,4.8V121.3z"/>
	<path d="M225.1,120.5c0.4-0.6,1-1,1.8-1c0.6,0,1.1,0.2,1.3,0.7c0.2,0.4,0.4,0.9,0.4,1.3c0,0.6-0.1,1.1-0.4,1.7
		c-0.2,0.6-0.6,1.1-1.1,1.5c-0.5,0.5-1.1,0.9-1.7,1.2c-0.6,0.4-1.3,0.6-2,0.9c-1.5,0.5-2.9,0.7-4.5,0.7c-1.6,0-3-0.2-4.4-0.7
		c-1.3-0.5-2.6-1.2-3.5-2.2c-2-1.8-3-4.4-3.5-7.7c-0.1-0.7-0.2-1.2-0.5-1.6c-0.5-0.5-1.2-1.1-2.2-1.6c1.2-0.6,2.1-1.5,2.4-2.8
		c0.1-0.4,0.2-0.7,0.2-1.1c0.4-2.6,1.7-4.8,3.9-6.6c2.2-1.7,4.6-2.7,7.3-2.7c2.8,0,5.2,1,7.3,2.9c2.1,2.1,3.2,4.5,3.2,7.4v0.4v0.2
		c0,0.2,0.1,0.2,0.4,0.4c0.2,0.4,0.4,0.7,0.4,1.1c0,0.9-0.5,1.5-1.5,1.6c-0.2,0-0.6,0.1-1.1,0.1l-12.4,2v2.1c0,1.7,0.5,3,1.6,4
		c1,1,2.2,1.5,3.7,1.5c1.6,0,2.8-0.4,3.8-1c0.9-0.6,1.3-1.5,1.3-2.4C225.2,121.1,225.2,120.8,225.1,120.5z M211.3,121.3
		c0.2-0.1,0.4-0.4,0.4-0.6c0-0.4-0.1-0.7-0.2-1.2c-0.6-2.3-0.9-3.9-0.9-4.9c0-0.9,0-1.6,0.1-2.1c0.1-0.5,0.1-1,0.2-1.6
		c0.1-1,0.4-1.8,0.6-2.7c0.1-0.5,0.2-0.9,0.2-1c0-0.4-0.1-0.6-0.4-0.7c-0.6,0.7-1.1,1.7-1.5,2.9c-0.4,1.2-0.6,2.3-0.9,3.3
		c-0.1,0.4-0.5,0.7-1.3,1.1c0.9,0.4,1.2,0.7,1.3,1.1c0.5,2.4,1,4,1.3,4.8C210.7,120.5,211.1,121.1,211.3,121.3z M221.3,113.4v-6.2
		c0-1-0.2-1.7-0.6-2.2c-0.7-0.7-1.3-1.2-2-1.2s-1.2,0.1-1.7,0.2c-0.5,0.1-0.9,0.5-1.1,1c-0.7,0.9-1,2.3-1,4.1v5.1L221.3,113.4z
		 M224.5,112.8v-0.7c0-2.7-0.2-4.4-0.7-5c-0.2-0.2-0.5-0.5-0.7-0.6v6.5L224.5,112.8z"/>
</g>
</svg>
