<?xml version="1.0" encoding="utf-8"?>
<!-- Generator: Adobe Illustrator 21.0.0, SVG Export Plug-In . SVG Version: 6.00 Build 0)  -->
<svg version="1.1" id="Layer_1" xmlns="http://www.w3.org/2000/svg" xmlns:xlink="http://www.w3.org/1999/xlink" x="0px" y="0px"
	 viewBox="0 0 143 112" style="enable-background:new 0 0 143 112;" xml:space="preserve">
<style type="text/css">
	.st0{fill:none;stroke:#131313;stroke-width:2;stroke-miterlimit:10;}
	.st1{fill:#131313;}
	.st2{fill:#EFEBE3;}
</style>
<g>
	<g>
		<path class="st0" d="M70.7,103.7c-26.1,0-47.4-21.3-47.4-47.4c0-26.1,21.3-47.4,47.4-47.4s47.4,21.3,47.4,47.4
			C118.1,82.5,96.8,103.7,70.7,103.7z"/>
		<circle class="st1" cx="70.7" cy="56.3" r="40.7"/>
	</g>
	<path class="st2" d="M64.1,83.1h10.4V56.9h7.3l0.8-8.8h-8.1c0,0,0-3.3,0-5c0-2.1,0.4-2.9,2.4-2.9c1.6,0,5.7,0,5.7,0v-9.1
		c0,0-6,0-7.2,0c-7.8,0-11.3,3.4-11.3,10c0,5.7,0,7,0,7h-5.4v8.9h5.4V83.1z"/>
</g>
</svg>
