<?xml version="1.0" encoding="utf-8"?>
<!-- Generator: Adobe Illustrator 21.0.0, SVG Export Plug-In . SVG Version: 6.00 Build 0)  -->
<svg version="1.1" xmlns="http://www.w3.org/2000/svg" xmlns:xlink="http://www.w3.org/1999/xlink" x="0px" y="0px"
	 viewBox="0 0 1873 51" style="enable-background:new 0 0 1873 51;" xml:space="preserve">
<style type="text/css">
	.st0{display:none;}
	.st1{display:inline;}
	.st2{fill:#CE0F0F;}
	.st3{font-family:'Onyx';}
	.st4{font-size:65.5546px;}
	.st5{fill:none;stroke:#CE1111;stroke-width:12;stroke-miterlimit:10;}
</style>
<g id="Layer_1" class="st0">
	<g class="st1">
		<g>
			<path class="st2" d="M1079.7,47c0,7.3-1.2,14.1-3.5,20.5c-2.4,6.4-5.6,12.3-9.9,17.5c-4.2,5.2-9.2,9.7-15,13.4
				c-5.8,3.8-12,6.7-18.7,8.7c-3,1-6,1.7-9.1,2.3c-3.1,0.5-6.2,0.8-9.3,0.8c-3.1,0-6.1-0.3-9.2-0.8c-3-0.5-6-1.3-9-2.3
				c-6.7-2.1-13-5-18.7-8.7c-5.8-3.8-10.8-8.2-15-13.4c-4.2-5.2-7.5-11-9.9-17.5c-2.3-6.4-3.5-13.3-3.5-20.5l-0.8-98.4l44.9-1.6
				l-0.6,97.3c0,3,0.6,5.8,1.8,8.3c1.2,2.5,2.8,4.7,4.8,6.6c2,1.8,4.3,3.3,6.9,4.3c2.6,1,5.3,1.5,8.2,1.5c2.9,0,5.7-0.5,8.4-1.5
				c2.6-1,4.9-2.5,6.9-4.3c2-1.8,3.6-4,4.8-6.6c1.2-2.5,1.8-5.3,1.8-8.3V-54h43.5V47z"/>
			<path class="st2" d="M1158.8,55.8h-28.4v49.5h-41.9V-54h70.3c7.5,0,14.7,1.3,21.6,3.9c6.9,2.6,13,6.2,18.3,10.9
				c5.3,4.7,9.5,10.3,12.7,16.8c3.2,6.6,4.7,13.8,4.7,21.6c0,7.9-1.6,15.3-4.7,22.2c-3.2,6.8-7.4,12.8-12.7,18
				c-5.3,5.1-11.4,9.2-18.3,12.1C1173.6,54.4,1166.3,55.8,1158.8,55.8z M1155.8-18.5h-24.4V16h24.4c2.4,0,4.7-0.4,6.8-1.3
				c2.1-0.9,4-2.1,5.6-3.7c1.6-1.6,2.9-3.4,3.8-5.4c0.9-2.1,1.4-4.3,1.4-6.8S1173-6,1172.1-8c-0.9-2.1-2.2-3.9-3.8-5.4
				c-1.6-1.6-3.5-2.8-5.6-3.7C1160.5-18,1158.2-18.5,1155.8-18.5z"/>
		</g>
		<path d="M691.9-52.8V93.9c0,3.6,1.9,6.2,5.7,7.8c1.6,0.7,2.4,1.7,2.4,3v3.9c0,1.3-1,2-2.9,2h-36.4c-1.9,0-2.9-0.7-2.9-2v-3.9
			c0-1.4,0.8-2.4,2.5-3c3.7-1.5,5.5-4.1,5.5-7.8V-35.3c0-3.8-1.9-6.4-5.7-8c-1.6-0.6-2.4-1.6-2.4-2.8V-50c0-1.3,1-1.9,2.9-1.9
			L691.9-52.8z"/>
		<path d="M780.4,85c-2,18.6-12.5,27.8-31.5,27.8c-12.6,0-22.6-4.2-30-12.7c-7.4-8.5-11.1-21.2-11.1-38c0-16.4,3.5-29.3,10.5-38.7
			c7-9.4,16.4-14.1,28.2-14.1c10.5,0,18.9,3.6,25.3,10.9c6.4,7.3,9.6,16.9,9.6,28.9V58c0,1.7-1.1,2.5-3.3,2.5H737v8.6
			c0,9.5,1.1,16.7,3.4,21.8c2.3,5,6.3,7.6,12,7.6c6.7,0,11.3-5.1,13.9-15.3L780.4,85z M756.1,48.9V34.4c0-10.1-3.3-15.1-9.8-15.1
			c-6.2,0-9.4,6.4-9.4,19.3v10.3H756.1z"/>
		<path d="M943.9,83.4c-2,18.6-12.5,27.8-31.5,27.8c-12.6,0-22.6-4.2-30-12.7c-7.4-8.5-11.1-21.2-11.1-38c0-16.4,3.5-29.3,10.5-38.7
			c7-9.4,16.4-14.1,28.2-14.1c10.5,0,18.9,3.6,25.3,10.9c6.4,7.3,9.6,16.9,9.6,28.9v8.8c0,1.7-1.1,2.5-3.3,2.5h-41.2v8.6
			c0,9.5,1.1,16.7,3.4,21.8c2.3,5,6.3,7.6,12,7.6c6.7,0,11.3-5.1,13.9-15.3L943.9,83.4z M919.6,47.3V32.8c0-10.1-3.3-15.1-9.8-15.1
			c-6.2,0-9.4,6.4-9.4,19.3v10.3H919.6z"/>
		<path d="M859.9,28.2l-26,81c-0.4,1.4-1.4,2.1-2.9,2.1h-6.1c-1.6,0-2.6-0.7-3-2.1l-24.9-81c-1.2-4.2-3.3-6.9-6.2-8.1
			c-1.5-0.6-2.2-1.6-2.2-3v-3.4c0-1.5,0.9-2.2,2.8-2.2h32.9c2,0,3,0.7,3,2.1v4c0,1.3-1,2.4-2.9,3.3c-2.8,1.3-4.2,2.9-4.2,4.6
			c0,0.9,0.1,1.8,0.4,2.7L833.8,72L846.6,30c0.3-0.9,0.4-1.8,0.4-2.7c0-3.1-2.2-5.5-6.5-7.3c-1.8-0.7-2.6-1.3-2.6-1.8v-4.7
			c0-1.3,0.9-2,2.8-2h26.7c1.7,0,2.5,0.7,2.5,2v4.7c0,1.1-0.9,1.9-2.6,2.4C863.5,21.8,861.1,24.3,859.9,28.2z"/>
		<path d="M957.9-49.8L957.9-49.8c0-1.6,1.7-2.2,3.6-2.2l31.7-1l-0.4,146.9c0-0.6-0.2,11.8,3.6,13.4l0,0l0,0l0,0l0,0c0,0,3.2,0,0,0
			l0,0l0,0c0,0-19.2-4.8-28.8-17.6 M967.5,89.6l-0.9-125c0-3.8,0.9-11.2-2.3-14.4s-8,1.6-6.4,0"/>
		<g>
			<g>
				<path class="st2" d="M961.1-45.9c0,0,0-0.1,0-0.1c0-0.8-0.7-1.5-1.5-1.5c-0.8,0-1.5,0.7-1.5,1.5c0,0,0,0.1,0,0.1
					c0,0.8,0.7,1.5,1.5,1.5C960.4-44.4,961.1-45,961.1-45.9L961.1-45.9z"/>
			</g>
		</g>
		<g>
			<g>
				<path class="st2" d="M957.7-49.9c0.6,0,1.1,0,1.7,0.1c0.5,0.1,0.7-0.6,0.2-0.7c-0.9-0.2-1.5,0.5-2.3,0.7
					c-0.5,0.1-0.3,0.9,0.2,0.7c0.6-0.2,1.3-0.9,1.9-0.7c0.1-0.2,0.1-0.5,0.2-0.7c-0.6-0.1-1.2-0.1-1.9-0.1
					C957.2-50.6,957.2-49.9,957.7-49.9L957.7-49.9z"/>
			</g>
		</g>
		<g>
			<g>
				<path class="st2" d="M957.9-50.4c0.8,0.1,1.6-0.1,2.4,0.1c0.8,0.2,1.6,0.4,2.4,0.6c0.5,0.1,0.7-0.6,0.2-0.7
					c-0.9-0.2-1.8-0.4-2.8-0.6c-0.8-0.1-1.5,0-2.3,0C957.4-51.2,957.4-50.4,957.9-50.4L957.9-50.4z"/>
			</g>
		</g>
		<g>
			<g>
				<path class="st2" d="M958.5-50.7c2-0.4,4.1,0.1,5.4,1.8c0.3,0.4,0.9,0,0.6-0.4c-1.4-2.1-3.8-2.6-6.2-2.2
					C957.8-51.3,958-50.6,958.5-50.7L958.5-50.7z"/>
			</g>
		</g>
	</g>
</g>
<g id="Layer_2">
	<g>
		<text transform="matrix(1.3044 0 0 1 635.9521 50.8516)" class="st3 st4">FOR STUDENTS BY STUDENTS</text>
	</g>
	<line class="st5" x1="1263" y1="25" x2="1873" y2="25"/>
	<line class="st5" x1="0" y1="25" x2="612" y2="25"/>
</g>
</svg>
