<?xml version="1.0" encoding="utf-8"?>
<!-- Generator: Adobe Illustrator 21.0.0, SVG Export Plug-In . SVG Version: 6.00 Build 0)  -->
<svg version="1.1" id="Layer_1" xmlns="http://www.w3.org/2000/svg" xmlns:xlink="http://www.w3.org/1999/xlink" x="0px" y="0px"
	 viewBox="0 0 143 112" style="enable-background:new 0 0 143 112;" xml:space="preserve">
<style type="text/css">
	.st0{fill:none;stroke:#131313;stroke-width:2;stroke-miterlimit:10;}
	.st1{fill:#131313;}
	.st2{fill:#EFEBE3;}
</style>
<g>
	<g>
		<path class="st0" d="M71.7,101.7c-26.1,0-47.4-21.3-47.4-47.4c0-26.1,21.3-47.4,47.4-47.4c26.1,0,47.4,21.3,47.4,47.4
			C119.1,80.5,97.9,101.7,71.7,101.7z"/>
		<circle class="st1" cx="71.7" cy="54.3" r="40.7"/>
	</g>
	<g>
		<path class="st2" d="M71.8,35.9c6.3,0,7,0,9.5,0.1c2.3,0.1,3.5,0.5,4.4,0.8c1.1,0.4,1.9,0.9,2.7,1.8c0.8,0.8,1.3,1.6,1.8,2.7
			c0.3,0.8,0.7,2.1,0.8,4.4c0.1,2.5,0.1,3.2,0.1,9.5c0,6.3,0,7-0.1,9.5c-0.1,2.3-0.5,3.5-0.8,4.4c-0.4,1.1-0.9,1.9-1.8,2.7
			c-0.8,0.8-1.6,1.3-2.7,1.8c-0.8,0.3-2.1,0.7-4.4,0.8c-2.5,0.1-3.2,0.1-9.5,0.1c-6.3,0-7,0-9.5-0.1c-2.3-0.1-3.5-0.5-4.4-0.8
			c-1.1-0.4-1.9-0.9-2.7-1.8c-0.8-0.8-1.3-1.6-1.8-2.7c-0.3-0.8-0.7-2.1-0.8-4.4c-0.1-2.5-0.1-3.2-0.1-9.5c0-6.3,0-7,0.1-9.5
			c0.1-2.3,0.5-3.5,0.8-4.4c0.4-1.1,0.9-1.9,1.8-2.7c0.8-0.8,1.6-1.3,2.7-1.8c0.8-0.3,2.1-0.7,4.4-0.8
			C64.8,35.9,65.5,35.9,71.8,35.9 M71.8,31.7c-6.4,0-7.2,0-9.7,0.1c-2.5,0.1-4.2,0.5-5.7,1.1c-1.5,0.6-2.9,1.4-4.2,2.7
			c-1.3,1.3-2.1,2.6-2.7,4.2c-0.6,1.5-1,3.2-1.1,5.7c-0.1,2.5-0.1,3.3-0.1,9.7c0,6.4,0,7.2,0.1,9.7c0.1,2.5,0.5,4.2,1.1,5.7
			c0.6,1.5,1.4,2.9,2.7,4.2c1.3,1.3,2.6,2.1,4.2,2.7c1.5,0.6,3.2,1,5.7,1.1c2.5,0.1,3.3,0.1,9.7,0.1s7.2,0,9.7-0.1
			c2.5-0.1,4.2-0.5,5.7-1.1c1.5-0.6,2.9-1.4,4.2-2.7c1.3-1.3,2.1-2.6,2.7-4.2c0.6-1.5,1-3.2,1.1-5.7c0.1-2.5,0.1-3.3,0.1-9.7
			c0-6.4,0-7.2-0.1-9.7c-0.1-2.5-0.5-4.2-1.1-5.7c-0.6-1.5-1.4-2.9-2.7-4.2c-1.3-1.3-2.6-2.1-4.2-2.7c-1.5-0.6-3.2-1-5.7-1.1
			C79,31.7,78.2,31.7,71.8,31.7"/>
		<path class="st2" d="M71.8,43.1c-6.7,0-12.1,5.4-12.1,12.1c0,6.7,5.4,12.1,12.1,12.1c6.7,0,12.1-5.4,12.1-12.1
			C83.9,48.5,78.4,43.1,71.8,43.1 M71.8,63c-4.3,0-7.8-3.5-7.8-7.8s3.5-7.8,7.8-7.8c4.3,0,7.8,3.5,7.8,7.8S76.1,63,71.8,63"/>
		<path class="st2" d="M87.2,42.6c0,1.6-1.3,2.8-2.8,2.8c-1.6,0-2.8-1.3-2.8-2.8c0-1.6,1.3-2.8,2.8-2.8
			C85.9,39.8,87.2,41.1,87.2,42.6"/>
	</g>
</g>
</svg>
