<?xml version="1.0" encoding="utf-8"?>
<!-- Generator: Adobe Illustrator 21.0.0, SVG Export Plug-In . SVG Version: 6.00 Build 0)  -->
<svg version="1.1" xmlns="http://www.w3.org/2000/svg" xmlns:xlink="http://www.w3.org/1999/xlink" x="0px" y="0px"
	 viewBox="0 0 1024 768" style="enable-background:new 0 0 1024 768;" xml:space="preserve">
<style type="text/css">
	.st0{fill:#CE1111;}
	.st1{fill:#F7F7F7;}
	.st2{fill:#CE0F0F;}
</style>
<g id="Layer_3">
	<rect x="91" y="230" class="st0" width="867" height="285"/>
	<g>
		<g>
			<path class="st1" d="M127.5,283c1.9,0,1.9-3,0-3C125.6,280,125.5,283,127.5,283L127.5,283z"/>
		</g>
	</g>
	<g>
		<g>
			<path class="st1" d="M137.9,275.6c-2.5-4.6-5-9.1-7.5-13.7c-2.6,4.5-5.2,9-7.8,13.5c14.8-0.6,29.6,0.2,44.3,2.8
				c-2.2-2.9-4.4-5.8-6.6-8.7c2.5,72.4,4.4,144.9,5.6,217.4c0.2,11.6,18.2,11.6,18,0c-1.2-72.5-3-144.9-5.6-217.4
				c-0.1-3.7-2.7-8-6.6-8.7c-16.2-2.9-32.6-4.1-49-3.5c-6.9,0.3-11.1,7.4-7.8,13.5c2.5,4.6,5,9.1,7.5,13.7
				C127.9,294.9,143.5,285.8,137.9,275.6L137.9,275.6z"/>
		</g>
	</g>
	<g>
		<g>
			<path class="st1" d="M128,275.4c13.5-3.4,27.1-2.4,40.1,2.5c4.6,1.7,9.9-1.9,11.1-6.3c1.4-5-1.7-9.4-6.3-11.1
				c-15.9-5.9-33.2-6.6-49.6-2.5C112,260.9,116.8,278.2,128,275.4L128,275.4z"/>
		</g>
	</g>
	<g>
		<g>
			<path class="st1" d="M117.7,293.2c7.3,18.8,11.3,38.5,11.4,58.7c0.1,21-5.3,41.2-7.3,61.9c-1.1,10.7-1.1,21.6-0.2,32.3
				c0.7,7.7,3.2,16.3,1.9,24c-1,6.1-8.1,5.9-11.8,10.7c-3,3.9-3.6,9.6-0.5,13.7c2.6,3.3,7.6,4.8,11.6,5.4c8.5,1.3,16.8-0.7,25-2.8
				c6.3-1.6,13.7-4.1,19.6-0.6c1.5-5.6,3-11.2,4.5-16.8c-9.8,0.5-19.7,1-29.5,1.5c-11.5,0.6-11.6,18.6,0,18c9.8-0.5,19.7-1,29.5-1.5
				c8.8-0.5,12.4-12,4.5-16.8c-9.2-5.5-19.6-4.6-29.6-2.2c-7.1,1.7-17,6-24,2.5c1.4,1.8,2.8,3.6,4.1,5.4c-0.1-0.3-0.1-0.7-0.2-1
				c0,1.6,0,3.2,0,4.8c-2.2,2.3-2.4,2.8-0.6,1.6c0.8-0.4,1.5-0.7,2.3-1.1c1.9-0.9,3.4-1.8,5-3.1c3-2.5,5-5.7,6.3-9.4
				c2.4-6.3,2.1-13.5,1.3-20.1c-2.3-19.2-2.8-37.6,0.3-56.7c3.1-19,6.4-37.8,5.5-57.1c-0.9-19.2-4.9-38.2-11.9-56.1
				c-1.8-4.5-6-7.7-11.1-6.3C119.7,283.4,115.9,288.7,117.7,293.2L117.7,293.2z"/>
		</g>
	</g>
	<g>
		<g>
			<path class="st1" d="M168,497.5c11.6,0,11.6-18,0-18C156.4,479.5,156.4,497.5,168,497.5L168,497.5z"/>
		</g>
	</g>
	<g>
		<g>
			<path class="st1" d="M165,497.6c10.2,5.9,23.7-1.9,23.8-13.6c0.1-4.7-4.2-9.2-9-9c-4.9,0.2-8.9,4-9,9c0,1.7,0.6-2.2,0.1-0.5
				c0.2-0.5,1-1.9,0.2-0.7c-0.6,0.9,1.4-1.7,0.4-0.6c-1.2,1.3,1.7-1.3,0.3-0.3c-1.2,0.8,1.6-0.5,0.6-0.2c-1.6,0.5,0.4-0.2,0.8,0
				c-0.2,0-0.5,0-0.7,0c-0.7,0-0.3,0,1.2,0.2c-1.5-0.3,1.9,1,0.4,0.2c-4.1-2.3-10-1.1-12.3,3.2C159.5,489.6,160.7,495.1,165,497.6
				L165,497.6z"/>
		</g>
	</g>
	<g>
		<g>
			<path class="st1" d="M245,406c-0.3-7-0.8-14-0.9-21c0-2.3-0.2-5.1,0.9-7.2c0.7-1.3,0.8-1.1,1.6-1.9c0.5-0.5,0.6,0.2-0.5-0.2
				c1.7,0.6,2.7,5.6,3.1,7.8c1,5.9,1.3,12.1,1.9,18c0.5,4.8,3.8,9,9,9c4.5,0,9.5-4.1,9-9c-1.5-14.4-0.8-41.3-20.6-43.4
				c-10-1.1-18.5,6.5-21.2,15.8c-2.9,10.1-0.8,21.9-0.3,32.2C227.5,417.5,245.5,417.6,245,406L245,406z"/>
		</g>
	</g>
	<g>
		<g>
			<path class="st1" d="M235.5,418c5,0,10,0,15,0c4.7,0,9.2-4.1,9-9c-0.2-4.9-4-9-9-9c-5,0-10,0-15,0c-4.7,0-9.2,4.1-9,9
				C226.7,413.9,230.4,418,235.5,418L235.5,418z"/>
		</g>
	</g>
	<g>
		<g>
			<path class="st1" d="M230.7,436.2c18.4-7.5,38.3,1.4,57.3,0.1c4.6-0.3,9.3-0.7,13.2-3.3c5.2-3.6,6.2-9.8,4.8-15.6
				c-2.3-9.6-0.3-19.4-3.2-29.1c-3-9.7-8.3-18.5-14.2-26.8c-5.5-7.8-11-16.1-19.9-20.2c-16.7-7.7-40.2-6.5-54.8,5.1
				c-14.4,11.4-20.1,32.4-23.9,49.7c-2.4,11.3-1.7,22-0.3,33.3c1.2,10.7,2.1,21.6,4,32.2c1.6,9.3,5,18.5,11.6,25.4
				c6.5,6.9,15.8,11,25.1,12.7c19.2,3.6,39.5,0.2,55.4-11.4c4.4-3.2,8.5-6.7,12-10.8c4.3-5.1,4.4-10.6,0.5-16
				c-5.6-7.6-16.7-9.1-25.3-6.3c-6.8,2.2-16.2,12-23.3,6.8c-8.1-5.8-6.6-18.6-6.2-27.1c0.5-11.6-17.5-11.6-18,0
				c-0.8,17.8,1.9,39.3,21.6,45.7c9,2.9,17.6-0.8,25.4-5.2c2.6-1.4,5.2-3.2,8.2-3.5c1.1-0.1,2.1,0.2,2.8,0.2c-0.3,0,1.3,0.6,0.8,0.4
				c-0.5-0.2-1.2-2.9-0.5-0.2c0.8-2.9,1.5-5.8,2.3-8.8c-12.8,15.4-32.7,22.7-52.4,18.4c-9.3-2-17-6.6-20.3-15.9
				c-3.5-10.1-3.8-21.4-5-31.9c-1.4-11.8-3.2-23.4-0.4-35.1c2.2-9.5,4.9-19.6,9.3-28.3c4.5-8.6,11-14.1,20.8-15.7
				c7.9-1.3,19.6-1.1,26.1,4.2c4.1,3.3,7.1,8.4,10,12.7c3.6,5.1,7.1,10.4,9.6,16.2c2.3,5.3,3.5,10.8,3.4,16.5
				c-0.1,2.9-0.4,5.8-0.1,8.7c0.1,1.6,0.4,3.3,0.7,4.9c0.2,0.8,0.4,1.5,0.6,2.3c0.3,2,0.6,2,0.7,0c1.1-1.1,2.2-2.2,3.2-3.2
				c-3.1,2.2-10.5,1-14.2,0.8c-6-0.4-11.9-1.3-17.8-2c-11.5-1.4-23.3-1.8-34.2,2.6c-4.5,1.8-7.7,6-6.3,11.1
				C220.8,434.1,226.2,438,230.7,436.2L230.7,436.2z"/>
		</g>
	</g>
	<g>
		<g>
			<path class="st1" d="M315,364.5c5.6-0.3,11.2-0.6,16.8-0.9c4.9-0.3,10.8-1.5,15.7-0.5c0.5,0.1,1.9,0.9,2.2,0.8
				c-0.4,0.1-0.4-0.6-0.6-0.4c0,0,0,0,0,0c2.1-2.7,2.4-3.6,0.9-2.7c-0.7,0-2.1,1.3-2.5,1.7c-4.9,3.6-6.9,10.1-3.7,15.6
				c1,1.7,2.8,3,3.7,4.7c0.7,1.4,0.9,3.5,1.1,5c0.8,5.4,1.6,10.8,3,16.1c3,11.2,7.7,21.8,12.4,32.4c1.8,4.1,7.6,5.3,11.2,3.7
				c4.4-1.9,5.9-6,5.2-10.6c-0.8-5.7,5.3-12.1,8.4-16.1c4.9-6.4,9.1-12.8,11.4-20.7c2.5-8.5,4.2-18.6,1-27.1
				c-3.2-8.7-11.4-15.3-20.9-14.8c-11.5,0.7-11.7,18.1,0,18c13.2-0.1,26.4-0.3,39.5-0.4c11.6-0.1,11.6-18.1,0-18
				c-13.2,0.1-26.4,0.3-39.5,0.4c0,6,0,12,0,18c5.8-0.3,4.7,8.7,4.1,12.4c-1.2,6.9-3.7,12.8-7.8,18.5c-7.9,10.9-15.8,20.3-13.7,34.6
				c5.5-2.3,11-4.6,16.4-6.9c-4.5-10.3-8.9-20.6-11.4-31.5c-1.1-4.8-1.5-9.8-2.5-14.6c-1.2-5.7-4.2-9.4-7.7-13.9
				c0.8,1.3,1.5,2.6,2.3,4c-0.1-0.4-0.3-0.9-0.4-1.3c0,1.6,0,3.2,0,4.8c-1.8,2.1-1.8,2.6-0.2,1.4c0.3-0.2,0.7-0.5,1-0.7
				c1.6-1.2,3-2.4,4.1-4.1c1.7-2.7,2.4-5.8,2.3-9c-0.3-6.7-4.7-12.4-10.6-15.1c-6.1-2.7-12.6-2.2-19.1-1.9
				c-7.5,0.4-14.9,0.8-22.4,1.3C303.5,347.1,303.4,365.1,315,364.5L315,364.5z"/>
		</g>
	</g>
	<g>
		<g>
			<path class="st1" d="M411.2,359.7c-10.6,21.7-18,45.2-26.6,67.8c-4.2,11.1-8.4,22.2-12.3,33.4c-2,5.8-4,11.5-5.8,17.3
				c-0.2,0.8-2.7,6.4-2.2,7.1c0-0.1,3.4-0.1,3.4-0.6c0-0.2-2.6-2.7-2.7-2.8c-7.6-8.7-20.3,4-12.7,12.7c4.5,5.2,10.9,9.4,18.1,7.6
				c6.4-1.7,9.6-7.1,11.7-13c4.6-13.6,8.9-27.2,13.9-40.7c4.9-13.3,9.9-26.5,15-39.7c5.1-13.4,9.6-27.1,15.9-40
				c2.1-4.4,1.2-9.7-3.2-12.3C419.6,354.2,413.4,355.3,411.2,359.7L411.2,359.7z"/>
		</g>
	</g>
	<g>
		<g>
			<path class="st1" d="M301.2,356.4c9.8,22.3,12.4,46.9,18.4,70.4c5.5,21.6,14.2,42.9,30.3,58.7c8.2,8.1,21-4.6,12.7-12.7
				c-15.1-14.9-22-35.3-26.8-55.5c-5.6-23.7-9.1-47.6-19-70c-2-4.4-8.5-5.5-12.3-3.2C299.8,346.8,299.2,351.9,301.2,356.4
				L301.2,356.4z"/>
		</g>
	</g>
	<g>
		<g>
			<path class="st1" d="M321.3,359.8c0.7-0.6,0.4-0.5-0.7,0.5c0.3-0.2,0.5-0.3,0.8-0.5c-1.4,0.6-1.7,0.7-0.8,0.4
				c0.7-0.2,0.6-0.2-0.2,0c-0.9,0.1-1,0.1-0.2,0.1c1,0,0.7,0-0.9-0.2c0.3,0.1,0.6,0.1,0.9,0.2c-1.4-0.6-1.7-0.8-0.8-0.3
				c4.2,2.2,10,1.2,12.3-3.2c2.2-4.2,1.2-10-3.2-12.3c-6.6-3.5-14.5-2.5-19.9,2.7c-3.4,3.3-3.5,9.5,0,12.7
				C312.2,363.1,317.7,363.3,321.3,359.8L321.3,359.8z"/>
		</g>
	</g>
	<g>
		<g>
			<path class="st1" d="M464.7,412.7c-1.6,0.7-3.2,1.5-4.8,2.2c-8.1,3.7-4.1,17.4,4.5,16.8c11.2-0.8,22.4-1.6,33.6-2.5
				c9.3-0.7,20.7,0,29.3-4c17.4-8.1,11.7-35.6,5.6-49.3c-14.9-33.7-59.9-44.7-87.5-19.5c-14.4,13.1-20.6,32.3-22.5,51.1
				c-2.1,20.5,0.1,42.1,4.8,62.1c2.3,9.6,6.9,17.3,15.5,22.4c8.3,4.9,18.3,7.4,28,7.6c10.1,0.2,18.8-3,28.2-6.2
				c8.8-3,18.8-2.3,26.7-7.8c8.6-6,13.7-17.6,7.5-27.2c-5.2-8.2-16.5-10.6-25.3-7.8c-5.3,1.7-9.8,4.8-14.4,7.8
				c-2.8,1.9-7.9,5.8-11.6,4.4c-2.5-1-3.4-4.7-3.8-7c-0.9-6,0.3-12.3-0.1-18.4c-0.4-4.8-3.9-9-9-9c-4.6,0-9.4,4.1-9,9
				c1.2,14.5-2.6,33.2,13.4,41.2c8.1,4,17.3,2.1,24.9-2.1c5.1-2.8,10.9-9.2,17-9.2c1.1,0,2.4,0.2,2.9,1c-0.5-0.8,0-0.7-0.5,0
				c-0.8,1.2-1.7,2.1-3,2.8c-6.3,3.4-14.7,2.7-21.4,5.1c-7.2,2.6-13.9,5.3-21.7,5.3c-7.2,0-15.1-1.7-21-5.9
				c-5.6-4-6.3-11.9-7.5-18.1c-1.6-8.3-2.6-16.6-3-25c-0.8-15.5-0.6-32.2,5.8-46.7c5.4-12.1,14.9-22.2,28.2-24.9
				c12.1-2.5,25.3,1.8,33.9,10.5c5.1,5.1,8.6,11.5,10.5,18.5c0.9,3.4,1.5,6.7,1.6,10.2c0.1,2,0.6,7.5-0.7,8.9
				c-1.5,1.6-7.1,1.1-9,1.2c-5.3,0.4-10.5,0.9-15.8,1.3c-10.2,0.8-20.4,1.5-30.7,2.2c1.5,5.6,3,11.2,4.5,16.8
				c1.6-0.7,3.2-1.5,4.8-2.2c4.4-2,5.5-8.4,3.2-12.3C474.3,411.4,469.1,410.6,464.7,412.7L464.7,412.7z"/>
		</g>
	</g>
	<g>
		<g>
			<path class="st1" d="M466.4,412.4c7.2,0.5,14.5-0.1,21.6-1.7c6.9-1.6,14.4-4.1,16.6-11.7c2.9-10,1.7-23.9-4.1-32.6
				c-7-10.5-21.1-14.1-32.2-7.7c-11.3,6.6-14.3,21.5-8,32.6c5.7,10.1,21.3,1,15.5-9.1c-1.9-3.3-0.9-7.6,3.1-8.6
				c3.9-1,6.5,1.9,7.7,5.3c0.8,2.2,1,4.5,1.1,6.7c0,1.6,0,3.2-0.1,4.7c0,0.3-0.4,5.5,1.7,1.1c-0.8,1.6-8.7,2.4-10.7,2.7
				c-4.1,0.6-8.2,0.5-12.3,0.2C454.8,393.6,454.8,411.6,466.4,412.4L466.4,412.4z"/>
		</g>
	</g>
	<g>
		<g>
			<path class="st1" d="M484.5,500.5c11.8-0.4,23.1-3.8,33.1-10.1c9.7-6.2,0.7-21.8-9.1-15.5c-7.3,4.7-15.3,7.4-24,7.7
				C472.9,482.9,472.9,500.9,484.5,500.5L484.5,500.5z"/>
		</g>
	</g>
	<g>
		<g>
			<path class="st1" d="M544.1,270.4c11.1-2,22.2-4.3,33.3-6.1c4.8-0.8,14-2.4,17.7,2.1c2.6,3.2,1.8,9,1.9,12.8
				c0.2,5.8,0.3,11.6,0.5,17.4c0.3,11.9,0.7,23.9,1,35.8c0.3,11.6,18.3,11.6,18,0c-0.4-13.9-0.8-27.7-1.2-41.6
				c-0.3-12.2,1.5-27.7-7.7-37.3c-7.3-7.6-18.7-8.7-28.6-7.5c-13.3,1.5-26.6,4.6-39.8,7c-4.8,0.9-7.5,6.7-6.3,11.1
				C534.5,269.2,539.3,271.3,544.1,270.4L544.1,270.4z"/>
		</g>
	</g>
	<g>
		<g>
			<path class="st1" d="M597.5,335.5c-0.9,21.2-2.1,42.4-2.4,63.6c-0.2,15-1,36.8,15.4,44.3c4.4,2,9.7,1.3,12.3-3.2
				c2.3-3.9,1.2-10.3-3.2-12.3c-4.4-2-5.5-6.4-6.1-10.9c-1.1-8.4-0.5-17.3-0.2-25.7c0.5-18.6,1.5-37.2,2.2-55.8
				C616,323.9,598,323.9,597.5,335.5L597.5,335.5z"/>
		</g>
	</g>
	<g>
		<g>
			<path class="st1" d="M603.8,429.5c4.5-1.1,9-0.2,13.4,0.6c4.9,0.8,9.7,1.7,14.6,2.5c10,1.7,20.1,3.5,30.1,5.2
				c4.8,0.8,9.7-1.3,11.1-6.3c1.2-4.3-1.5-10.2-6.3-11.1c-11.3-2-22.7-3.9-34-5.9c-11-1.9-22.6-5.3-33.7-2.4
				C587.8,415,592.5,432.4,603.8,429.5L603.8,429.5z"/>
		</g>
	</g>
	<g>
		<g>
			<path class="st1" d="M654.3,430.7c10.4-7.5,11.1-19.1,11.8-30.9c0.9-14.1,1.4-28.2,1.4-42.3c0.1-27.9-1.3-55.7-4.3-83.4
				c-0.5-4.8-3.8-9-9-9c-4.5,0-9.5,4.1-9,9c2.7,25.1,4.2,50.3,4.3,75.6c0.1,12.5-0.2,24.9-0.7,37.4c-0.3,6.2-0.6,12.4-1.1,18.7
				c-0.2,2.5-0.2,7.7-2.5,9.4c-3.9,2.8-5.9,7.8-3.2,12.3C644.3,431.3,650.3,433.5,654.3,430.7L654.3,430.7z"/>
		</g>
	</g>
	<g>
		<g>
			<path class="st1" d="M597.2,411.1c7.1,3.1,11.9,9.2,18.3,13.5c6.3,4.4,14.4,7.1,22.1,5c5.8-1.5,10.6-5.4,14.4-10
				c3.4-4.1,6.3-9.3,11.1-11.9c10.2-5.5,1.1-21-9.1-15.5c-4.8,2.5-8.3,6.4-11.6,10.6c-2.3,2.9-4.9,7.6-8.4,9.1
				c-4,1.7-8.6-2.1-11.5-4.5c-5.2-4.4-9.9-9.2-16.2-11.9c-4.5-1.9-9.7-1.3-12.3,3.2C591.8,402.6,592.7,409.2,597.2,411.1
				L597.2,411.1z"/>
		</g>
	</g>
	<g>
		<g>
			<path class="st1" d="M525.5,265.6c9.1,38.5,21.5,77.2,20,117.1c-1.4,35.7-5.6,74.4,19.5,103.6c3.2,3.7,9.5,3.2,12.7,0
				c3.7-3.7,3.2-9,0-12.7c-22.9-26.8-14.4-66.7-14-98.7c0.3-19.7-3.1-38.8-7.5-57.8c-4.4-18.8-8.9-37.5-13.3-56.3
				C540.2,249.5,522.8,254.3,525.5,265.6L525.5,265.6z"/>
		</g>
	</g>
	<g>
		<g>
			<path class="st1" d="M525.5,298.1c2.3,31.1,4.6,62.2,6.9,93.2c0.5,7,1.1,14,0.8,21c-0.3,7.1-1.3,14.2-0.5,21.3
				c1.5,13.2,7.9,25.5,18.1,34.1c3.7,3.1,9.1,3.6,12.7,0c3.2-3.2,3.7-9.6,0-12.7c-8.8-7.3-13.3-17.1-13.2-28.6
				c0.1-6.8,1-13.6,0.9-20.5c-0.1-6.9-0.8-13.8-1.3-20.6c-2.1-29.1-4.3-58.2-6.4-87.3c-0.4-4.8-3.9-9-9-9
				C529.9,289.1,525.1,293.3,525.5,298.1L525.5,298.1z"/>
		</g>
	</g>
	<g>
		<g>
			<path class="st1" d="M539.8,307c0-11.3,1.1-22.4,3.5-33.5c2.4-11.3-14.9-16.1-17.4-4.8c-2.7,12.6-4.1,25.4-4.2,38.2
				C521.7,318.6,539.7,318.6,539.8,307L539.8,307z"/>
		</g>
	</g>
	<g>
		<g>
			<path class="st1" d="M565.7,465.9c-0.7-1.3-1.4-2.6-2.1-4c-5.2,3-10.4,6.1-15.5,9.1c10.5,14.5,27.5,18.4,44.3,21.2
				c17.3,2.9,36.6,4.5,51.8-6.2c4-2.8,5.8-7.9,3.2-12.3c-2.3-3.9-8.3-6-12.3-3.2c-11.1,7.8-25.1,6.5-37.9,4.3
				c-10.8-1.8-26.5-3.3-33.5-12.9c-6.7-9.2-21.1-1.3-15.5,9.1c0.7,1.3,1.4,2.6,2.1,4C555.6,485.2,571.2,476.2,565.7,465.9
				L565.7,465.9z"/>
		</g>
	</g>
	<g>
		<g>
			<path class="st1" d="M567.8,480.2c23.3,18.2,52.6,26.7,81.9,22.7c14.3-2,28.4-6.7,37.7-18.3c8.7-10.8,12.6-24.2,15.9-37.4
				c2.8-11.2-14.5-16-17.4-4.8c-2.5,10.1-5.1,21-11.4,29.5c-6.6,9-17.8,12.1-28.4,13.4c-23,2.8-47.3-3.6-65.6-17.9
				c-3.8-3-9-3.7-12.7,0C564.7,470.5,563.9,477.2,567.8,480.2L567.8,480.2z"/>
		</g>
	</g>
	<g>
		<g>
			<path class="st1" d="M666.8,492.1c15.2,5.7,28.8-6.2,38.7-16.2c5.5-5.5,11.6-10.8,16.6-16.8c5.1-6.2,6.4-13,7.1-20.8
				c3.1-33.6,1.4-67.5-4.4-100.7c-0.8-4.8-6.7-7.5-11.1-6.3c-5.1,1.4-7.1,6.3-6.3,11.1c4.8,27.8,6.3,56.1,4.6,84.3
				c-0.3,5.6,0.1,12.7-2,18.1c-2,5.2-8.3,9.5-12.1,13.4c-6,6-16.5,20.6-26.5,16.8c-4.6-1.7-9.9,1.9-11.1,6.3
				C659.1,486.1,662.2,490.4,666.8,492.1L666.8,492.1z"/>
		</g>
	</g>
	<g>
		<g>
			<path class="st1" d="M710.8,263.5c0.1,25.9,2.5,51.8,7,77.3c0.8,4.8,6.7,7.5,11.1,6.3c5.1-1.4,7.1-6.3,6.3-11.1
				c-4.2-24-6.3-48.2-6.4-72.5C728.8,251.9,710.8,251.9,710.8,263.5L710.8,263.5z"/>
		</g>
	</g>
	<g>
		<g>
			<path class="st1" d="M651.6,277.5c20.7-6.7,42.2-8.7,63.8-6c4.8,0.6,9-4.6,9-9c0-5.4-4.2-8.4-9-9c-23-2.9-46.5-0.5-68.5,6.7
				C635.9,263.7,640.6,281.1,651.6,277.5L651.6,277.5z"/>
		</g>
	</g>
	<g>
		<g>
			<path class="st1" d="M751.4,271.8c7.2-0.1,14.3,1,21,4c4.4,2,9.7,1.3,12.3-3.2c2.2-3.8,1.2-10.3-3.2-12.3
				c-9.6-4.2-19.5-6.6-30.1-6.4C739.9,254,739.8,272,751.4,271.8L751.4,271.8z"/>
		</g>
	</g>
	<g>
		<g>
			<path class="st1" d="M737.4,253c-5.7,6-6.7,13.7-4.9,21.6c1.4,6,7.2,13.2,5.4,19.5c-3.2,11.1,14.1,15.9,17.4,4.8
				c2.1-7.1,0.5-13.9-2.3-20.5c-1.1-2.6-5.3-10-2.8-12.7C758,257.3,745.3,244.5,737.4,253L737.4,253z"/>
		</g>
	</g>
	<g>
		<g>
			<path class="st1" d="M724.5,269.9c-8.2,32-5.7,65.8-5.3,98.5c0.4,34,0.8,68,1.2,102c0.1,11.6,18.1,11.6,18,0
				c-0.4-33.3-0.8-66.6-1.2-100c-0.4-31.6-3.3-64.8,4.6-95.7C744.8,263.5,727.4,258.7,724.5,269.9L724.5,269.9z"/>
		</g>
	</g>
	<g>
		<g>
			<path class="st1" d="M723.9,268.5c7.4,6.3,17.5,7.7,26.1,2.8c4.2-2.4,5.7-8.1,3.2-12.3c-2.5-4.2-8.1-5.7-12.3-3.2
				c-0.9,0.5-1,0.6-0.2,0.2c-0.5,0.2-1.1,0.3-1.6,0.5c1.5-0.3-0.5-0.1-1-0.1c1.7,0.1-0.6-0.2-1-0.3c1.9,0.6-1.9-1.4-0.5-0.2
				c-3.7-3.1-9.1-3.6-12.7,0C720.7,259,720.2,265.4,723.9,268.5L723.9,268.5z"/>
		</g>
	</g>
	<g>
		<g>
			<path class="st1" d="M742.6,269.1c14.9,1.4,29.9,2.8,44.8,4.3c10.1,1,25.8,2.5,29.8,13.9c3.9,10.8,21.3,6.2,17.4-4.8
				c-5.9-16.5-21.5-23.7-37.8-26c-18-2.5-36.2-3.6-54.2-5.4c-4.8-0.5-9,4.5-9,9C733.6,265.4,737.7,268.6,742.6,269.1L742.6,269.1z"
				/>
		</g>
	</g>
	<g>
		<g>
			<path class="st1" d="M797.9,270.1c15.5-1.8,30.9-0.5,45.8,4.3c2.4,0.8,5.7,1.5,7.2,3.8c1.5,2.3,1.8,6.2,2.3,8.9
				c1.6,8.4,3.3,16.8,4.9,25.2c0.9,4.8,6.6,7.5,11.1,6.3c5-1.4,7.2-6.3,6.3-11.1c-1.9-9.6-3.5-19.2-5.6-28.8
				c-2.1-9.8-7.2-16.3-16.5-20c-17.3-6.9-36.9-8.8-55.3-6.7c-4.8,0.6-9,3.7-9,9C788.9,265.6,793,270.7,797.9,270.1L797.9,270.1z"/>
		</g>
	</g>
	<g>
		<g>
			<path class="st1" d="M779.1,246c-9.8,3.6-20,6.2-30.3,7.3c-4.8,0.5-9,3.8-9,9c0,4.7,4.1,9.3,9,9c18.7-1.1,37.5-0.2,56,2.9
				c4.8,0.8,9.7-1.3,11.1-6.3c1.2-4.3-1.5-10.3-6.3-11.1c-20.1-3.4-40.4-4.7-60.8-3.5c0,6,0,12,0,18c12-1.3,23.7-3.8,35.1-7.9
				c4.6-1.7,7.6-6.1,6.3-11.1C789,247.9,783.7,244.3,779.1,246L779.1,246z"/>
		</g>
	</g>
	<g>
		<g>
			<path class="st1" d="M801.7,250.8c-10.6-2.3-21.4-3.6-32.3-4c-11.6-0.4-11.6,17.6,0,18c9.3,0.3,18.4,1.4,27.5,3.3
				C808.2,270.6,813.1,253.2,801.7,250.8L801.7,250.8z"/>
		</g>
	</g>
	<g>
		<g>
			<path class="st1" d="M726.1,466.1c-6.2,2.7-7.4,11-4.1,16.3c3.9,6.2,11.9,5.9,18.3,6.1c14.2,0.4,28.5-0.1,42.7-1.4
				c4.8-0.4,9-3.8,9-9c0-4.5-4.1-9.4-9-9c-8.7,0.8-17.4,1.3-26.2,1.5c-4.2,0.1-8.4,0.1-12.6,0c-2.2,0-8.4,0.6-9.9-0.5
				c1.1,1.1,2.2,2.2,3.2,3.2c0.1,0.1,0.1,0.2,0.2,0.3c0,1.6,0,3.2,0,4.8c-0.1,0.1-0.1,0.3-0.2,0.4c-1.1,1.1-2.2,2.2-3.2,3.2
				c0.3-0.1,0.6-0.2,0.8-0.4c4.5-1.9,5.5-8.5,3.2-12.3C735.7,464.7,730.5,464.2,726.1,466.1L726.1,466.1z"/>
		</g>
	</g>
	<g>
		<g>
			<path class="st1" d="M726,486.9c3.8-0.5,7.8,5,11.1,7.6c6.1,4.8,13.4,6.8,21.1,6.1c7.8-0.7,15.2-3.5,22.9-4.5
				c8.3-1.1,16.7-0.6,24.8,1.2c11.3,2.5,16.1-14.8,4.8-17.4c-8.6-2-17.6-2.9-26.4-2.2c-8.6,0.7-16.7,3.4-25.1,4.7
				c-7.1,1.1-10.2-1.3-15.3-5.8c-5-4.5-10.9-8.6-17.9-7.7c-4.8,0.6-9,3.7-9,9C717,482.3,721.1,487.5,726,486.9L726,486.9z"/>
		</g>
	</g>
	<g>
		<g>
			<path class="st1" d="M807.1,481c0.2-40-1-80-3.6-120c-0.8-11.5-18.8-11.6-18,0c2.6,39.9,3.8,79.9,3.6,120
				C789,492.6,807,492.6,807.1,481L807.1,481z"/>
		</g>
	</g>
	<g>
		<g>
			<path class="st1" d="M782.5,337.1c3.3,5.1,3.3,11.6,4.2,17.5c0.9,6.4,2.8,12.7,7.3,17.5c11.8,12.8,29.7,6.6,42.6-0.8
				c10.1-5.7,1-21.3-9.1-15.5c-5.7,3.2-18.3,10.7-21.9,1.4c-3.7-9.6-1.7-20-7.5-29.1C791.8,318.3,776.2,327.3,782.5,337.1
				L782.5,337.1z"/>
		</g>
	</g>
	<g>
		<g>
			<path class="st1" d="M792.8,327c7.3,1.6,14.5,1.7,21.9,1.7c5.6,0.1,11.4,0.2,16.6,2.6c10.6,4.9,7.9,18.2,5.6,27.3
				c-2.9,11.2,14.5,16,17.4,4.8c3.9-15,4.9-33.1-8.4-43.9c-6.5-5.3-14.6-7.5-22.9-8.3c-8.5-0.8-17.1,0.4-25.5-1.5
				C786.3,307.2,781.4,324.5,792.8,327L792.8,327z"/>
		</g>
	</g>
	<g>
		<g>
			<path class="st1" d="M802,365.1c8.3,3.4,17,6,26.1,4c3.5-0.8,6.7-2.3,10-3.5c1.4-0.5,2.8-0.9,4.2-1.4c0.5-0.2,1-0.3,1.6-0.1
				c-1.2-0.4-1.1-0.3,0.4,0.5c9.8,6.2,18.8-9.3,9.1-15.5c-7.5-4.7-15.3-2.7-22.9,0.3c-3.3,1.3-6.5,2.7-10.1,2.5
				c-4.6-0.3-9.2-2.4-13.5-4.1c-4.5-1.8-9.9,2-11.1,6.3C794.3,359.1,797.5,363.2,802,365.1L802,365.1z"/>
		</g>
	</g>
	<g>
		<g>
			<path class="st1" d="M817.4,266.3c9.2,0.2,18.4,0.5,27.7,1.1c8.8,0.6,18.1,0.7,26.7,2.4c2.9,0.6,3.2,1.5,4.3,4.2
				c1.7,3.9,3.1,7.9,4.5,11.9c2.9,8.6,5.3,17.4,7.1,26.3c2.3,11.3,19.7,6.5,17.4-4.8c-2.1-10.1-4.8-20.1-8.4-29.8
				c-3.2-8.9-6.2-19.6-15.7-23.7c-4.2-1.8-8.8-2.1-13.3-2.6c-5.6-0.6-11.2-1.1-16.7-1.5c-11.2-0.8-22.4-1.3-33.6-1.5
				C805.9,248.1,805.9,266.1,817.4,266.3L817.4,266.3z"/>
		</g>
	</g>
	<g>
		<g>
			<path class="st1" d="M870.9,273.1c9.5,11.5,19.4,22.7,28.4,34.5c7.8,10.2,14.5,22.8,12.6,36c-0.7,4.8,1.2,9.7,6.3,11.1
				c4.2,1.2,10.4-1.4,11.1-6.3c2.4-17.1-2.5-33.2-12.5-47.2c-10.2-14.2-22.1-27.3-33.2-40.8c-3.1-3.7-9.5-3.2-12.7,0
				C867.2,264,867.8,269.3,870.9,273.1L870.9,273.1z"/>
		</g>
	</g>
	<g>
		<g>
			<path class="st1" d="M913,348.8c-5.5,8.9-13.1,15.9-22.5,20.5c-10.6,5.3-22.1,7.8-32.4,13.8c-16.5,9.7-32.5,26.4-52.7,27.1
				c-11.6,0.3-11.6,18.4,0,18c24.5-0.7,41.8-17.8,61.8-29.5c11.1-6.5,23.9-9,35.1-15.3c10.8-6.1,19.7-15,26.2-25.5
				C934.6,348,919,338.9,913,348.8L913,348.8z"/>
		</g>
	</g>
	<g>
		<g>
			<path class="st1" d="M798.7,428.7c29.3,5.7,58.1-2.4,84.2-15.6c11.9-6,25.9-12.7,34.1-23.6c8.4-11.2,8.7-25.5,8.1-38.9
				c-0.5-11.5-18.5-11.6-18,0c0.4,9.6,1.5,21.4-5.3,29.3c-3.6,4.2-8.7,6.9-13.3,9.7c-5.3,3.1-10.7,6.1-16.3,8.9
				c-21.1,10.4-45.2,17.5-68.7,13c-4.8-0.9-9.7,1.3-11.1,6.3C791.2,422,793.9,427.8,798.7,428.7L798.7,428.7z"/>
		</g>
	</g>
	<g>
		<g>
			<path class="st1" d="M547.6,377.5c0.2-13.6-1.6-27-3.1-40.5c-1.5-13.6-3-27.2-4.7-40.7c-0.6-4.8-3.7-9-9-9c-4.4,0-9.6,4.1-9,9
				c1.7,13.6,3.2,27.1,4.7,40.7c1.5,13.4,3.3,26.9,3.1,40.5C529.5,389.1,547.5,389.1,547.6,377.5L547.6,377.5z"/>
		</g>
	</g>
	<g>
		<g>
			<path class="st1" d="M518.1,277c0.3,29,0.5,58,0.8,87c0.1,11.6,18.1,11.6,18,0c-0.3-29-0.5-58-0.8-87
				C536,265.4,518,265.4,518.1,277L518.1,277z"/>
		</g>
	</g>
	<g>
		<g>
			<path class="st1" d="M518.6,269.8c-1.9-2.1,0.6,0.4,0.4,0.8c-0.1-0.3-0.3-0.7-0.4-1c0.2,0.4,0.3,0.8,0.4,1.2
				c0.1,0.3,0.2,0.6,0.2,0.9c0.1,0.7,0.1,0.4-0.1-0.8c0.4,0.1-0.5,3.9,0.1,0.7c-0.8,4.6,1.2,9.9,6.3,11.1c4.4,1,10.2-1.3,11.1-6.3
				c1.3-7.2-0.4-13.7-5.2-19.3c-3.1-3.6-9.6-3.4-12.7,0C515.2,260.9,515.4,266,518.6,269.8L518.6,269.8z"/>
		</g>
	</g>
	<g>
		<g>
			<path class="st1" d="M737.9,469c0.5-3.6-0.5-6.9-2.3-10.1c-3.1-5.8-12.5-5.9-15.5,0c-6.9,13.2-0.6,29.1,12.3,36
				c14.5,7.8,30,3.4,45.4,2.3c12.8-0.9,29.5,3,36.9-11c3.6-6.8,2.8-15.1,2.8-22.5c0-9.2,0-18.5,0.1-27.7c0-11.6-18-11.6-18,0
				c0,12.6,0.3,25.2-0.1,37.8c-0.1,3.8-0.4,4.9-4.3,5.4c-4.4,0.6-9-0.2-13.5-0.2c-11.1,0.1-22.3,3.9-33.4,2.3
				c-5.4-0.8-16.4-5.9-12.5-13.3c-5.2,0-10.4,0-15.5,0c0-0.9-0.1-0.6-0.2,1c-0.6,4.8,4.6,9,9,9C734.3,478,737.2,473.8,737.9,469
				L737.9,469z"/>
		</g>
	</g>
	<g>
		<g>
			<path class="st1" d="M525.9,357.2c-2.9,13.8-4.7,28-4.5,42.1c0.2,11.4,2.7,23.4,11.4,31.4c8.7,8,20-3.9,12.7-12.7
				c-1.1-1.3-2.1-2.6-3.2-3.9c-4.2-5-13.9-2.4-15,4c-3.4,18.8,3.1,37.9,16.7,51.4c13.7,13.6,32.6,20,51.5,21.7c4.8,0.4,9-4.5,9-9
				c0-5.2-4.1-8.6-9-9c-25.2-2.3-56.1-20.8-50.8-50.3c-5,1.3-10,2.6-15,4c1.1,1.3,2.1,2.6,3.2,3.9c4.2-4.2,8.5-8.5,12.7-12.7
				c-6-5.5-6.2-14-6.2-21.6c0.1-11.6,1.5-23.1,3.9-34.4C545.6,350.7,528.3,345.9,525.9,357.2L525.9,357.2z"/>
		</g>
	</g>
</g>
<g id="Layer_1">
	<g>
		<g>
			<path class="st2" d="M721,404.6c0,10.3-1.7,20-5,29.2c-3.3,9.2-8,17.4-14,24.8c-6,7.4-13.1,13.8-21.4,19.1
				c-8.2,5.4-17.1,9.5-26.7,12.4c-4.2,1.4-8.5,2.4-12.9,3.2c-4.4,0.8-8.8,1.2-13.2,1.2c-4.4,0-8.7-0.4-13-1.2
				c-4.3-0.8-8.6-1.9-12.8-3.2c-9.6-2.9-18.4-7.1-26.7-12.4c-8.2-5.4-15.3-11.7-21.4-19.1c-6-7.4-10.7-15.7-14-24.8
				c-3.3-9.1-5-18.9-5-29.2l-1.1-140.1l64.1-2.3l-0.9,138.6c0,4.3,0.9,8.2,2.6,11.8c1.7,3.6,4,6.7,6.8,9.3c2.9,2.6,6.2,4.7,9.9,6.2
				c3.8,1.5,7.9,2.2,12,2.2c4-0.1,7.8-0.8,11.3-2.2c3.7-1.5,7-3.5,9.8-6.1c2.9-2.6,5.1-5.7,6.8-9.3c1.7-3.6,2.6-7.5,2.6-11.8V261h62
				V404.6z"/>
			<path class="st2" d="M832.8,417H793v70h-60V261h99.8c10.7,0,20.9,1.8,30.7,5.5c9.8,3.7,18.5,8.8,26,15.5
				c7.5,6.6,13.5,14.6,18,23.9c4.5,9.3,6.7,19.5,6.7,30.6c0,11.3-2.2,21.8-6.7,31.5c-4.5,9.7-10.5,18.2-18,25.5
				c-7.5,7.3-16.2,13-26,17.2C853.7,414.9,843.5,417,832.8,417z M828.6,311H794v49h34.6c3.4,0,6.7-0.6,9.7-1.9c3-1.3,5.7-3,8-5.3
				c2.3-2.2,4.1-4.8,5.4-7.7c1.3-2.9,2-6.1,2-9.6s-0.7-6.7-2-9.6c-1.3-2.9-3.1-5.5-5.4-7.7c-2.3-2.2-5-4-8-5.3
				C835.3,311.6,832,311,828.6,311z"/>
		</g>
		<path d="M170,262.5v208.7c0,5.2,2.6,8.9,7.8,11.1c2.2,1,3.2,2.4,3.2,4.3v5.5c0,1.9-1.3,2.8-4,2.8H125c-2.6,0-4-0.9-4-2.8v-5.5
			c0-2,1.1-3.4,3.4-4.3c5-2.1,7.6-5.8,7.6-11V287.5c0-5.4-2.6-9.2-7.8-11.3c-2.2-0.9-3.2-2.2-3.2-3.9v-5.7c0-1.8,1.4-2.7,4.2-2.7
			L170,262.5z"/>
		<path d="M295.5,458.8c-2.9,26.4-17.8,39.6-44.7,39.6c-17.8,0-32-6-42.4-18.1c-10.5-12-15.7-30.1-15.7-54.1c0-23.3,5-41.6,14.9-55
			c9.9-13.3,23.2-20,39.9-20c14.8,0,26.8,5.2,35.9,15.5c9.1,10.4,13.6,24.1,13.6,41.1v12.6c0,2.4-1.6,3.6-4.7,3.6H234v12.3
			c0,13.4,1.6,23.8,4.9,30.9c3.2,7.2,8.9,10.8,17,10.8c9.5,0,16-7.3,19.7-21.8L295.5,458.8z M261,407v-20.6
			c0-14.3-4.6-21.5-13.8-21.5c-8.8,0-13.2,9.2-13.2,27.5V407H261z"/>
		<path d="M527.5,455.8c-2.9,26.4-17.8,39.6-44.7,39.6c-17.8,0-32-6-42.4-18.1c-10.5-12-15.7-30.1-15.7-54.1c0-23.3,5-41.6,14.9-55
			c9.9-13.3,23.2-20,39.9-20c14.8,0,26.8,5.2,35.9,15.5c9.1,10.4,13.6,24.1,13.6,41.1v12.6c0,2.4-1.6,3.6-4.7,3.6H466v12.3
			c0,13.4,1.6,23.8,4.9,30.9c3.2,7.2,8.9,10.8,17,10.8c9.5,0,16-7.3,19.7-21.8L527.5,455.8z M493,405v-20.6
			c0-14.3-4.6-21.5-13.8-21.5c-8.8,0-13.2,9.2-13.2,27.5V405H493z"/>
		<path d="M408.9,377.8L371.7,493c-0.6,2-2,3-4.1,3h-8.8c-2.2,0-3.7-1-4.3-3l-35.5-115.2c-1.8-6-4.7-9.8-8.9-11.5
			c-2.1-0.9-3.2-2.3-3.2-4.3v-4.8c0-2.1,1.3-3.1,4-3.1h46.8c2.8,0,4.3,1,4.3,3v5.7c0,1.9-1.4,3.4-4.1,4.6c-3.9,1.9-5.9,4.1-5.9,6.6
			c0,1.3,0.2,2.6,0.6,3.9l18.8,62.2l17.9-59.6c0.4-1.3,0.6-2.6,0.6-3.9c0-4.4-3-7.8-9.1-10.3c-2.5-1-3.7-1.8-3.7-2.5v-6.7
			c0-1.9,1.3-2.8,3.9-2.8h38.5c2.4,0,3.6,0.9,3.6,2.8v6.7c0,1.5-1.3,2.6-3.8,3.4C414.1,368.6,410.6,372.2,408.9,377.8z"/>
		<path d="M547.9,266.7L547.9,266.7c0-2.3,2.4-3.1,5.1-3.1l45-1.5L597.5,471c0-0.9-0.3,16.8,5.1,19l0,0l0,0l0,0l0,0c0,0,4.6,0,0,0
			l0,0l0,0c0,0-27.3-6.8-41-25.1 M561,465l-1.2-177.6c0-5.4,1.2-16-3.3-20.5s-11.4,2.3-9.1,0"/>
	</g>
</g>
<g id="Layer_2">
	<g>
		<g>
			<path class="st2" d="M551.6,272.3c0-0.1,0-0.1,0-0.2c0-0.8-0.7-1.5-1.5-1.5c-0.8,0-1.5,0.7-1.5,1.5c0,0.1,0,0.1,0,0.2
				c0,0.8,0.7,1.5,1.5,1.5C551,273.8,551.6,273.2,551.6,272.3L551.6,272.3z"/>
		</g>
	</g>
	<g>
		<g>
			<path class="st2" d="M547.5,266.5c0.8-0.1,1.6,0,2.4,0.1c0.5,0.1,0.7-0.6,0.2-0.7c-1.3-0.3-2.1,0.7-3.2,1
				c-0.5,0.1-0.3,0.9,0.2,0.7c0.9-0.3,1.8-1.2,2.8-1c0.1-0.2,0.1-0.5,0.2-0.7c-0.9-0.1-1.7-0.2-2.6-0.1
				C547,265.8,547,266.5,547.5,266.5L547.5,266.5z"/>
		</g>
	</g>
	<g>
		<g>
			<path class="st2" d="M547.7,265.8c1.2,0.1,2.3-0.1,3.5,0.1c1.2,0.3,2.3,0.5,3.5,0.8c0.5,0.1,0.7-0.6,0.2-0.7
				c-1.3-0.3-2.6-0.6-3.9-0.9c-1.1-0.2-2.1,0.1-3.2-0.1C547.2,265,547.2,265.7,547.7,265.8L547.7,265.8z"/>
		</g>
	</g>
	<g>
		<g>
			<path class="st2" d="M548.5,265.4c3-0.6,6,0.1,7.8,2.7c0.3,0.4,0.9,0,0.6-0.4c-2-2.9-5.3-3.7-8.7-3
				C547.8,264.8,548,265.5,548.5,265.4L548.5,265.4z"/>
		</g>
	</g>
</g>
</svg>
