<?xml version="1.0" encoding="utf-8"?>
<!-- Generator: Adobe Illustrator 15.0.2, SVG Export Plug-In . SVG Version: 6.00 Build 0)  -->
<!DOCTYPE svg PUBLIC "-//W3C//DTD SVG 1.1//EN" "http://www.w3.org/Graphics/SVG/1.1/DTD/svg11.dtd">
<svg version="1.1" id="Logo_CxX" xmlns="http://www.w3.org/2000/svg" xmlns:xlink="http://www.w3.org/1999/xlink" x="0px" y="0px"
	 width="841.89px" height="319.499px" viewBox="0 0 841.89 319.499" enable-background="new 0 0 841.89 319.499"
	 xml:space="preserve">
<g>
	<path fill="#C4014B" d="M600.802,209.752h42.373l1.619,6.256h-42.738L600.802,209.752z M549.995,209.752h47.085l-7.893,6.256
		h-46.914L549.995,209.752z"/>
	<path opacity="0.7" fill="#C4014B" d="M603.127,221.33h43.05l1.625,6.25h-43.421L603.127,221.33z M535.708,221.33h46.768
		l-7.897,6.25h-46.592L535.708,221.33z"/>
	<path opacity="0.4" fill="#C4014B" d="M605.449,232.896h43.727l1.628,6.256h-44.097L605.449,232.896z M521.424,232.896h46.447
		l-7.9,6.256h-46.267L521.424,232.896z"/>
	<path opacity="0.1" fill="#C4014B" d="M607.777,244.472h44.402l1.622,6.25h-44.77L607.777,244.472z M507.133,244.472h46.124
		l-7.901,6.25h-45.942L507.133,244.472z"/>
	<polygon opacity="0.1" fill="#C4014B" points="723.595,47.74 767.778,47.74 761.316,53.99 717.458,53.99 	"/>
	<polygon opacity="0.3" fill="#C4014B" points="712.233,59.309 755.819,59.309 749.357,65.563 706.102,65.563 	"/>
	<polygon opacity="0.4" fill="#C4014B" points="700.881,70.889 743.86,70.889 737.396,77.139 694.742,77.139 	"/>
	<polygon opacity="0.5" fill="#C4014B" points="689.524,82.458 731.901,82.458 725.439,88.71 683.39,88.71 	"/>
	<polygon opacity="0.6" fill="#C4014B" points="678.172,94.029 719.949,94.029 713.487,100.281 672.033,100.281 	"/>
	<path opacity="0.7" fill="#C4014B" d="M666.818,105.604h41.168l-6.458,6.254h-40.853L666.818,105.604z M572.568,105.604h45.914
		l1.095,6.254h-45.413L572.568,105.604z"/>
	<path opacity="0.7" fill="#C4014B" d="M655.458,117.178h40.569l-6.458,6.252h-40.246L655.458,117.178z M575.515,117.178h44.998
		l1.093,6.252h-44.499L575.515,117.178z"/>
	<path opacity="0.8" fill="#C4014B" d="M644.105,128.749h39.969l-6.468,6.254h-39.636L644.105,128.749z M578.461,128.749h44.075
		l1.095,6.254h-43.578L578.461,128.749z"/>
	<path fill="#C4014B" d="M632.754,140.321h39.359l-6.459,6.251h-39.036L632.754,140.321z M581.401,140.321h43.163l1.095,6.251
		h-42.668L581.401,140.321z"/>
	<polygon fill="#C4014B" points="584.348,151.894 660.159,151.894 653.699,158.144 585.934,158.144 	"/>
	<polygon fill="#C4014B" points="587.294,163.466 648.204,163.466 641.744,169.717 588.88,169.717 	"/>
	<polygon fill="#C4014B" points="590.236,175.042 636.245,175.042 634.588,176.648 635.791,181.293 585.142,181.293 
		590.684,176.802 	"/>
	<polygon fill="#C4014B" points="578.572,186.613 637.171,186.613 638.794,192.864 570.853,192.864 	"/>
	<polygon fill="#C4014B" points="564.283,198.187 640.178,198.187 641.794,204.44 556.564,204.44 	"/>
</g>
<g>
	<g>
		<path fill="#C4014B" d="M129.596,194.613c-14.833,0-16.746-9.776-14.243-22.623c3.061-15.781,14.968-38.543,34.881-38.543
			c2.997,0,24.805-0.041,27.046,0.149l9.122-21.557c-3.803-0.045-27.261,0.039-31.593,0.039c-34.174,0-59.3,26.813-65.543,58.931
			c-7.191,37.01,16.547,44.97,32.506,44.97c0.516,0,22.367-0.013,22.872-0.019l9.115-21.533
			C152.83,194.535,130.546,194.613,129.596,194.613z"/>
		<polygon fill="#C4014B" points="184.382,140.384 152.382,215.979 172.959,215.979 205.64,140.291 		"/>
		<path fill="#C4014B" d="M590.352,140.31H566.84l-21.28,21.923l-3.839-21.923h-23.866l9.46,37.197l-35.521,28.769l3.021-65.966
			h-20.949l-53.761,65.173l18.23-65.173h-19.319l-39.844,47.474l-3.353-47.474h-18.419l-27.516,59.994
			c-1.223,0.078-31.293,0.132-31.978,0.132c-10.061,0-11.946-6.191-10.679-14.608c12.25,0,33.07,0.005,33.07,0.005l6.581-15.434
			c-1.917-0.023-21.577,0-34.335,0.019c4.349-7.81,11.185-14.486,20.38-14.486c2.178,0,28.542-0.027,30.169,0.11l7.439-15.683
			c-2.77-0.03-31.128,0.027-34.28,0.027c-14.39,0-26.553,6.559-35.146,16.594l7.102-16.656l-19.395-0.139l-20.031,46.75h-0.136
			l-16.295-46.75l-19.484,0.038l-32.762,75.595h19.492l20.25-46.56l0.136,0.415l16.793,46.242l19.215-0.032l11.852-27.79
			c-2.356,22.801,13.491,27.886,24.376,27.886c0.369,0,30.71-0.009,31.083-0.013l0.021-0.056h18.874l18.855-41.942h0.688
			l3.162,41.938h10.58l35.705-42.074l0.412,0.324l-13.542,41.75h13.454h5.682h15.426l11.509-13.104l27.004-0.018h0.017
			l-0.898,13.122h9.657h11.446h12.422l28.532-22.601l4.545,22.601h23.258l-9.987-38.482L590.352,140.31z M472.373,188.441h-16.847
			l18.783-24.174L472.373,188.441z"/>
	</g>
	<g>
		<path fill="#C4014B" d="M129.596,194.613c-14.833,0-16.746-9.776-14.243-22.623c3.061-15.781,14.968-38.543,34.881-38.543
			c2.997,0,24.805-0.041,27.046,0.149l9.122-21.557c-3.803-0.045-27.261,0.039-31.593,0.039c-34.174,0-59.3,26.813-65.543,58.931
			c-7.191,37.01,16.547,44.97,32.506,44.97c0.516,0,22.367-0.013,22.872-0.019l9.115-21.533
			C152.83,194.535,130.546,194.613,129.596,194.613z"/>
		<polygon fill="#C4014B" points="184.382,140.384 152.382,215.979 172.959,215.979 205.64,140.291 		"/>
		<path fill="#C4014B" d="M590.352,140.31H566.84l-21.28,21.923l-3.839-21.923h-23.866l9.46,37.197l-35.521,28.769l3.021-65.966
			h-20.949l-53.761,65.173l18.23-65.173h-19.319l-39.844,47.474l-3.353-47.474h-18.419l-27.516,59.994
			c-1.223,0.078-31.293,0.132-31.978,0.132c-10.061,0-11.946-6.191-10.679-14.608c12.25,0,33.07,0.005,33.07,0.005l6.581-15.434
			c-1.917-0.023-21.577,0-34.335,0.019c4.349-7.81,11.185-14.486,20.38-14.486c2.178,0,28.542-0.027,30.169,0.11l7.439-15.683
			c-2.77-0.03-31.128,0.027-34.28,0.027c-14.39,0-26.553,6.559-35.146,16.594l7.102-16.656l-19.395-0.139l-20.031,46.75h-0.136
			l-16.295-46.75l-19.484,0.038l-32.762,75.595h19.492l20.25-46.56l0.136,0.415l16.793,46.242l19.215-0.032l11.852-27.79
			c-2.356,22.801,13.491,27.886,24.376,27.886c0.369,0,30.71-0.009,31.083-0.013l0.021-0.056h18.874l18.855-41.942h0.688
			l3.162,41.938h10.58l35.705-42.074l0.412,0.324l-13.542,41.75h13.454h5.682h15.426l11.509-13.104l27.004-0.018h0.017
			l-0.898,13.122h9.657h11.446h12.422l28.532-22.601l4.545,22.601h23.258l-9.987-38.482L590.352,140.31z M472.373,188.441h-16.847
			l18.783-24.174L472.373,188.441z"/>
	</g>
</g>
<defs>
	<filter id="Adobe_OpacityMaskFilter" filterUnits="userSpaceOnUse" x="87.944" y="112.026" width="502.408" height="103.953">
		<feColorMatrix  type="matrix" values="1 0 0 0 0  0 1 0 0 0  0 0 1 0 0  0 0 0 1 0"/>
	</filter>
</defs>
<mask maskUnits="userSpaceOnUse" x="87.944" y="112.026" width="502.408" height="103.953" id="SVGID_1_">
	<g filter="url(#Adobe_OpacityMaskFilter)">
		
			<radialGradient id="SVGID_2_" cx="805.4902" cy="-31.9297" r="385.4309" gradientTransform="matrix(-0.1996 -0.7039 2.4471 -0.6938 416.1999 570.8847)" gradientUnits="userSpaceOnUse">
			<stop  offset="0.0798" style="stop-color:#FFFFFF"/>
			<stop  offset="0.3804" style="stop-color:#FFFFFF"/>
			<stop  offset="0.4139" style="stop-color:#E9E7E7"/>
			<stop  offset="0.4789" style="stop-color:#B4AEAD"/>
			<stop  offset="0.569" style="stop-color:#6B6260"/>
			<stop  offset="0.6796" style="stop-color:#1F1916"/>
			<stop  offset="0.7301" style="stop-color:#000000"/>
		</radialGradient>
		<polygon fill="url(#SVGID_2_)" points="315.817,-420.658 529.654,333.6 38.758,472.765 -175.062,-281.5 		"/>
	</g>
</mask>
<g opacity="0.3" mask="url(#SVGID_1_)">
	<g>
		<path fill="#C4014B" d="M129.596,194.613c-14.833,0-16.746-9.776-14.243-22.623c3.061-15.781,14.968-38.543,34.881-38.543
			c2.997,0,24.805-0.041,27.046,0.149l9.122-21.557c-3.803-0.045-27.261,0.039-31.593,0.039c-34.174,0-59.3,26.813-65.543,58.931
			c-7.191,37.01,16.547,44.97,32.506,44.97c0.516,0,22.367-0.013,22.872-0.019l9.115-21.533
			C152.83,194.535,130.546,194.613,129.596,194.613z"/>
		<polygon fill="#C4014B" points="184.382,140.384 152.382,215.979 172.959,215.979 205.64,140.291 		"/>
		<path fill="#C4014B" d="M590.352,140.31H566.84l-21.28,21.923l-3.839-21.923h-23.866l9.46,37.197l-35.521,28.769l3.021-65.966
			h-20.949l-53.761,65.173l18.23-65.173h-19.319l-39.844,47.474l-3.353-47.474h-18.419l-27.516,59.994
			c-1.223,0.078-31.293,0.132-31.978,0.132c-10.061,0-11.946-6.191-10.679-14.608c12.25,0,33.07,0.005,33.07,0.005l6.581-15.434
			c-1.917-0.023-21.577,0-34.335,0.019c4.349-7.81,11.185-14.486,20.38-14.486c2.178,0,28.542-0.027,30.169,0.11l7.439-15.683
			c-2.77-0.03-31.128,0.027-34.28,0.027c-14.39,0-26.553,6.559-35.146,16.594l7.102-16.656l-19.395-0.139l-20.031,46.75h-0.136
			l-16.295-46.75l-19.484,0.038l-32.762,75.595h19.492l20.25-46.56l0.136,0.415l16.793,46.242l19.215-0.032l11.852-27.79
			c-2.356,22.801,13.491,27.886,24.376,27.886c0.369,0,30.71-0.009,31.083-0.013l0.021-0.056h18.874l18.855-41.942h0.688
			l3.162,41.938h10.58l35.705-42.074l0.412,0.324l-13.542,41.75h13.454h5.682h15.426l11.509-13.104l27.004-0.018h0.017
			l-0.898,13.122h9.657h11.446h12.422l28.532-22.601l4.545,22.601h23.258l-9.987-38.482L590.352,140.31z M472.373,188.441h-16.847
			l18.783-24.174L472.373,188.441z"/>
	</g>
	<g>
		<path fill="#C4014B" d="M129.596,194.613c-14.833,0-16.746-9.776-14.243-22.623c3.061-15.781,14.968-38.543,34.881-38.543
			c2.997,0,24.805-0.041,27.046,0.149l9.122-21.557c-3.803-0.045-27.261,0.039-31.593,0.039c-34.174,0-59.3,26.813-65.543,58.931
			c-7.191,37.01,16.547,44.97,32.506,44.97c0.516,0,22.367-0.013,22.872-0.019l9.115-21.533
			C152.83,194.535,130.546,194.613,129.596,194.613z"/>
		<polygon fill="#C4014B" points="184.382,140.384 152.382,215.979 172.959,215.979 205.64,140.291 		"/>
		<path fill="#C4014B" d="M590.352,140.31H566.84l-21.28,21.923l-3.839-21.923h-23.866l9.46,37.197l-35.521,28.769l3.021-65.966
			h-20.949l-53.761,65.173l18.23-65.173h-19.319l-39.844,47.474l-3.353-47.474h-18.419l-27.516,59.994
			c-1.223,0.078-31.293,0.132-31.978,0.132c-10.061,0-11.946-6.191-10.679-14.608c12.25,0,33.07,0.005,33.07,0.005l6.581-15.434
			c-1.917-0.023-21.577,0-34.335,0.019c4.349-7.81,11.185-14.486,20.38-14.486c2.178,0,28.542-0.027,30.169,0.11l7.439-15.683
			c-2.77-0.03-31.128,0.027-34.28,0.027c-14.39,0-26.553,6.559-35.146,16.594l7.102-16.656l-19.395-0.139l-20.031,46.75h-0.136
			l-16.295-46.75l-19.484,0.038l-32.762,75.595h19.492l20.25-46.56l0.136,0.415l16.793,46.242l19.215-0.032l11.852-27.79
			c-2.356,22.801,13.491,27.886,24.376,27.886c0.369,0,30.71-0.009,31.083-0.013l0.021-0.056h18.874l18.855-41.942h0.688
			l3.162,41.938h10.58l35.705-42.074l0.412,0.324l-13.542,41.75h13.454h5.682h15.426l11.509-13.104l27.004-0.018h0.017
			l-0.898,13.122h9.657h11.446h12.422l28.532-22.601l4.545,22.601h23.258l-9.987-38.482L590.352,140.31z M472.373,188.441h-16.847
			l18.783-24.174L472.373,188.441z"/>
	</g>
</g>
<defs>
	<filter id="Adobe_OpacityMaskFilter_1_" filterUnits="userSpaceOnUse" x="87.944" y="112.026" width="584.169" height="103.982">
		<feColorMatrix  type="matrix" values="1 0 0 0 0  0 1 0 0 0  0 0 1 0 0  0 0 0 1 0"/>
	</filter>
</defs>
<mask maskUnits="userSpaceOnUse" x="87.944" y="112.026" width="584.169" height="103.982" id="SVGID_3_">
	<g filter="url(#Adobe_OpacityMaskFilter_1_)">
		
			<radialGradient id="SVGID_4_" cx="508.3945" cy="-17.8154" r="368.2646" gradientTransform="matrix(1.8846 -0.5425 0.248 0.8613 -571.0342 363.7394)" gradientUnits="userSpaceOnUse">
			<stop  offset="0.2699" style="stop-color:#000000"/>
			<stop  offset="0.3204" style="stop-color:#1F1916"/>
			<stop  offset="0.431" style="stop-color:#6B6260"/>
			<stop  offset="0.5211" style="stop-color:#B4AEAD"/>
			<stop  offset="0.5861" style="stop-color:#E9E7E7"/>
			<stop  offset="0.6196" style="stop-color:#FFFFFF"/>
			<stop  offset="0.9202" style="stop-color:#FFFFFF"/>
		</radialGradient>
		<polygon fill="url(#SVGID_4_)" points="1167.981,190.001 -220.029,589.562 -402.645,-44.818 985.365,-444.379 		"/>
	</g>
</mask>
<g mask="url(#SVGID_3_)">
	<polygon fill="#C4014B" points="600.802,209.752 602.056,216.008 644.794,216.008 643.175,209.752 	"/>
	<polygon fill="#C4014B" points="632.754,140.321 626.618,146.572 665.654,146.572 672.113,140.321 	"/>
	<polygon fill="#C4014B" points="585.934,158.144 653.699,158.144 660.159,151.894 584.348,151.894 	"/>
	<polygon fill="#C4014B" points="588.88,169.717 641.744,169.717 648.204,163.466 587.294,163.466 	"/>
	<polygon fill="#C4014B" points="635.791,181.293 634.588,176.648 636.245,175.042 590.236,175.042 590.684,176.802 
		585.142,181.293 	"/>
	<polygon fill="#C4014B" points="570.853,192.864 638.794,192.864 637.171,186.613 578.572,186.613 	"/>
	<path fill="#C4014B" d="M129.596,194.613c-14.833,0-16.746-9.776-14.243-22.623c3.061-15.781,14.968-38.543,34.881-38.543
		c2.997,0,24.805-0.041,27.046,0.149l9.122-21.557c-3.803-0.045-27.261,0.039-31.593,0.039c-34.174,0-59.3,26.813-65.543,58.931
		c-7.191,37.01,16.547,44.97,32.506,44.97c0.516,0,22.367-0.013,22.872-0.019l9.115-21.533
		C152.83,194.535,130.546,194.613,129.596,194.613z"/>
	<polygon fill="#C4014B" points="184.382,140.384 152.382,215.979 172.959,215.979 205.64,140.291 	"/>
	<path fill="#C4014B" d="M557.135,204.44h84.659l-1.616-6.254h-75.895l-7.247,5.874l-6.915-26.636l33.439-30.853h42.099
		l-1.095-6.251H590.34l0.012-0.011H566.84l-21.28,21.923l-3.839-21.923h-23.866l9.46,37.197l-35.521,28.769l3.021-65.966h-20.949
		l-53.761,65.173l18.23-65.173h-19.319l-39.844,47.474l-3.353-47.474h-18.419l-27.516,59.994
		c-1.223,0.078-31.293,0.132-31.978,0.132c-10.061,0-11.946-6.191-10.679-14.608c12.25,0,33.07,0.005,33.07,0.005l6.581-15.434
		c-1.917-0.023-21.577,0-34.335,0.019c4.349-7.81,11.185-14.486,20.38-14.486c2.178,0,28.542-0.027,30.169,0.11l7.439-15.683
		c-2.77-0.03-31.128,0.027-34.28,0.027c-14.39,0-26.553,6.559-35.146,16.594l7.102-16.656l-19.395-0.139l-20.031,46.75h-0.136
		l-16.295-46.75l-19.484,0.038l-32.762,75.595h19.492l20.25-46.56l0.136,0.415l16.793,46.242l19.215-0.032l11.852-27.79
		c-2.356,22.801,13.491,27.886,24.376,27.886c0.369,0,30.71-0.009,31.083-0.013l0.021-0.056h18.874l18.855-41.942h0.688
		l3.162,41.938h10.58l35.705-42.074l0.412,0.324l-13.542,41.75h34.562l11.509-13.104l27.004-0.018h0.017l-0.898,13.122h33.525
		l28.532-22.601l4.545,22.703h52.337l7.893-6.256h-38.565L557.135,204.44z M472.373,188.441h-16.847l18.783-24.174L472.373,188.441z
		"/>
</g>
</svg>
