<svg id="Lag_1" data-name="Lag 1" xmlns="http://www.w3.org/2000/svg" viewBox="0 0 1607 245"><defs><style>.cls-1{fill:#32b6cc;stroke:#32b6cc;}.cls-1,.cls-2,.cls-3,.cls-4,.cls-5{stroke-miterlimit:10;}.cls-1,.cls-2{stroke-width:3px;}.cls-2,.cls-5{stroke:#000;}.cls-3{fill:#fff;}.cls-3,.cls-4{stroke:#fff;}.cls-4{fill:none;}.cls-6{fill:#ff0;}</style></defs><title>footer</title><path d="M633.93,227.24c-.77-3.89-.73-7.08.09-7.08h1.07c.82,0,2,1.92,2.61,4.27l1.48,1.41a7.88,7.88,0,0,0,5.65,2.11,7.12,7.12,0,0,0,5.37-2.22,7.78,7.78,0,0,0,2.13-5.6,7.42,7.42,0,0,0-1.56-4.83l-1-1.28c-2.11-1-4.76-2.15-5.89-2.57s-4.32-1.9-7.08-3.31l-1.32-1.95A15.91,15.91,0,0,1,636.6,189a10.39,10.39,0,0,1,8.22-3.58,10,10,0,0,1,7.79,3.53l2.09,2.35c.71,3.68.38,6.7-.72,6.7s-2.49-1.87-3.08-4.16l-1.28-1.31a6.59,6.59,0,0,0-4.93-2,6.72,6.72,0,0,0-5.15,2.08,7.8,7.8,0,0,0-1.95,5.55,6.45,6.45,0,0,0,1.44,4.35l1,1.11c2.09,1,4.55,2,5.47,2.39s4.25,1.87,7.39,3.39l1.45,2a13.23,13.23,0,0,1,2.17,8q0,6.28-3.24,10a11,11,0,0,1-8.76,3.71,10.86,10.86,0,0,1-8.36-3.53Z" transform="translate(-10.5 -6)"/><path d="M675.46,222.05c0,5.5-.66,10-1.47,10h-1.07c-.81,0-1.47-4.5-1.47-10v-20.4c0-5.5-2.33-10-5.17-10s-5.17-1.15-5.17-2.55,4.5-2.55,10-2.55h4.7c5.5,0,10,1.15,10,2.55s-2.33,2.55-5.17,2.55-5.17,4.5-5.17,10Z" transform="translate(-10.5 -6)"/><path d="M694.11,186.54c1.1,0,2,3.34,2,7.42V216a14.75,14.75,0,0,0,2.29,8.5,7.89,7.89,0,0,0,12.92,0l1.52-2.24c.42-3.44.76-10.76.76-16.26v-9.49c0-5.5.9-10,2-10s2,4.5,2,10v9.87a181.24,181.24,0,0,1-1.13,18.86l-2.25,3.14a11.65,11.65,0,0,1-18.72,0l-2.26-3.14a180.62,180.62,0,0,1-1.13-18.86v-9.87C692.1,191,693,186.54,694.11,186.54Z" transform="translate(-10.5 -6)"/><path d="M725.9,196.54c0-5.5,1.83-10,4.06-10h7a12.69,12.69,0,0,1,11.15,6q4,6,4,16.75t-4,16.76l-2.66,4a77.24,77.24,0,0,1-14,2c-3,0-5.51-4.5-5.51-10Zm7.38-4.89c-1.85,0-3.37,2.9-3.37,6.45v22.39c0,3.55,1.52,6.45,3.37,6.45A55,55,0,0,0,743,225.4l2-3.09q3-4.64,3-13t-3-13l-2-3.11A54.06,54.06,0,0,0,733.28,191.65Z" transform="translate(-10.5 -6)"/><path d="M770.94,226.94c4.37,0,7.94.85,7.94,1.88v1.35c0,1-4.48,1.88-9.95,1.88a10,10,0,0,1-9.95-10V196.54a10,10,0,0,1,9.95-10c5.47,0,9.95,1.15,9.95,2.55s-3.57,2.55-7.94,2.55S763,194.94,763,199a7.44,7.44,0,0,0,7.53,7.3c4.14,0,7.53,1.14,7.53,2.52s-3.39,2.52-7.53,2.52a7.7,7.7,0,0,0-7.53,7.82A7.91,7.91,0,0,0,770.94,226.94Z" transform="translate(-10.5 -6)"/><path d="M790.1,222.05c0,5.5-.66,10-1.46,10h-1c-.8,0-1.46-4.5-1.46-10V196.54c0-5.5.88-10,1.95-10s3.93,4,6.36,9L803,213c2.43,4.94,4.49,9,4.59,9s.18-4.5.18-10V196.54c0-5.5.89-10,2-10s2,4.5,2,10v25.51c0,5.5-.88,10-1.95,10s-3.94-4-6.37-9l-8.57-17.36c-2.43-4.93-4.51-9-4.6-9s-.18,4.5-.18,10Z" transform="translate(-10.5 -6)"/><path d="M832.31,222.05c0,5.5-.66,10-1.47,10h-1.07c-.81,0-1.47-4.5-1.47-10v-20.4c0-5.5-2.33-10-5.17-10S818,190.5,818,189.1s4.5-2.55,10-2.55h4.7c5.5,0,10,1.15,10,2.55s-2.33,2.55-5.17,2.55-5.17,4.5-5.17,10Z" transform="translate(-10.5 -6)"/><path d="M884.92,228a11.68,11.68,0,0,1-9.9,5.13q-6.65,0-10.6-6.47t-3.95-17.38q0-10.79,4-17.3T875,185.47a11.69,11.69,0,0,1,9,3.93l2.41,2.62c1.14,4.45,1.16,8.09,0,8.09s-2.85-2.43-3.85-5.4L881,193.1a8.06,8.06,0,0,0-6-2.4q-4.76,0-7.6,5t-2.84,13.53q0,8.61,2.81,13.61t7.64,5a8.3,8.3,0,0,0,7-3.56l1.77-2.38c.49-3.83.89-7.21.89-7.51s-2-.55-4.52-.55-4.52-1.12-4.52-2.49,2.93-2.49,6.51-2.49,6.51,1.25,6.51,2.78-.55,7.24-1.22,12.7A32.69,32.69,0,0,1,884.92,228Z" transform="translate(-10.5 -6)"/><path d="M897.84,186.54c1.1,0,2,3.34,2,7.42V216a14.75,14.75,0,0,0,2.29,8.5,7.89,7.89,0,0,0,12.92,0l1.52-2.24c.42-3.44.76-10.76.76-16.26v-9.49c0-5.5.9-10,2-10s2,4.5,2,10v9.87a181.24,181.24,0,0,1-1.13,18.86L918,228.41a11.65,11.65,0,0,1-18.72,0L897,225.27a180.62,180.62,0,0,1-1.13-18.86v-9.87C895.84,191,896.74,186.54,897.84,186.54Z" transform="translate(-10.5 -6)"/><path d="M933.65,222.05c0,5.5-.66,10-1.47,10h-1.07c-.81,0-1.47-4.5-1.47-10V196.54c0-5.5.9-10,2-10s2,4.5,2,10Z" transform="translate(-10.5 -6)"/><path d="M941.83,196.54c0-5.5,1.83-10,4.06-10h7a12.69,12.69,0,0,1,11.15,6q4,6,4,16.75T964,226l-2.66,4a77.23,77.23,0,0,1-14,2c-3,0-5.51-4.5-5.51-10Zm7.38-4.89c-1.85,0-3.37,2.9-3.37,6.45v22.39c0,3.55,1.52,6.45,3.37,6.45A55,55,0,0,0,959,225.4l2-3.09q3-4.64,3-13t-3-13l-2-3.11A54.06,54.06,0,0,0,949.21,191.65Z" transform="translate(-10.5 -6)"/><path d="M986.87,226.94c4.37,0,7.94.85,7.94,1.88v1.35c0,1-4.48,1.88-9.95,1.88a10,10,0,0,1-9.95-10V196.54a10,10,0,0,1,9.95-10c5.47,0,9.95,1.15,9.95,2.55s-3.57,2.55-7.94,2.55-7.94,3.29-7.94,7.3a7.44,7.44,0,0,0,7.53,7.3c4.14,0,7.53,1.14,7.53,2.52s-3.39,2.52-7.53,2.52a7.7,7.7,0,0,0-7.53,7.82A7.91,7.91,0,0,0,986.87,226.94Z" transform="translate(-10.5 -6)"/><path d="M683.39,171.82c-2.28,0-5.21-2.41-6.5-5.36l-.83-1.91-.83-1.91c-1.29-2.95-6.85-5.36-12.35-5.36h-5.21c-5.5,0-11.43,3.27-13.18,7.27s-5.05,7.27-7.33,7.27-2.27-4.09,0-9.09l15-32.65c2.3-5,5.94-9.09,8.09-9.09s5.79,4.09,8.09,9.09l15,32.65C685.66,167.73,685.67,171.82,683.39,171.82Zm-23.12-42.61a33.36,33.36,0,0,0-2.86,5.71l-1,2.25-2.94,6.76-1,2.25c-1.38,3.14,2,5.71,7.49,5.71h.56c5.5,0,8.2-4.12,6-9.16l-1.91-4.36C662.42,133.33,660.46,129.21,660.26,129.21Z" transform="translate(-10.5 -6)"/><path d="M744,171.82c-2.28,0-5.21-2.41-6.5-5.36l-.83-1.91-.83-1.91c-1.29-2.95-6.85-5.36-12.35-5.36h-5.21c-5.5,0-11.43,3.27-13.18,7.27s-5.05,7.27-7.33,7.27-2.27-4.09,0-9.09l15-32.65c2.3-5,5.94-9.09,8.09-9.09s5.79,4.09,8.09,9.09l15,32.65C746.27,167.73,746.28,171.82,744,171.82Zm-23.12-42.61a33.36,33.36,0,0,0-2.86,5.71l-1,2.25-2.94,6.76-1,2.25c-1.38,3.14,2,5.71,7.49,5.71h.56c5.5,0,8.2-4.12,6-9.16l-1.91-4.36C723,133.33,721.07,129.21,720.87,129.21Z" transform="translate(-10.5 -6)"/><path d="M775,151.71a7.62,7.62,0,0,0-7.8,7.39v5.33c0,4.06-1.78,7.39-4,7.39s-4-4.5-4-10V131a10,10,0,0,1,10-10h4.2a194.12,194.12,0,0,1,19.92,1.24s1.09.14,4.77,2.9a13.09,13.09,0,0,1,5.51,11,13.52,13.52,0,0,1-3.38,9.19L798,147.92c-3.91,1.54-4.53,6.5-1.39,11l3.25,4.68c3.14,4.52,3.62,8.21,1.08,8.21s-7.15-3.73-10.23-8.29L788.35,160C785.27,155.44,779.25,151.71,775,151.71Zm-.18-25.07c-4.19,0-7.62,2.21-7.62,4.91v9.63c0,2.7,3.51,4.91,7.8,4.91s11-.38,15-.84l2.21-1.68a8.5,8.5,0,0,0,3.32-7.2,8.4,8.4,0,0,0-3.47-7.15l-2.31-1.71C785.69,127,779,126.64,774.79,126.64Z" transform="translate(-10.5 -6)"/><path d="M868.62,161.82c0,5.5-1.3,10-2.9,10h-2.11c-1.59,0-2.9-4.5-2.9-10v-3.14a10,10,0,0,0-10-10H835.93a10,10,0,0,0-10,10v3.14c0,5.5-1.78,10-4,10s-4-4.5-4-10V131c0-5.5,1.78-10,4-10s4,4.5,4,10v2a10,10,0,0,0,10,10h14.79a10,10,0,0,0,10-10v-2c0-5.5,1.78-10,4-10s4,4.5,4,10Z" transform="translate(-10.5 -6)"/><path d="M889,121c2.17,0,4,3.73,4,8.29v24.64a11.81,11.81,0,0,0,4.52,9.49q4.52,3.75,12.74,3.75t12.76-3.75l3-2.5a99.89,99.89,0,0,0,1.5-17V131c0-5.5,1.78-10,4-10s4,4.5,4,10v13.35a108.64,108.64,0,0,1-2.2,19.76s0,.13-4.48,3.64S918,173,910.17,173s-14-1.75-18.47-5.26-4.5-3.65-4.5-3.65a108.31,108.31,0,0,1-2.2-19.75V131C885,125.5,886.78,121,889,121Z" transform="translate(-10.5 -6)"/><path d="M951.45,166.44c-1.52-4.35-1.44-7.9.18-7.9h2.11c1.62,0,3.94,2.14,5.15,4.77l2.93,1.57A23.42,23.42,0,0,0,973,167.24a20.56,20.56,0,0,0,10.61-2.48q4.19-2.48,4.19-6.25a6.38,6.38,0,0,0-3.08-5.39l-2-1.43c-4.16-1.11-9.4-2.4-11.63-2.86s-8.39-2.09-13.67-3.61a20.36,20.36,0,0,1-2.91-2.26,10.73,10.73,0,0,1-3.91-8.68q0-6.48,6.17-10.48t16.23-4q9.18,0,15.37,3.94l4.13,2.63c1.4,4.11.76,7.48-1.43,7.48s-4.92-2.09-6.08-4.64l-2.53-1.47a19.22,19.22,0,0,0-9.73-2.2q-6.32,0-10.17,2.32t-3.84,6.2a5.62,5.62,0,0,0,2.83,4.86l1.89,1.24c4.12,1.08,9,2.28,10.8,2.66s7.66,1.89,13,3.34a15,15,0,0,1,4.47,2.65,10.68,10.68,0,0,1,4.28,8.91q0,7-6.39,11.15T972.23,173q-10.06,0-16.49-3.94Z" transform="translate(-10.5 -6)"/><path class="cls-1" d="M537.5-27.5" transform="translate(-10.5 -6)"/><polyline class="cls-2" points="598.06 98.3 630 98.5 630 56.75 652 77.5 668 56.5 681 77.5 686 63.5 686 98.5 702 98.5 702 47.5 716 42.5 731 47.5 731 98.5 757 98.5 757 37.5 785 46.5 785 98.5 797 98.5 797 1.5 825 1.5 825 98.5 842 98.5 842 72.5 849 62.5 856 72.5 856 98.5 864 98.5 864 82.5 870 73.5 876 81.5 876 98.5 888 98.5 888 70.5 942 59.5 963 72.5 963 98.5 979 98.5 979 83.5 985 72.5 992 83.5 992 98.5 1010.11 98.5"/><line class="cls-3" x1="798.5" y1="78.5" x2="823.5" y2="78.5"/><line class="cls-3" x1="798.5" y1="39.5" x2="823.5" y2="39.5"/><line class="cls-3" x1="798.5" y1="13.5" x2="823.5" y2="13.5"/><line class="cls-4" x1="806" y1="99" x2="805" y2="2"/><line class="cls-4" x1="817" y1="100" x2="816" y2="3"/><line class="cls-5" x1="796" y1="2" x2="796" y2="100"/><line class="cls-4" x1="940" y1="97.5" x2="940" y2="63"/><line class="cls-4" x1="717" y1="96.5" x2="717" y2="47"/><line class="cls-2" y1="98.5" x2="1607" y2="98.5"/><polyline class="cls-2" points="684 71.5 679 78.5 682 80.5 684 86.5 684.16 66.64 676 83.5 685.6 99.5"/><line class="cls-2" y1="243.5" x2="1607" y2="243.5"/><circle class="cls-6" cx="811" cy="59.5" r="8.5"/><path d="M137,186.18c2.14,0,3.89.55,3.89,1.21v.87c0,.67-2.21,1.21-4.9,1.21s-4.9-4.5-4.9-10v-9.33c0-5.5.45-10,1-10s1,4.5,1,10v6C133.06,181.68,134.81,186.18,137,186.18Z" transform="translate(-10.5 -6)"/><path d="M146.07,179.48c0,5.5-.33,10-.74,10h-.54c-.41,0-.74-4.5-.74-10v-9.33c0-5.5.45-10,1-10s1,4.5,1,10Z" transform="translate(-10.5 -6)"/><path d="M158.84,179.68c-1.09,5.39-2.32,9.8-2.72,9.8h-.52c-.4,0-1.63-4.41-2.72-9.8l-2-9.73c-1.09-5.39-1.51-9.8-.93-9.8s1.91,4.42,3,9.82l1,5c1,5.4,1.93,9.82,2,9.82s.94-4.42,2-9.82l1-5c1-5.4,2.37-9.82,3-9.82s.16,4.41-.93,9.8Z" transform="translate(-10.5 -6)"/><path d="M167.65,179.48c0,5.5-.33,10-.74,10h-.54c-.41,0-.74-4.5-.74-10v-9.33c0-5.5.45-10,1-10s1,4.5,1,10Z" transform="translate(-10.5 -6)"/><path d="M173.76,179.48c0,5.5-.33,10-.73,10h-.52c-.4,0-.73-4.5-.73-10v-9.33c0-5.5.44-10,1-10s2.59,4.2,4.56,9.34l1.59,4.15c2,5.13,3.62,9.34,3.67,9.34s.09-4.5.09-10v-2.83c0-5.5.45-10,1-10s1,4.5,1,10v9.33c0,5.5-.44,10-1,10s-2.6-4.2-4.57-9.33l-1.57-4.08c-2-5.13-3.63-9.33-3.68-9.33s-.09,4.5-.09,10Z" transform="translate(-10.5 -6)"/><path d="M200.44,186.86q-1.88,3.3-5,3.3-3.35,0-5.33-4.17t-2-11.2q0-7,2-11.15t5.31-4.2A5.39,5.39,0,0,1,200,162l1.21,1.69c.57,2.87.58,5.21,0,5.21s-1.44-1.57-1.94-3.48l-.8-1a3.65,3.65,0,0,0-3-1.54q-2.39,0-3.82,3.25a22.07,22.07,0,0,0-1.43,8.72,22.24,22.24,0,0,0,1.42,8.77q1.42,3.22,3.84,3.22a4,4,0,0,0,3.51-2.3l.89-1.53c.25-2.47.45-4.64.45-4.84s-1-.36-2.27-.36-2.27-.72-2.27-1.61,1.47-1.61,3.27-1.61,3.27.8,3.27,1.79-.28,4.73-.63,8.32Z" transform="translate(-10.5 -6)"/><path d="M223.9,189.48c-.58,0-1.33-1.39-1.66-3.09l-.21-1.1-.21-1.1a4,4,0,0,0-3.81-3.09c-1.77,0-3.58,1.89-4,4.2s-1.29,4.2-1.87,4.2-.16-4.41.93-9.8l2-9.73c1.09-5.39,2.44-9.8,3-9.8s1.89,4.41,3,9.8l2,9.73C224.06,185.07,224.48,189.48,223.9,189.48ZM218,164.88a33,33,0,0,0-.73,3.29l-.25,1.3-.75,3.9-.25,1.3c-.35,1.81.54,3.29,2,3.29s2-2.95,1.35-6.54S218.06,164.88,218,164.88Z" transform="translate(-10.5 -6)"/><path d="M227.72,186.37c-.39-2.51-.37-4.56,0-4.56h.54c.41,0,1,1.24,1.31,2.75l.75.91a3.52,3.52,0,0,0,2.84,1.36,3.25,3.25,0,0,0,2.7-1.43,5.87,5.87,0,0,0,1.07-3.61,5.72,5.72,0,0,0-.78-3.11l-.52-.83c-1.06-.64-2.39-1.39-3-1.65s-2.17-1.23-3.56-2.13l-.66-1.25a10.73,10.73,0,0,1-1-5,10.54,10.54,0,0,1,1.57-6,4.8,4.8,0,0,1,4.13-2.31,4.65,4.65,0,0,1,3.92,2.28l1.05,1.52c.36,2.37.19,4.32-.36,4.32s-1.25-1.21-1.55-2.68l-.65-.85a3,3,0,0,0-2.48-1.27,3.06,3.06,0,0,0-2.59,1.34,5.94,5.94,0,0,0-1,3.58,5,5,0,0,0,.72,2.81l.48.72c1,.62,2.29,1.31,2.75,1.54s2.14,1.21,3.71,2.18l.73,1.27a10.37,10.37,0,0,1,1.09,5.14,11.26,11.26,0,0,1-1.63,6.43,5.07,5.07,0,0,1-4.4,2.39,5,5,0,0,1-4.2-2.28Z" transform="translate(-10.5 -6)"/><path d="M260.41,189.48c-.58,0-1.33-1.39-1.66-3.09l-.21-1.1-.21-1.1a4,4,0,0,0-3.81-3.09c-1.77,0-3.58,1.89-4,4.2s-1.29,4.2-1.87,4.2-.16-4.41.93-9.8l2-9.73c1.09-5.39,2.44-9.8,3-9.8s1.89,4.41,3,9.8l2,9.73C260.58,185.07,261,189.48,260.41,189.48Zm-5.89-24.59a33,33,0,0,0-.73,3.29l-.25,1.3-.75,3.9-.25,1.3c-.35,1.81.54,3.29,2,3.29s2-2.95,1.35-6.54S254.57,164.88,254.52,164.88Z" transform="translate(-10.5 -6)"/><path d="M270.7,186.37c-.39-2.51-.37-4.56,0-4.56h.54c.41,0,1,1.24,1.31,2.75l.75.91a3.52,3.52,0,0,0,2.84,1.36,3.25,3.25,0,0,0,2.7-1.43,5.87,5.87,0,0,0,1.07-3.61,5.72,5.72,0,0,0-.78-3.11l-.52-.83c-1.06-.64-2.39-1.39-3-1.65s-2.17-1.23-3.56-2.13l-.66-1.25a10.73,10.73,0,0,1-1-5,10.54,10.54,0,0,1,1.57-6,4.8,4.8,0,0,1,4.13-2.31,4.65,4.65,0,0,1,3.92,2.28l1.05,1.52c.36,2.37.19,4.32-.36,4.32s-1.25-1.21-1.55-2.68l-.65-.85a3,3,0,0,0-2.48-1.27,3.06,3.06,0,0,0-2.59,1.34,5.94,5.94,0,0,0-1,3.58,5,5,0,0,0,.72,2.81l.48.72c1,.62,2.29,1.31,2.75,1.54s2.14,1.21,3.71,2.18l.73,1.27a10.37,10.37,0,0,1,1.09,5.14,11.26,11.26,0,0,1-1.63,6.43,5.07,5.07,0,0,1-4.4,2.39,5,5,0,0,1-4.2-2.28Z" transform="translate(-10.5 -6)"/><path d="M291.58,179.48c0,5.5-.33,10-.74,10h-.54c-.41,0-.74-4.5-.74-10v-6c0-5.5-1.17-10-2.6-10s-2.6-.74-2.6-1.65,2.79-1.65,6.21-1.65,6.21.74,6.21,1.65-1.17,1.65-2.6,1.65-2.6,4.5-2.6,10Z" transform="translate(-10.5 -6)"/><path d="M301,160.15c.55,0,1,2.15,1,4.78v14.22a11.59,11.59,0,0,0,1.15,5.48,3.52,3.52,0,0,0,6.5,0l.76-1.44c.21-2.22.38-8.31.38-13.54s.45-9.5,1-9.5,1,4.33,1,9.62-.26,12.19-.57,15.33l-1.13,2a5.17,5.17,0,0,1-9.42,0l-1.14-2c-.31-3.14-.57-10-.57-15.33S300.4,160.15,301,160.15Z" transform="translate(-10.5 -6)"/><path d="M316.95,170.15c0-5.5.92-10,2-10h3.5q3.59,0,5.61,3.86t2,10.79q0,6.93-2,10.8l-1.34,2.58a30.91,30.91,0,0,1-7,1.29c-1.52,0-2.77-4.5-2.77-10Zm3.71-6.71c-.93,0-1.7,1.87-1.7,4.16V182c0,2.29.76,4.16,1.7,4.16a22.09,22.09,0,0,0,4.9-1l1-2a19,19,0,0,0,1.49-8.35,19.1,19.1,0,0,0-1.5-8.39l-1-2A21.72,21.72,0,0,0,320.66,163.44Z" transform="translate(-10.5 -6)"/><path d="M339.59,186.18c2.2,0,4,.55,4,1.21v.87c0,.67-2.25,1.21-5,1.21s-5-4.5-5-10v-9.33c0-5.5,2.25-10,5-10s5,.74,5,1.65-1.8,1.65-4,1.65-4,2.12-4,4.71,1.7,4.71,3.79,4.71,3.79.73,3.79,1.63-1.7,1.63-3.79,1.63-3.79,2.27-3.79,5S337.4,186.18,339.59,186.18Z" transform="translate(-10.5 -6)"/><path d="M349.23,179.48c0,5.5-.33,10-.73,10H348c-.4,0-.73-4.5-.73-10v-9.33c0-5.5.44-10,1-10s2.59,4.2,4.56,9.34l1.59,4.15c2,5.13,3.62,9.34,3.67,9.34s.09-4.5.09-10v-2.83c0-5.5.45-10,1-10s1,4.5,1,10v9.33c0,5.5-.44,10-1,10s-2.6-4.2-4.57-9.33L353,176.06c-2-5.13-3.63-9.33-3.68-9.33s-.09,4.5-.09,10Z" transform="translate(-10.5 -6)"/><path d="M370.45,179.48c0,5.5-.33,10-.74,10h-.54c-.41,0-.74-4.5-.74-10v-6c0-5.5-1.17-10-2.6-10s-2.6-.74-2.6-1.65,2.79-1.65,6.21-1.65,6.21.74,6.21,1.65-1.17,1.65-2.6,1.65-2.6,4.5-2.6,10Z" transform="translate(-10.5 -6)"/><path d="M387.25,179.48c0,5.5-.33,10-.74,10H386c-.41,0-.74-4.5-.74-10v-9.33c0-5.5.45-10,1-10s1,4.5,1,10Z" transform="translate(-10.5 -6)"/><path d="M393.36,179.48c0,5.5-.33,10-.73,10h-.52c-.4,0-.73-4.5-.73-10v-9.33c0-5.5.44-10,1-10s2.59,4.2,4.56,9.34l1.59,4.15c2,5.13,3.62,9.34,3.67,9.34s.09-4.5.09-10v-2.83c0-5.5.45-10,1-10s1,4.5,1,10v9.33c0,5.5-.44,10-1,10s-2.6-4.2-4.57-9.33l-1.57-4.08c-2-5.13-3.63-9.33-3.68-9.33s-.09,4.5-.09,10Z" transform="translate(-10.5 -6)"/><path d="M426.4,189.48c-.58,0-1.33-1.39-1.66-3.09l-.21-1.1-.21-1.1a4,4,0,0,0-3.81-3.09c-1.77,0-3.58,1.89-4,4.2s-1.29,4.2-1.87,4.2-.16-4.41.93-9.8l2-9.73c1.09-5.39,2.44-9.8,3-9.8s1.89,4.41,3,9.8l2,9.73C426.56,185.07,427,189.48,426.4,189.48Zm-5.89-24.59a33,33,0,0,0-.73,3.29l-.25,1.3-.75,3.9-.25,1.3c-.35,1.81.54,3.29,2,3.29s2-2.95,1.35-6.54S420.55,164.88,420.5,164.88Z" transform="translate(-10.5 -6)"/><path d="M441.84,189.48c-.58,0-1.33-1.39-1.66-3.09l-.21-1.1-.21-1.1a4,4,0,0,0-3.81-3.09c-1.77,0-3.58,1.89-4,4.2s-1.29,4.2-1.87,4.2-.16-4.41.93-9.8l2-9.73c1.09-5.39,2.44-9.8,3-9.8s1.89,4.41,3,9.8l2,9.73C442,185.07,442.42,189.48,441.84,189.48Zm-5.89-24.59a33,33,0,0,0-.73,3.29l-.25,1.3-.75,3.9-.25,1.3c-.35,1.81.54,3.29,2,3.29s2-2.95,1.35-6.54S436,164.88,435.95,164.88Z" transform="translate(-10.5 -6)"/><path d="M449.73,177.87c-1.09,0-2,1.92-2,4.27v3.08c0,2.35-.45,4.26-1,4.26s-1-4.5-1-10v-9.33c0-5.5,1.39-10,3.08-10a26,26,0,0,1,5.89.8l.94,1.59a12.47,12.47,0,0,1,1.4,6.35,14.75,14.75,0,0,1-.86,5.31l-.57,1.49c-1,.89-1,4.36.06,7.71s1.34,6.09.69,6.09-2-2.61-2.91-5.8S450.82,177.87,449.73,177.87Zm0-14.47c-1.07,0-1.94,1.27-1.94,2.83v5.56c0,1.56.89,2.83,2,2.83a18.07,18.07,0,0,0,3.82-.48l.56-1A8.36,8.36,0,0,0,455,169a8.09,8.09,0,0,0-.88-4.13l-.59-1A17.83,17.83,0,0,0,449.68,163.4Z" transform="translate(-10.5 -6)"/><path d="M473.59,179.48c0,5.5-.33,10-.74,10h-.54c-.41,0-.74-3-.74-6.68s-2-6.68-4.43-6.68-4.43,3-4.43,6.68-.45,6.68-1,6.68-1-4.5-1-10v-9.33c0-5.5.45-10,1-10s1,2.85,1,6.34,2,6.34,4.43,6.34,4.43-2.85,4.43-6.34.45-6.34,1-6.34,1,4.5,1,10Z" transform="translate(-10.5 -6)"/><path d="M478.77,160.15c.55,0,1,2.15,1,4.78v14.22a11.59,11.59,0,0,0,1.15,5.48,3.52,3.52,0,0,0,6.5,0l.76-1.44c.21-2.22.38-8.31.38-13.54s.45-9.5,1-9.5,1,4.33,1,9.62S490.33,182,490,185.1l-1.13,2a5.17,5.17,0,0,1-9.42,0l-1.14-2c-.31-3.14-.57-10-.57-15.33S478.21,160.15,478.77,160.15Z" transform="translate(-10.5 -6)"/><path d="M494.69,186.37c-.39-2.51-.37-4.56,0-4.56h.54c.41,0,1,1.24,1.31,2.75l.75.91a3.52,3.52,0,0,0,2.84,1.36,3.25,3.25,0,0,0,2.7-1.43,5.87,5.87,0,0,0,1.07-3.61,5.72,5.72,0,0,0-.78-3.11l-.52-.83c-1.06-.64-2.39-1.39-3-1.65s-2.17-1.23-3.56-2.13l-.66-1.25a10.73,10.73,0,0,1-1-5,10.54,10.54,0,0,1,1.57-6,4.8,4.8,0,0,1,4.13-2.31,4.65,4.65,0,0,1,3.92,2.28l1.05,1.52c.36,2.37.19,4.32-.36,4.32s-1.25-1.21-1.55-2.68l-.65-.85a3,3,0,0,0-2.48-1.27,3.06,3.06,0,0,0-2.59,1.34,5.94,5.94,0,0,0-1,3.58,5,5,0,0,0,.72,2.81l.48.72c1,.62,2.29,1.31,2.75,1.54s2.14,1.21,3.71,2.18l.73,1.27a10.37,10.37,0,0,1,1.09,5.14,11.26,11.26,0,0,1-1.63,6.43,5.07,5.07,0,0,1-4.4,2.39,5,5,0,0,1-4.2-2.28Z" transform="translate(-10.5 -6)"/><path d="M1143.07,189.05c-.64,0-1.47-1.2-1.83-2.67l-.24-1-.24-1c-.36-1.47-2.26-2.67-4.22-2.67a4.92,4.92,0,0,0-4.46,3.63c-.49,2-1.43,3.63-2.07,3.63s0-4.36,1.35-9.68l1.56-6c1.38-5.32,3-9.68,3.62-9.68s2.24,4.36,3.62,9.68l1.56,6C1143.11,184.7,1143.72,189.05,1143.07,189.05Zm-6.53-21.27a23.2,23.2,0,0,0-.81,2.85l-.28,1.13-.83,3.38-.28,1.13a2.18,2.18,0,0,0,2.19,2.85c1.6,0,2.27-2.55,1.5-5.66S1136.6,167.78,1136.54,167.78Z" transform="translate(-10.5 -6)"/><path d="M1149.62,183.56c0,3-.37,5.49-.82,5.49h-.6c-.45,0-.82-4.5-.82-10v-5.37c0-5.5,2.44-10,5.43-10s5.43.64,5.43,1.42-1.94,1.42-4.32,1.42a4.35,4.35,0,0,0-4.32,4.36,4.19,4.19,0,0,0,4,4.36c2.18,0,4,.63,4,1.41s-1.78,1.41-4,1.41S1149.62,180.54,1149.62,183.56Z" transform="translate(-10.5 -6)"/><path d="M1164.15,183.56c0,3-.37,5.49-.82,5.49h-.6c-.45,0-.82-4.5-.82-10v-5.37c0-5.5,2.44-10,5.43-10s5.43.64,5.43,1.42-1.94,1.42-4.32,1.42a4.35,4.35,0,0,0-4.32,4.36,4.19,4.19,0,0,0,4,4.36c2.18,0,4,.63,4,1.41s-1.78,1.41-4,1.41S1164.15,180.54,1164.15,183.56Z" transform="translate(-10.5 -6)"/><path d="M1190,166.67q2.18,3.59,2.18,9.69T1190,186a6.83,6.83,0,0,1-12,0q-2.19-3.6-2.19-9.69t2.21-9.69a6.83,6.83,0,0,1,12,0Zm-10.33,2.13a15.22,15.22,0,0,0-1.6,7.56,15.54,15.54,0,0,0,1.57,7.54,4.74,4.74,0,0,0,8.68,0,18.92,18.92,0,0,0,0-15.1,4.74,4.74,0,0,0-8.64,0Z" transform="translate(-10.5 -6)"/><path d="M1200.47,179c-1.21,0-2.2,1.66-2.2,3.69v2.66c0,2-.5,3.69-1.12,3.69s-1.12-4.5-1.12-10v-5.37c0-5.5,1.54-10,3.42-10a36.49,36.49,0,0,1,6.53.69l1,1.38a8.9,8.9,0,0,1,1.56,5.49,10.27,10.27,0,0,1-1,4.59l-.64,1.29c-1.1.77-1.07,3.77.07,6.67s1.48,5.26.76,5.26-2.17-2.26-3.22-5S1201.68,179,1200.47,179Zm0-12.52a2.32,2.32,0,0,0-2.15,2.45v4.8a2.34,2.34,0,0,0,2.2,2.45,25.39,25.39,0,0,0,4.24-.42l.63-.84a5.94,5.94,0,0,0,.94-3.59,5.77,5.77,0,0,0-1-3.57l-.65-.86A25.07,25.07,0,0,0,1200.42,166.5Z" transform="translate(-10.5 -6)"/><path d="M1212.63,173.69c0-5.5,1-10,2.26-10h3.88A7.07,7.07,0,0,1,1225,167q2.23,3.34,2.23,9.33T1225,185.7l-1.48,2.23a43.05,43.05,0,0,1-7.8,1.12c-1.69,0-3.07-4.5-3.07-10Zm4.11-7.15c-1,0-1.88,1.62-1.88,3.59v12.48c0,2,.85,3.59,1.88,3.59a30.65,30.65,0,0,0,5.43-.86l1.1-1.72a16.61,16.61,0,0,0,0-14.48l-1.11-1.73A30.11,30.11,0,0,0,1216.74,166.53Z" transform="translate(-10.5 -6)"/><path d="M1243.88,189.05c-.64,0-1.47-1.2-1.83-2.67l-.24-1-.24-1c-.36-1.47-2.26-2.67-4.22-2.67a4.92,4.92,0,0,0-4.46,3.63c-.49,2-1.43,3.63-2.07,3.63s0-4.36,1.35-9.68l1.56-6c1.38-5.32,3-9.68,3.62-9.68s2.24,4.36,3.62,9.68l1.56,6C1243.92,184.7,1244.52,189.05,1243.88,189.05Zm-6.53-21.27a23.2,23.2,0,0,0-.81,2.85l-.28,1.13-.83,3.38-.28,1.13a2.18,2.18,0,0,0,2.19,2.85c1.6,0,2.27-2.55,1.5-5.66S1237.4,167.78,1237.35,167.78Z" transform="translate(-10.5 -6)"/><path d="M1255.17,189.05h-5.22c-1,0-1.76-4.5-1.76-10v-5.37c0-5.5,1.54-10,3.42-10a40.63,40.63,0,0,1,6.36.57l.94,1.14a7.9,7.9,0,0,1,.51,8.17l-.6,1.05a7.73,7.73,0,0,0-1.59,1,11.87,11.87,0,0,0,2.2,1l.72,1.11a7.52,7.52,0,0,1,1.08,4.17,7.83,7.83,0,0,1-1.61,5.23A5.54,5.54,0,0,1,1255.17,189.05Zm-2.68-22.57c-1.14,0-2.07,1.35-2.07,3v2.14c0,1.65.8,3,1.79,3a36.22,36.22,0,0,0,4.16-.34l.68-.68a4.12,4.12,0,0,0,1-3,4.46,4.46,0,0,0-.92-3l-.62-.71A27.38,27.38,0,0,0,1252.49,166.48Zm-2.07,15.32c0,2.45.73,4.46,1.63,4.46h2.79a3.94,3.94,0,0,0,3.06-1.14,4.8,4.8,0,0,0,1-3.34,4.57,4.57,0,0,0-1.09-3.31l-.72-.74a38.31,38.31,0,0,0-4.61-.37C1251.36,177.34,1250.42,179.35,1250.42,181.8Z" transform="translate(-10.5 -6)"/><path d="M1271.43,186.2c2.37,0,4.32.47,4.32,1V188c0,.58-2.44,1-5.43,1s-5.43-4.5-5.43-10v-5.37c0-5.5.5-10,1.12-10s1.12,4.5,1.12,10v2.52C1267.11,181.7,1269.05,186.2,1271.43,186.2Z" transform="translate(-10.5 -6)"/><path d="M1286,186.2c2.44,0,4.43.47,4.43,1V188c0,.58-2.49,1-5.54,1s-5.54-4.5-5.54-10v-5.37c0-5.5,2.49-10,5.54-10s5.54.64,5.54,1.42-2,1.42-4.43,1.42a4.27,4.27,0,0,0-4.43,4.07,4.15,4.15,0,0,0,4.2,4.07c2.31,0,4.2.63,4.2,1.41s-1.89,1.41-4.2,1.41a4.29,4.29,0,0,0-4.2,4.36A4.41,4.41,0,0,0,1286,186.2Z" transform="translate(-10.5 -6)"/><path d="M1308.48,179.05c0,5.5-.37,10-.82,10h-.6c-.45,0-.82-4.5-.82-10v-2.52c0-5.5-1.3-10-2.88-10s-2.88-.64-2.88-1.42,3.1-1.42,6.88-1.42,6.88.64,6.88,1.42-1.3,1.42-2.88,1.42-2.88,4.5-2.88,10Z" transform="translate(-10.5 -6)"/><path d="M1332,179.05c0,5.5-.37,10-.82,10h-.6c-.45,0-.82-2.6-.82-5.77s-2.21-5.77-4.91-5.77-4.91,2.6-4.91,5.77-.5,5.77-1.12,5.77-1.12-4.5-1.12-10v-5.37c0-5.5.5-10,1.12-10s1.12,2.47,1.12,5.48,2.21,5.48,4.91,5.48,4.91-2.47,4.91-5.48.5-5.48,1.12-5.48,1.12,4.5,1.12,10Z" transform="translate(-10.5 -6)"/><path d="M1338.78,179.05c0,5.5-.37,10-.82,10h-.6c-.45,0-.82-4.5-.82-10v-5.37c0-5.5.5-10,1.12-10s1.12,4.5,1.12,10Z" transform="translate(-10.5 -6)"/><path d="M1345.55,179.22c0,5.41-.37,9.83-.81,9.83h-.58c-.45,0-.81-4.5-.81-10v-5.37c0-5.5.49-10,1.09-10s3.07,4,5.5,9l.88,1.79c2.43,4.94,4.46,9,4.51,9s.1-4.44.1-9.87.5-9.87,1.1-9.87,1.1,4.5,1.1,10v5.37c0,5.5-.49,10-1.08,10s-3.08-4-5.51-9l-.86-1.74c-2.43-4.93-4.47-9-4.53-9S1345.55,173.81,1345.55,179.22Z" transform="translate(-10.5 -6)"/><path d="M1375.13,186.79a6.51,6.51,0,0,1-5.52,2.86,6.68,6.68,0,0,1-5.91-3.6q-2.2-3.6-2.2-9.69t2.22-9.64a6.68,6.68,0,0,1,5.89-3.63,6.51,6.51,0,0,1,5,2.19l1.34,1.46c.64,2.48.64,4.51,0,4.51s-1.59-1.36-2.15-3l-.88-.89a4.49,4.49,0,0,0-3.32-1.34,4.75,4.75,0,0,0-4.23,2.81,18.94,18.94,0,0,0,0,15.13,4.76,4.76,0,0,0,4.26,2.79,4.63,4.63,0,0,0,3.89-2l1-1.32c.27-2.13.49-4,.49-4.19a5.45,5.45,0,0,0-2.52-.31c-1.38,0-2.52-.62-2.52-1.39s1.63-1.39,3.63-1.39,3.63.7,3.63,1.55-.31,4.09-.69,7.19Z" transform="translate(-10.5 -6)"/><path d="M1381.08,186.37c-.43-2.17-.41-3.94.05-3.94h.6c.46,0,1.11,1.07,1.46,2.38l.83.79a4.39,4.39,0,0,0,3.15,1.18,4,4,0,0,0,3-1.24,4.33,4.33,0,0,0,1.18-3.12,4.13,4.13,0,0,0-.87-2.69l-.58-.71c-1.18-.55-2.65-1.2-3.28-1.43s-2.41-1.06-3.95-1.84l-.74-1.08a8.86,8.86,0,0,1,.64-9.56,5.79,5.79,0,0,1,4.58-2,5.57,5.57,0,0,1,4.34,2l1.17,1.31c.4,2.05.21,3.73-.4,3.73s-1.39-1-1.72-2.32l-.71-.73a3.67,3.67,0,0,0-2.75-1.1,3.74,3.74,0,0,0-2.87,1.16,4.34,4.34,0,0,0-1.09,3.09,3.59,3.59,0,0,0,.8,2.43l.53.62c1.16.54,2.54,1.14,3.05,1.33s2.37,1,4.12,1.89l.81,1.1a7.38,7.38,0,0,1,1.21,4.45,8.16,8.16,0,0,1-1.8,5.56,6.15,6.15,0,0,1-4.88,2.07,6.05,6.05,0,0,1-4.66-2Z" transform="translate(-10.5 -6)"/><path d="M1411.4,179.05c0,5.5-.37,10-.82,10H1410c-.45,0-.82-4.5-.82-10v-2.52c0-5.5-1.3-10-2.88-10s-2.88-.64-2.88-1.42,3.1-1.42,6.88-1.42,6.88.64,6.88,1.42-1.3,1.42-2.88,1.42-2.88,4.5-2.88,10Z" transform="translate(-10.5 -6)"/><path d="M1434.14,166.67q2.18,3.59,2.18,9.69t-2.18,9.69a6.83,6.83,0,0,1-12,0q-2.19-3.6-2.19-9.69t2.21-9.69a6.83,6.83,0,0,1,12,0Zm-10.33,2.13a15.22,15.22,0,0,0-1.6,7.56,15.54,15.54,0,0,0,1.57,7.54,4.74,4.74,0,0,0,8.68,0,18.92,18.92,0,0,0,0-15.1,4.74,4.74,0,0,0-8.64,0Z" transform="translate(-10.5 -6)"/><path d="M1447.36,173.69c0-5.5,1-10,2.26-10h3.88a7.07,7.07,0,0,1,6.21,3.34q2.23,3.34,2.23,9.33t-2.23,9.34l-1.48,2.23a43.05,43.05,0,0,1-7.8,1.12c-1.69,0-3.07-4.5-3.07-10Zm4.11-7.15c-1,0-1.88,1.62-1.88,3.59v12.48c0,2,.85,3.59,1.88,3.59a30.65,30.65,0,0,0,5.43-.86l1.1-1.72a16.61,16.61,0,0,0,0-14.48l-1.11-1.73A30.13,30.13,0,0,0,1451.47,166.53Z" transform="translate(-10.5 -6)"/><path d="M1479.33,166.67q2.18,3.59,2.18,9.69t-2.18,9.69a6.83,6.83,0,0,1-12,0q-2.19-3.6-2.19-9.69t2.21-9.69a6.83,6.83,0,0,1,12,0ZM1469,168.8a15.22,15.22,0,0,0-1.6,7.56,15.55,15.55,0,0,0,1.57,7.54,4.74,4.74,0,0,0,8.68,0,18.91,18.91,0,0,0,0-15.1,4.74,4.74,0,0,0-8.64,0Z" transform="translate(-10.5 -6)"/></svg>