<svg id="Lag_1" data-name="Lag 1" xmlns="http://www.w3.org/2000/svg" viewBox="0 0 1608 148"><defs><style>.cls-1{fill:#32b6cc;stroke:#32b6cc;}.cls-1,.cls-2,.cls-3,.cls-4,.cls-5{stroke-miterlimit:10;}.cls-1,.cls-2{stroke-width:3px;}.cls-2,.cls-5{stroke:#000;}.cls-3{fill:#fff;}.cls-3,.cls-4{stroke:#fff;}.cls-4{fill:none;}.cls-6{fill:#ff0;}</style></defs><title>header</title><path d="M632.93,131.24c-.77-3.89-.73-7.08.09-7.08h1.07c.82,0,2,1.92,2.61,4.27l1.48,1.41a7.88,7.88,0,0,0,5.65,2.11,7.12,7.12,0,0,0,5.37-2.22,7.78,7.78,0,0,0,2.13-5.6,7.42,7.42,0,0,0-1.56-4.83l-1-1.28c-2.11-1-4.76-2.15-5.89-2.57s-4.32-1.9-7.08-3.31l-1.32-1.95a13.62,13.62,0,0,1-2-7.77A13.75,13.75,0,0,1,635.6,93a10.39,10.39,0,0,1,8.22-3.58A10,10,0,0,1,651.61,93l2.09,2.35c.71,3.68.38,6.7-.72,6.7s-2.49-1.87-3.08-4.16l-1.28-1.31a6.59,6.59,0,0,0-4.93-2,6.72,6.72,0,0,0-5.15,2.08,7.8,7.8,0,0,0-1.95,5.55,6.45,6.45,0,0,0,1.44,4.35l1,1.11c2.09,1,4.55,2,5.47,2.39s4.25,1.87,7.39,3.39l1.45,2a13.23,13.23,0,0,1,2.17,8q0,6.28-3.24,10a11,11,0,0,1-8.76,3.71,10.86,10.86,0,0,1-8.36-3.53Z" transform="translate(-10.5 -7)"/><path d="M674.46,126.05c0,5.5-.66,10-1.47,10h-1.07c-.81,0-1.47-4.5-1.47-10v-20.4c0-5.5-2.33-10-5.17-10s-5.17-1.15-5.17-2.55,4.5-2.55,10-2.55h4.7c5.5,0,10,1.15,10,2.55s-2.33,2.55-5.17,2.55-5.17,4.5-5.17,10Z" transform="translate(-10.5 -7)"/><path d="M693.11,90.54c1.1,0,2,3.34,2,7.42V120a14.75,14.75,0,0,0,2.29,8.5,7.89,7.89,0,0,0,12.92,0l1.52-2.24c.42-3.44.76-10.76.76-16.26v-9.49c0-5.5.9-10,2-10s2,4.5,2,10v9.87a181.24,181.24,0,0,1-1.13,18.86l-2.25,3.14a11.65,11.65,0,0,1-18.72,0l-2.26-3.14a180.62,180.62,0,0,1-1.13-18.86v-9.87C691.1,95,692,90.54,693.11,90.54Z" transform="translate(-10.5 -7)"/><path d="M724.9,100.54c0-5.5,1.83-10,4.06-10h7a12.69,12.69,0,0,1,11.15,6q4,6,4,16.75t-4,16.76l-2.66,4a77.24,77.24,0,0,1-14,2c-3,0-5.51-4.5-5.51-10Zm7.38-4.89c-1.85,0-3.37,2.9-3.37,6.45v22.39c0,3.55,1.52,6.45,3.37,6.45A55,55,0,0,0,742,129.4l2-3.09q3-4.64,3-13t-3-13l-2-3.11A54.06,54.06,0,0,0,732.28,95.65Z" transform="translate(-10.5 -7)"/><path d="M769.94,130.94c4.37,0,7.94.85,7.94,1.88v1.35c0,1-4.48,1.88-9.95,1.88a10,10,0,0,1-9.95-10V100.54a10,10,0,0,1,9.95-10c5.47,0,9.95,1.15,9.95,2.55s-3.57,2.55-7.94,2.55S762,98.94,762,103a7.44,7.44,0,0,0,7.53,7.3c4.14,0,7.53,1.14,7.53,2.52s-3.39,2.52-7.53,2.52a7.7,7.7,0,0,0-7.53,7.82A7.91,7.91,0,0,0,769.94,130.94Z" transform="translate(-10.5 -7)"/><path d="M789.1,126.05c0,5.5-.66,10-1.46,10h-1c-.8,0-1.46-4.5-1.46-10V100.54c0-5.5.88-10,1.95-10s3.93,4,6.36,9L802,117c2.43,4.94,4.49,9,4.59,9s.18-4.5.18-10V100.54c0-5.5.89-10,2-10s2,4.5,2,10v25.51c0,5.5-.88,10-1.95,10s-3.94-4-6.37-9l-8.57-17.36c-2.43-4.93-4.51-9-4.6-9s-.18,4.5-.18,10Z" transform="translate(-10.5 -7)"/><path d="M831.31,126.05c0,5.5-.66,10-1.47,10h-1.07c-.81,0-1.47-4.5-1.47-10v-20.4c0-5.5-2.33-10-5.17-10S817,94.5,817,93.1s4.5-2.55,10-2.55h4.7c5.5,0,10,1.15,10,2.55s-2.33,2.55-5.17,2.55-5.17,4.5-5.17,10Z" transform="translate(-10.5 -7)"/><path d="M883.92,132a11.68,11.68,0,0,1-9.9,5.13q-6.65,0-10.6-6.47t-3.95-17.38q0-10.79,4-17.3T874,89.47a11.69,11.69,0,0,1,9,3.93L885.38,96c1.14,4.45,1.16,8.09,0,8.09s-2.85-2.43-3.85-5.4L880,97.1a8.06,8.06,0,0,0-6-2.4q-4.76,0-7.6,5t-2.84,13.53q0,8.61,2.81,13.61t7.64,5a8.3,8.3,0,0,0,7-3.56l1.77-2.38c.49-3.83.89-7.21.89-7.51s-2-.55-4.52-.55-4.52-1.12-4.52-2.49,2.93-2.49,6.51-2.49,6.51,1.25,6.51,2.78-.55,7.24-1.22,12.7A32.69,32.69,0,0,1,883.92,132Z" transform="translate(-10.5 -7)"/><path d="M896.84,90.54c1.1,0,2,3.34,2,7.42V120a14.75,14.75,0,0,0,2.29,8.5,7.89,7.89,0,0,0,12.92,0l1.52-2.24c.42-3.44.76-10.76.76-16.26v-9.49c0-5.5.9-10,2-10s2,4.5,2,10v9.87a181.24,181.24,0,0,1-1.13,18.86L917,132.41a11.65,11.65,0,0,1-18.72,0L896,129.27a180.62,180.62,0,0,1-1.13-18.86v-9.87C894.84,95,895.74,90.54,896.84,90.54Z" transform="translate(-10.5 -7)"/><path d="M932.65,126.05c0,5.5-.66,10-1.47,10h-1.07c-.81,0-1.47-4.5-1.47-10V100.54c0-5.5.9-10,2-10s2,4.5,2,10Z" transform="translate(-10.5 -7)"/><path d="M940.83,100.54c0-5.5,1.83-10,4.06-10h7a12.69,12.69,0,0,1,11.15,6q4,6,4,16.75T963,130l-2.66,4a77.23,77.23,0,0,1-14,2c-3,0-5.51-4.5-5.51-10Zm7.38-4.89c-1.85,0-3.37,2.9-3.37,6.45v22.39c0,3.55,1.52,6.45,3.37,6.45A55,55,0,0,0,958,129.4l2-3.09q3-4.64,3-13t-3-13l-2-3.11A54.06,54.06,0,0,0,948.21,95.65Z" transform="translate(-10.5 -7)"/><path d="M985.87,130.94c4.37,0,7.94.85,7.94,1.88v1.35c0,1-4.48,1.88-9.95,1.88a10,10,0,0,1-9.95-10V100.54a10,10,0,0,1,9.95-10c5.47,0,9.95,1.15,9.95,2.55s-3.57,2.55-7.94,2.55-7.94,3.29-7.94,7.3a7.44,7.44,0,0,0,7.53,7.3c4.14,0,7.53,1.14,7.53,2.52s-3.39,2.52-7.53,2.52a7.7,7.7,0,0,0-7.53,7.82A7.91,7.91,0,0,0,985.87,130.94Z" transform="translate(-10.5 -7)"/><path d="M682.39,75.82c-2.28,0-5.21-2.41-6.5-5.36l-.83-1.91-.83-1.91c-1.29-2.95-6.85-5.36-12.35-5.36h-5.21c-5.5,0-11.43,3.27-13.18,7.27s-5.05,7.27-7.33,7.27-2.27-4.09,0-9.09l15-32.65c2.3-5,5.94-9.09,8.09-9.09s5.79,4.09,8.09,9.09l15,32.65C684.66,71.73,684.67,75.82,682.39,75.82ZM659.26,33.21a33.36,33.36,0,0,0-2.86,5.71l-1,2.25-2.94,6.76-1,2.25c-1.38,3.14,2,5.71,7.49,5.71h.56c5.5,0,8.2-4.12,6-9.16l-1.91-4.36C661.42,37.33,659.46,33.21,659.26,33.21Z" transform="translate(-10.5 -7)"/><path d="M743,75.82c-2.28,0-5.21-2.41-6.5-5.36l-.83-1.91-.83-1.91c-1.29-2.95-6.85-5.36-12.35-5.36h-5.21c-5.5,0-11.43,3.27-13.18,7.27s-5.05,7.27-7.33,7.27-2.27-4.09,0-9.09l15-32.65c2.3-5,5.94-9.09,8.09-9.09s5.79,4.09,8.09,9.09l15,32.65C745.27,71.73,745.28,75.82,743,75.82ZM719.87,33.21A33.36,33.36,0,0,0,717,38.91l-1,2.25-2.94,6.76-1,2.25c-1.38,3.14,2,5.71,7.49,5.71h.56c5.5,0,8.2-4.12,6-9.16l-1.91-4.36C722,37.33,720.07,33.21,719.87,33.21Z" transform="translate(-10.5 -7)"/><path d="M774,55.71a7.62,7.62,0,0,0-7.8,7.39v5.33c0,4.06-1.78,7.39-4,7.39s-4-4.5-4-10V35a10,10,0,0,1,10-10h4.2a194.12,194.12,0,0,1,19.92,1.24s1.09.14,4.77,2.9a13.09,13.09,0,0,1,5.51,11,13.52,13.52,0,0,1-3.38,9.19L797,51.92c-3.91,1.54-4.53,6.5-1.39,11l3.25,4.68c3.14,4.52,3.62,8.21,1.08,8.21s-7.15-3.73-10.23-8.29L787.35,64C784.27,59.44,778.25,55.71,774,55.71Zm-.18-25.07c-4.19,0-7.62,2.21-7.62,4.91v9.63c0,2.7,3.51,4.91,7.8,4.91s11-.38,15-.84l2.21-1.68a8.5,8.5,0,0,0,3.32-7.2A8.4,8.4,0,0,0,791,33.21l-2.31-1.71C784.69,31,778,30.64,773.79,30.64Z" transform="translate(-10.5 -7)"/><path d="M867.62,65.82c0,5.5-1.3,10-2.9,10h-2.11c-1.59,0-2.9-4.5-2.9-10V62.68a10,10,0,0,0-10-10H834.93a10,10,0,0,0-10,10v3.14c0,5.5-1.78,10-4,10s-4-4.5-4-10V35c0-5.5,1.78-10,4-10s4,4.5,4,10v2a10,10,0,0,0,10,10h14.79a10,10,0,0,0,10-10V35c0-5.5,1.78-10,4-10s4,4.5,4,10Z" transform="translate(-10.5 -7)"/><path d="M888,25c2.17,0,4,3.73,4,8.29V57.93a11.81,11.81,0,0,0,4.52,9.49q4.52,3.75,12.74,3.75t12.76-3.75l3-2.5a99.89,99.89,0,0,0,1.5-17V35c0-5.5,1.78-10,4-10s4,4.5,4,10V48.35a108.64,108.64,0,0,1-2.2,19.76s0,.13-4.48,3.64S917,77,909.17,77s-14-1.75-18.47-5.26-4.5-3.65-4.5-3.65A108.31,108.31,0,0,1,884,48.35V35C884,29.5,885.78,25,888,25Z" transform="translate(-10.5 -7)"/><path d="M950.45,70.44c-1.52-4.35-1.44-7.9.18-7.9h2.11c1.62,0,3.94,2.14,5.15,4.77l2.93,1.57A23.42,23.42,0,0,0,972,71.24a20.56,20.56,0,0,0,10.61-2.48q4.19-2.48,4.19-6.25a6.38,6.38,0,0,0-3.08-5.39l-2-1.43c-4.16-1.11-9.4-2.4-11.63-2.86s-8.39-2.09-13.67-3.61A20.36,20.36,0,0,1,953.44,47a10.73,10.73,0,0,1-3.91-8.68q0-6.48,6.17-10.48t16.23-4q9.18,0,15.37,3.94l4.13,2.63c1.4,4.11.76,7.48-1.43,7.48s-4.92-2.09-6.08-4.64l-2.53-1.47a19.22,19.22,0,0,0-9.73-2.2q-6.32,0-10.17,2.32t-3.84,6.2a5.62,5.62,0,0,0,2.83,4.86l1.89,1.24c4.12,1.08,9,2.28,10.8,2.66s7.66,1.89,13,3.34a15,15,0,0,1,4.47,2.65,10.68,10.68,0,0,1,4.28,8.91q0,7-6.39,11.15T971.23,77q-10.06,0-16.49-3.94Z" transform="translate(-10.5 -7)"/><path class="cls-1" d="M536.5-123.5" transform="translate(-10.5 -7)"/><line class="cls-2" y1="1.5" x2="1605" y2="1.5"/><line class="cls-2" y1="146.5" x2="1608" y2="146.5"/><polyline class="cls-2" points="114.06 130.3 146 130.5 146 88.75 168 109.5 184 88.5 197 109.5 202 95.5 202 130.5 218 130.5 218 79.5 232 74.5 247 79.5 247 130.5 273 130.5 273 69.5 301 78.5 301 130.5 313 130.5 313 33.5 341 33.5 341 130.5 358 130.5 358 104.5 365 94.5 372 104.5 372 130.5 380 130.5 380 114.5 386 105.5 392 113.5 392 130.5 404 130.5 404 102.5 458 91.5 479 104.5 479 130.5 495 130.5 495 115.5 501 104.5 508 115.5 508 130.5 526.11 130.5"/><line class="cls-3" x1="314.5" y1="110.5" x2="339.5" y2="110.5"/><line class="cls-3" x1="314.5" y1="71.5" x2="339.5" y2="71.5"/><line class="cls-3" x1="314.5" y1="45.5" x2="339.5" y2="45.5"/><line class="cls-4" x1="322" y1="131" x2="321" y2="34"/><line class="cls-4" x1="333" y1="132" x2="332" y2="35"/><line class="cls-5" x1="312" y1="34" x2="312" y2="132"/><line class="cls-4" x1="456" y1="129.5" x2="456" y2="95"/><line class="cls-4" x1="233" y1="128.5" x2="233" y2="79"/><line class="cls-2" x1="118" y1="130.5" x2="526" y2="130.5"/><polyline class="cls-2" points="200 103.5 195 110.5 198 112.5 200 118.5 200.16 98.64 192 115.5 201.59 131.5"/><circle class="cls-6" cx="327" cy="91.5" r="8.5"/><polyline class="cls-2" points="1094.06 131.3 1126 131.5 1126 89.75 1148 110.5 1164 89.5 1177 110.5 1182 96.5 1182 131.5 1198 131.5 1198 80.5 1212 75.5 1227 80.5 1227 131.5 1253 131.5 1253 70.5 1281 79.5 1281 131.5 1293 131.5 1293 34.5 1321 34.5 1321 131.5 1338 131.5 1338 105.5 1345 95.5 1352 105.5 1352 131.5 1360 131.5 1360 115.5 1366 106.5 1372 114.5 1372 131.5 1384 131.5 1384 103.5 1438 92.5 1459 105.5 1459 131.5 1475 131.5 1475 116.5 1481 105.5 1488 116.5 1488 131.5 1506.11 131.5"/><line class="cls-3" x1="1294.5" y1="111.5" x2="1319.5" y2="111.5"/><line class="cls-3" x1="1294.5" y1="72.5" x2="1319.5" y2="72.5"/><line class="cls-3" x1="1294.5" y1="46.5" x2="1319.5" y2="46.5"/><line class="cls-4" x1="1302" y1="132" x2="1301" y2="35"/><line class="cls-4" x1="1313" y1="133" x2="1312" y2="36"/><line class="cls-5" x1="1292" y1="35" x2="1292" y2="133"/><line class="cls-4" x1="1436" y1="130.5" x2="1436" y2="96"/><line class="cls-4" x1="1213" y1="129.5" x2="1213" y2="80"/><line class="cls-2" x1="1098" y1="131.5" x2="1506" y2="131.5"/><polyline class="cls-2" points="1180 104.5 1175 111.5 1178 113.5 1180 119.5 1180.16 99.64 1172 116.5 1181.6 132.5"/><circle class="cls-6" cx="1307" cy="92.5" r="8.5"/></svg>