<svg id="Lag_1" data-name="Lag 1" xmlns="http://www.w3.org/2000/svg" viewBox="0 0 413.5 245"><defs><style>.cls-1{fill:#32b6cc;stroke:#32b6cc;}.cls-1,.cls-2,.cls-3,.cls-4,.cls-5{stroke-miterlimit:10;}.cls-1,.cls-2{stroke-width:3px;}.cls-2,.cls-5{stroke:#000;}.cls-3{fill:#fff;}.cls-3,.cls-4{stroke:#fff;}.cls-4{fill:none;}.cls-6{fill:#ff0;}</style></defs><title>logo</title><path d="M32.93,227.24c-.77-3.89-.73-7.08.09-7.08H34.1c.82,0,2,1.92,2.61,4.27l1.48,1.41A7.88,7.88,0,0,0,43.84,228a7.12,7.12,0,0,0,5.37-2.22,7.78,7.78,0,0,0,2.13-5.6,7.42,7.42,0,0,0-1.56-4.83l-1-1.28c-2.11-1-4.76-2.15-5.89-2.57s-4.32-1.9-7.08-3.31l-1.32-1.95A15.91,15.91,0,0,1,35.6,189a10.39,10.39,0,0,1,8.22-3.58A10,10,0,0,1,51.61,189l2.09,2.35c.71,3.68.38,6.7-.72,6.7s-2.49-1.87-3.08-4.16l-1.28-1.31a6.59,6.59,0,0,0-4.93-2,6.72,6.72,0,0,0-5.15,2.08,7.8,7.8,0,0,0-1.95,5.55A6.45,6.45,0,0,0,38,202.59l1,1.11c2.09,1,4.55,2,5.47,2.39s4.25,1.87,7.39,3.39l1.45,2a13.23,13.23,0,0,1,2.17,8q0,6.28-3.24,10a11,11,0,0,1-8.76,3.71,10.86,10.86,0,0,1-8.36-3.53Z" transform="translate(-7.5 -6)"/><path d="M74.46,222.05c0,5.5-.66,10-1.47,10H71.92c-.81,0-1.47-4.5-1.47-10v-20.4c0-5.5-2.33-10-5.17-10s-5.17-1.15-5.17-2.55,4.5-2.55,10-2.55h4.7c5.5,0,10,1.15,10,2.55s-2.33,2.55-5.17,2.55-5.17,4.5-5.17,10Z" transform="translate(-7.5 -6)"/><path d="M93.11,186.54c1.1,0,2,3.34,2,7.42V216a14.75,14.75,0,0,0,2.29,8.5,7.89,7.89,0,0,0,12.92,0l1.52-2.24c.42-3.44.76-10.76.76-16.26v-9.49c0-5.5.9-10,2-10s2,4.5,2,10v9.87a181.24,181.24,0,0,1-1.13,18.86l-2.25,3.14a11.65,11.65,0,0,1-18.72,0l-2.26-3.14a180.62,180.62,0,0,1-1.13-18.86v-9.87C91.1,191,92,186.54,93.11,186.54Z" transform="translate(-7.5 -6)"/><path d="M124.9,196.54c0-5.5,1.83-10,4.06-10h7a12.69,12.69,0,0,1,11.15,6q4,6,4,16.75t-4,16.76l-2.66,4a77.24,77.24,0,0,1-14,2c-3,0-5.51-4.5-5.51-10Zm7.38-4.89c-1.85,0-3.37,2.9-3.37,6.45v22.39c0,3.55,1.52,6.45,3.37,6.45A55,55,0,0,0,142,225.4l2-3.09q3-4.64,3-13t-3-13l-2-3.11A54.06,54.06,0,0,0,132.28,191.65Z" transform="translate(-7.5 -6)"/><path d="M169.94,226.94c4.37,0,7.94.85,7.94,1.88v1.35c0,1-4.48,1.88-9.95,1.88a10,10,0,0,1-9.95-10V196.54a10,10,0,0,1,9.95-10c5.47,0,9.95,1.15,9.95,2.55s-3.57,2.55-7.94,2.55S162,194.94,162,199a7.44,7.44,0,0,0,7.53,7.3c4.14,0,7.53,1.14,7.53,2.52s-3.39,2.52-7.53,2.52a7.7,7.7,0,0,0-7.53,7.82A7.91,7.91,0,0,0,169.94,226.94Z" transform="translate(-7.5 -6)"/><path d="M189.1,222.05c0,5.5-.66,10-1.46,10h-1c-.8,0-1.46-4.5-1.46-10V196.54c0-5.5.88-10,1.95-10s3.93,4,6.36,9L202,213c2.43,4.94,4.49,9,4.59,9s.18-4.5.18-10V196.54c0-5.5.89-10,2-10s2,4.5,2,10v25.51c0,5.5-.88,10-1.95,10s-3.94-4-6.37-9l-8.57-17.36c-2.43-4.93-4.51-9-4.6-9s-.18,4.5-.18,10Z" transform="translate(-7.5 -6)"/><path d="M231.31,222.05c0,5.5-.66,10-1.47,10h-1.07c-.81,0-1.47-4.5-1.47-10v-20.4c0-5.5-2.33-10-5.17-10S217,190.5,217,189.1s4.5-2.55,10-2.55h4.7c5.5,0,10,1.15,10,2.55s-2.33,2.55-5.17,2.55-5.17,4.5-5.17,10Z" transform="translate(-7.5 -6)"/><path d="M283.92,228a11.68,11.68,0,0,1-9.9,5.13q-6.65,0-10.6-6.47t-3.95-17.38q0-10.79,4-17.3T274,185.47a11.69,11.69,0,0,1,9,3.93l2.41,2.62c1.14,4.45,1.16,8.09,0,8.09s-2.85-2.43-3.85-5.4L280,193.1a8.06,8.06,0,0,0-6-2.4q-4.76,0-7.6,5t-2.84,13.53q0,8.61,2.81,13.61t7.64,5a8.3,8.3,0,0,0,7-3.56l1.77-2.38c.49-3.83.89-7.21.89-7.51s-2-.55-4.52-.55-4.52-1.12-4.52-2.49,2.93-2.49,6.51-2.49,6.51,1.25,6.51,2.78-.55,7.24-1.22,12.7A32.69,32.69,0,0,1,283.92,228Z" transform="translate(-7.5 -6)"/><path d="M296.84,186.54c1.1,0,2,3.34,2,7.42V216a14.75,14.75,0,0,0,2.29,8.5,7.89,7.89,0,0,0,12.92,0l1.52-2.24c.42-3.44.76-10.76.76-16.26v-9.49c0-5.5.9-10,2-10s2,4.5,2,10v9.87a181.24,181.24,0,0,1-1.13,18.86L317,228.41a11.65,11.65,0,0,1-18.72,0L296,225.27a180.62,180.62,0,0,1-1.13-18.86v-9.87C294.84,191,295.74,186.54,296.84,186.54Z" transform="translate(-7.5 -6)"/><path d="M332.65,222.05c0,5.5-.66,10-1.47,10h-1.07c-.81,0-1.47-4.5-1.47-10V196.54c0-5.5.9-10,2-10s2,4.5,2,10Z" transform="translate(-7.5 -6)"/><path d="M340.83,196.54c0-5.5,1.83-10,4.06-10h7a12.69,12.69,0,0,1,11.15,6q4,6,4,16.75T363,226l-2.66,4a77.23,77.23,0,0,1-14,2c-3,0-5.51-4.5-5.51-10Zm7.38-4.89c-1.85,0-3.37,2.9-3.37,6.45v22.39c0,3.55,1.52,6.45,3.37,6.45A55,55,0,0,0,358,225.4l2-3.09q3-4.64,3-13t-3-13l-2-3.11A54.06,54.06,0,0,0,348.21,191.65Z" transform="translate(-7.5 -6)"/><path d="M385.87,226.94c4.37,0,7.94.85,7.94,1.88v1.35c0,1-4.48,1.88-9.95,1.88a10,10,0,0,1-9.95-10V196.54a10,10,0,0,1,9.95-10c5.47,0,9.95,1.15,9.95,2.55s-3.57,2.55-7.94,2.55-7.94,3.29-7.94,7.3a7.44,7.44,0,0,0,7.53,7.3c4.14,0,7.53,1.14,7.53,2.52s-3.39,2.52-7.53,2.52a7.7,7.7,0,0,0-7.53,7.82A7.91,7.91,0,0,0,385.87,226.94Z" transform="translate(-7.5 -6)"/><path d="M82.39,171.82c-2.28,0-5.21-2.41-6.5-5.36l-.83-1.91-.83-1.91c-1.29-2.95-6.85-5.36-12.35-5.36H56.66c-5.5,0-11.43,3.27-13.18,7.27s-5.05,7.27-7.33,7.27-2.27-4.09,0-9.09l15-32.65c2.3-5,5.94-9.09,8.09-9.09s5.79,4.09,8.09,9.09l15,32.65C84.66,167.73,84.67,171.82,82.39,171.82ZM59.26,129.21a33.36,33.36,0,0,0-2.86,5.71l-1,2.25-2.94,6.76-1,2.25c-1.38,3.14,2,5.71,7.49,5.71h.56c5.5,0,8.2-4.12,6-9.16l-1.91-4.36C61.42,133.33,59.46,129.21,59.26,129.21Z" transform="translate(-7.5 -6)"/><path d="M143,171.82c-2.28,0-5.21-2.41-6.5-5.36l-.83-1.91-.83-1.91c-1.29-2.95-6.85-5.36-12.35-5.36h-5.21c-5.5,0-11.43,3.27-13.18,7.27s-5.05,7.27-7.33,7.27-2.27-4.09,0-9.09l15-32.65c2.3-5,5.94-9.09,8.09-9.09s5.79,4.09,8.09,9.09l15,32.65C145.27,167.73,145.28,171.82,143,171.82Zm-23.12-42.61a33.36,33.36,0,0,0-2.86,5.71l-1,2.25-2.94,6.76-1,2.25c-1.38,3.14,2,5.71,7.49,5.71h.56c5.5,0,8.2-4.12,6-9.16l-1.91-4.36C122,133.33,120.07,129.21,119.87,129.21Z" transform="translate(-7.5 -6)"/><path d="M174,151.71a7.62,7.62,0,0,0-7.8,7.39v5.33c0,4.06-1.78,7.39-4,7.39s-4-4.5-4-10V131a10,10,0,0,1,10-10h4.2a194.12,194.12,0,0,1,19.92,1.24s1.09.14,4.77,2.9a13.09,13.09,0,0,1,5.51,11,13.52,13.52,0,0,1-3.38,9.19L197,147.92c-3.91,1.54-4.53,6.5-1.39,11l3.25,4.68c3.14,4.52,3.62,8.21,1.08,8.21s-7.15-3.73-10.23-8.29L187.35,160C184.27,155.44,178.25,151.71,174,151.71Zm-.18-25.07c-4.19,0-7.62,2.21-7.62,4.91v9.63c0,2.7,3.51,4.91,7.8,4.91s11-.38,15-.84l2.21-1.68a8.5,8.5,0,0,0,3.32-7.2,8.4,8.4,0,0,0-3.47-7.15l-2.31-1.71C184.69,127,178,126.64,173.79,126.64Z" transform="translate(-7.5 -6)"/><path d="M267.62,161.82c0,5.5-1.3,10-2.9,10h-2.11c-1.59,0-2.9-4.5-2.9-10v-3.14a10,10,0,0,0-10-10H234.93a10,10,0,0,0-10,10v3.14c0,5.5-1.78,10-4,10s-4-4.5-4-10V131c0-5.5,1.78-10,4-10s4,4.5,4,10v2a10,10,0,0,0,10,10h14.79a10,10,0,0,0,10-10v-2c0-5.5,1.78-10,4-10s4,4.5,4,10Z" transform="translate(-7.5 -6)"/><path d="M288,121c2.17,0,4,3.73,4,8.29v24.64a11.81,11.81,0,0,0,4.52,9.49q4.52,3.75,12.74,3.75t12.76-3.75l3-2.5a99.89,99.89,0,0,0,1.5-17V131c0-5.5,1.78-10,4-10s4,4.5,4,10v13.35a108.64,108.64,0,0,1-2.2,19.76s0,.13-4.48,3.64S317,173,309.17,173s-14-1.75-18.47-5.26-4.5-3.65-4.5-3.65a108.31,108.31,0,0,1-2.2-19.75V131C284,125.5,285.78,121,288,121Z" transform="translate(-7.5 -6)"/><path d="M350.45,166.44c-1.52-4.35-1.44-7.9.18-7.9h2.11c1.62,0,3.94,2.14,5.15,4.77l2.93,1.57A23.42,23.42,0,0,0,372,167.24a20.56,20.56,0,0,0,10.61-2.48q4.19-2.48,4.19-6.25a6.38,6.38,0,0,0-3.08-5.39l-2-1.43c-4.16-1.11-9.4-2.4-11.63-2.86s-8.39-2.09-13.67-3.61a20.36,20.36,0,0,1-2.91-2.26,10.73,10.73,0,0,1-3.91-8.68q0-6.48,6.17-10.48t16.23-4q9.18,0,15.37,3.94l4.13,2.63c1.4,4.11.76,7.48-1.43,7.48s-4.92-2.09-6.08-4.64l-2.53-1.47a19.22,19.22,0,0,0-9.73-2.2q-6.32,0-10.17,2.32t-3.84,6.2a5.62,5.62,0,0,0,2.83,4.86l1.89,1.24c4.12,1.08,9,2.28,10.8,2.66s7.66,1.89,13,3.34a15,15,0,0,1,4.47,2.65,10.68,10.68,0,0,1,4.28,8.91q0,7-6.39,11.15T371.23,173q-10.06,0-16.49-3.94Z" transform="translate(-7.5 -6)"/><path class="cls-1" d="M-63.5-27.5" transform="translate(-7.5 -6)"/><polyline class="cls-2" points="0.06 98.3 32 98.5 32 56.75 54 77.5 70 56.5 83 77.5 88 63.5 88 98.5 104 98.5 104 47.5 118 42.5 133 47.5 133 98.5 159 98.5 159 37.5 187 46.5 187 98.5 199 98.5 199 1.5 227 1.5 227 98.5 244 98.5 244 72.5 251 62.5 258 72.5 258 98.5 266 98.5 266 82.5 272 73.5 278 81.5 278 98.5 290 98.5 290 70.5 344 59.5 365 72.5 365 98.5 381 98.5 381 83.5 387 72.5 394 83.5 394 98.5 412.11 98.5"/><line class="cls-3" x1="200.5" y1="78.5" x2="225.5" y2="78.5"/><line class="cls-3" x1="200.5" y1="39.5" x2="225.5" y2="39.5"/><line class="cls-3" x1="200.5" y1="13.5" x2="225.5" y2="13.5"/><line class="cls-4" x1="208" y1="99" x2="207" y2="2"/><line class="cls-4" x1="219" y1="100" x2="218" y2="3"/><line class="cls-5" x1="198" y1="2" x2="198" y2="100"/><line class="cls-4" x1="342" y1="97.5" x2="342" y2="63"/><line class="cls-4" x1="119" y1="96.5" x2="119" y2="47"/><line class="cls-2" x1="4" y1="98.5" x2="412" y2="98.5"/><polyline class="cls-2" points="86 71.5 81 78.5 84 80.5 86 86.5 86.16 66.64 78 83.5 87.59 99.5"/><line class="cls-2" y1="243.5" x2="413.5" y2="243.5"/><circle class="cls-6" cx="213" cy="59.5" r="8.5"/></svg>