<?xml version="1.0" encoding="utf-8"?>
<!-- Generator: Adobe Illustrator 21.0.2, SVG Export Plug-In . SVG Version: 6.00 Build 0)  -->
<svg version="1.1" id="Layer_1" xmlns="http://www.w3.org/2000/svg" xmlns:xlink="http://www.w3.org/1999/xlink" x="0px" y="0px"
	 viewBox="0 0 512 512" style="enable-background:new 0 0 512 512;" xml:space="preserve">
<style type="text/css">
	.st0{fill:#F9F7F8;}
</style>
<g>
	<path class="st0" d="M255.9,183.8c-39.7,0-72.1,32.4-72.1,72.1s32.4,72.1,72.1,72.1c39.7,0,72.1-32.4,72.1-72.1
		S295.6,183.8,255.9,183.8z"/>
	<path class="st0" d="M423.3,0H88.5C39.7,0,0,39.7,0,88.5v335C0,472.3,39.7,512,88.5,512h335c48.8,0,88.5-39.7,88.5-88.5v-335
		C511.7,39.7,472.1,0,423.3,0z M255.9,403.8c-81.4,0-147.9-66.2-147.9-147.9S174.2,108,255.9,108s147.9,66.2,147.9,147.9
		S337.3,403.8,255.9,403.8z M457.9,90.5c0,20.2-16.4,36.7-36.7,36.7l0,0c-20.2,0-36.7-16.4-36.7-36.7l0,0
		c0-20.2,16.4-36.7,36.7-36.7l0,0C441.5,53.9,457.9,70.3,457.9,90.5L457.9,90.5z"/>
</g>
</svg>
