<?xml version="1.0" encoding="utf-8"?>
<!-- Generator: Adobe Illustrator 16.0.0, SVG Export Plug-In . SVG Version: 6.00 Build 0)  -->
<!DOCTYPE svg PUBLIC "-//W3C//DTD SVG 1.1//EN" "http://www.w3.org/Graphics/SVG/1.1/DTD/svg11.dtd">
<svg version="1.1" id="Layer_1" xmlns="http://www.w3.org/2000/svg" xmlns:xlink="http://www.w3.org/1999/xlink" x="0px" y="0px"
	 width="1224px" height="432px" viewBox="0 0 1224 432" enable-background="new 0 0 1224 432" xml:space="preserve">
<g>
	<path fill="#231F20" d="M17.259,173.803h109.2v6.65h-20.3v108.5h69.65v-108.5h-20.65v-6.65h109.55v6.65H244.06v231.699h20.649v6.65
		h-109.55v-6.65h20.65v-114.1h-69.65v114.1h20.3v6.65h-109.2v-6.65h20.65V180.453h-20.65V173.803z"/>
	<path fill="#231F20" d="M402.606,422.303c-38.97,0-68.075-10.555-87.325-31.675c-19.25-21.115-28.875-51.68-28.875-91.7
		c0-40.015,10.325-71.515,30.976-94.5c20.649-22.979,49.875-34.475,87.675-34.475s66.325,10.91,85.575,32.725
		c19.25,21.82,28.875,52.795,28.875,92.925c0,40.136-9.745,71.285-29.226,93.45C470.797,411.223,441.571,422.303,402.606,422.303z
		 M447.406,310.652v-25.899c0-42.7-2.1-69.65-6.3-80.851c-4.67-12.829-11.32-20.765-19.95-23.8c-4.899-1.864-10.85-2.8-17.85-2.8
		s-13.01,0.936-18.025,2.8c-5.02,1.87-9.16,5.136-12.425,9.8c-3.271,4.671-5.896,9.57-7.875,14.7
		c-1.985,5.136-3.56,12.37-4.725,21.7c-1.4,13.535-2.101,33.485-2.101,59.85v25.2c0,28.471,1.105,48.71,3.325,60.726
		c2.215,12.02,4.955,20.595,8.226,25.725c7.229,11.436,18.43,17.15,33.6,17.15c18.43,0,30.39-7.755,35.875-23.275
		C444.661,376.163,447.406,349.152,447.406,310.652z"/>
	<path fill="#231F20" d="M636.229,393.603c7.35,11.436,20.59,17.15,39.725,17.15c19.13,0,33.83-5.95,44.101-17.851
		c10.265-11.899,15.399-29.979,15.399-54.25V180.453h-22.75v-6.65h51.101v6.65h-19.25v155.75c0,28.935-6.421,50.52-19.25,64.75
		c-12.835,14.234-35.525,21.35-68.075,21.35s-57.4-6.765-74.55-20.3c-17.15-13.53-25.726-36.75-25.726-69.65V180.453h-19.25v-6.65
		h110.25v6.65h-22.75v163.8C625.203,365.723,628.879,382.173,636.229,393.603z"/>
	<path fill="#231F20" d="M884.203,294.902h-18.55v117.25h22.75v6.65h-113.75v-6.65h22.75V180.453h-22.75v-6.65h105.7
		c30.329,0,51.854,1.575,64.575,4.725c12.715,3.15,21.64,6.945,26.774,11.375c11.2,9.101,16.8,23.57,16.8,43.4
		c0,19.835-4.899,34.01-14.699,42.525c-9.801,8.52-24.735,13.595-44.801,15.225v1.05c18.9,2.57,32.08,8.171,39.551,16.8
		c7.465,8.636,11.199,23.101,11.199,43.4v18.55c0,12.136,0.641,20.3,1.926,24.5c1.279,4.2,4.024,6.3,8.225,6.3
		s7.525-1.925,9.975-5.774c2.45-3.851,4.726-11.955,6.825-24.325l5.95,0.7c-2.57,19.835-7.061,33.135-13.475,39.899
		c-6.421,6.766-19.195,10.15-38.325,10.15c-19.136,0-32.726-4.49-40.775-13.475c-8.05-8.98-12.075-25.84-12.075-50.575v-25.55
		c0-13.065-1.695-22.63-5.074-28.7C899.543,297.938,893.304,294.902,884.203,294.902z M865.653,180.453v107.8h11.2
		c13.3,0,23.154-4.08,29.575-12.25c6.414-8.165,9.625-21.465,9.625-39.9v-10.149c0-18.43-3.096-30.625-9.275-36.575
		c-6.186-5.95-16.045-8.925-29.575-8.925H865.653z"/>
	<path fill="#231F20" d="M1126.753,414.953c11.665,0,21.99-3.15,30.975-9.45c8.98-6.3,13.476-15.805,13.476-28.525
		c0-12.715-4.846-22.454-14.525-29.225c-9.685-6.765-23.45-12.655-41.3-17.675c-17.85-5.016-30.8-9.391-38.85-13.125
		c-8.051-3.73-15.695-8.63-22.926-14.7c-14.47-12.13-21.699-30.915-21.699-56.351c0-20.765,7.404-38.614,22.225-53.55
		c14.814-14.93,35.055-22.399,60.725-22.399c12.365,0,25.255,1.81,38.676,5.425c13.414,3.62,21.754,5.425,25.024,5.425
		c3.265,0,6.18-2.33,8.75-7h3.851l2.449,70.7h-5.6c-11.2-20.3-22.925-36.575-35.175-48.825s-25.55-18.375-39.9-18.375
		c-14.35,0-25.495,3.325-33.425,9.975c-7.936,6.65-11.9,15.521-11.9,26.601c0,11.085,4.726,19.6,14.176,25.55
		c9.449,5.95,21.055,10.795,34.824,14.525c13.766,3.734,22.805,6.3,27.125,7.699c4.315,1.4,9.68,3.325,16.101,5.775
		c6.415,2.45,11.665,5.021,15.75,7.7c4.079,2.685,8.399,6.07,12.95,10.149c4.55,4.086,8.104,8.575,10.675,13.476
		c6.3,11.2,9.45,24.5,9.45,39.899c0,25.2-7.875,45.445-23.625,60.726c-15.75,15.285-36.461,22.925-62.125,22.925
		c-13.301,0-28.525-1.75-45.676-5.25c-17.149-3.5-26.66-5.25-28.524-5.25c-3.271,0-6.421,3.5-9.45,10.5h-4.9l-3.5-83.3h5.95
		c10.265,20.3,23.39,38.035,39.375,53.2C1092.157,407.373,1109.018,414.953,1126.753,414.953z"/>
</g>
<g>
	<path fill="#EF562D" d="M383.627,50.767l5.6-3.4c0.8-4.131-0.8-6.2-4.8-6.2c-5.734,0-8.6,4.4-8.6,13.2
		c0,3.469,0.465,7.469,1.399,12c10.132,6.8,15.2,15.5,15.2,26.1s-3.669,18.834-11,24.7c-7.334,5.869-17.269,8.8-29.8,8.8
		c-5.2,0-10.601-0.531-16.2-1.6c-5.869,3.734-8.8,6.534-8.8,8.4c0,1.869,4.266,2.8,12.8,2.8h20.4
		c30.266,0,45.399,10.869,45.399,32.6c0,11.731-4.568,21.031-13.7,27.9c-9.134,6.865-23.368,10.3-42.699,10.3
		c-32.935,0-49.4-7.134-49.4-21.4c0-7.734,5.131-13.069,15.4-16l12,5.4c-1.069,3.866-1.601,7.531-1.601,11
		c0,11.466,8.531,17.2,25.601,17.2c10.399,0,18.399-1.935,24-5.8c5.6-3.869,8.399-8.668,8.399-14.4c0-5.734-1.7-9.569-5.1-11.5
		c-3.4-1.935-10.169-2.9-20.3-2.9h-19.4c-10.8,0-18.534-1.8-23.2-5.4c-4.669-3.6-7-8.031-7-13.3c0-5.266,1.666-9.666,5-13.2
		c3.331-3.531,9.266-7.9,17.8-13.1c-15.469-4.4-23.199-14.531-23.199-30.4c0-10,3.6-18.066,10.8-24.2c7.2-6.131,18-9.2,32.399-9.2
		c8.666,0,16.066,1.669,22.2,5c-0.8-3.6-1.2-6.865-1.2-9.8c0-7.466,2-12.866,6-16.2c4-3.331,8.466-5,13.4-5
		c4.932,0,8.9,1.3,11.9,3.9c3,2.6,4.5,6.168,4.5,10.7c0,4.535-1.2,7.9-3.601,10.1c-2.399,2.2-5.3,3.3-8.7,3.3
		c-3.399,0-6.199-0.9-8.399-2.7C384.927,56.667,383.758,54.102,383.627,50.767z M341.227,88.167v10.8c0,8.934,0.766,15,2.3,18.2
		c1.531,3.2,3.866,4.8,7,4.8c3.132,0,5.4-1.566,6.801-4.7c1.399-3.131,2.1-9.565,2.1-19.3v-9.8c0-10.4-0.669-17.231-2-20.5
		c-1.334-3.266-3.568-4.9-6.7-4.9c-3.134,0-5.5,1.7-7.1,5.1C342.026,71.267,341.227,78.036,341.227,88.167z"/>
	<path fill="#EF562D" d="M416.225,145.567c-8.535-8.531-12.801-20.766-12.801-36.7c0-15.931,4.566-28.2,13.7-36.8
		c9.132-8.6,21.966-12.9,38.5-12.9c16.531,0,28.866,3.969,37,11.9c8.132,7.934,12.2,20.034,12.2,36.3c0,34-16.935,51-50.8,51
		C437.355,158.367,424.756,154.102,416.225,145.567z M466.424,116.967v-17c0-12.931-0.699-22.366-2.1-28.3
		c-1.4-5.931-4.635-8.9-9.7-8.9c-2.935,0-5.3,0.834-7.1,2.5c-1.8,1.669-3.101,4.435-3.9,8.3c-1.2,6-1.8,15.134-1.8,27.4v15.6
		c0,14.534,0.432,23.269,1.3,26.2c0.866,2.935,1.766,5.334,2.7,7.2c1.466,3.2,4.331,4.8,8.6,4.8c5.2,0,8.601-3,10.2-9
		C465.824,141.501,466.424,131.901,466.424,116.967z"/>
	<path fill="#EF562D" d="M509.624,6.367h49v146.4h11.2v3.6h-59.4v-3.6h11V9.967h-11.8V6.367z"/>
	<path fill="#EF562D" d="M641.623,156.367l-2.2-14c-4.534,10.669-13.734,16-27.6,16c-11.469,0-20.369-4.131-26.7-12.4
		c-6.334-8.266-9.5-20.6-9.5-37c0-33.2,13.2-49.8,39.6-49.8c11.731,0,19.466,3.269,23.2,9.8v-59h-12.2v-3.6h50v146.4h9.801v3.6
		H641.623z M616.423,142.867c1.466,4.6,4.166,6.9,8.101,6.9c3.931,0,7.331-1.731,10.199-5.2c2.866-3.466,4.301-8.6,4.301-15.4v-43.6
		c0-5.731-1.135-10.6-3.4-14.6c-2.269-4-5.6-6-10-6s-7.4,2.934-9,8.8c-1.6,5.869-2.4,16.134-2.4,30.8v10.4
		C614.223,128.967,614.954,138.267,616.423,142.867z"/>
	<path fill="#EF562D" d="M705.123,145.067c-8.601-8.866-12.9-21.2-12.9-37c0-15.8,4.831-27.9,14.5-36.3
		c9.666-8.4,21.966-12.6,36.9-12.6c30.266,0,44.8,15.2,43.6,45.6h-56.4v7.8c0,13.068,1.666,22.934,5,29.6
		c3.332,6.669,9.132,10,17.4,10c15.466,0,25.6-8.266,30.4-24.8l3.6,0.6c-2.534,9.6-7.1,17.069-13.7,22.4c-6.6,5.334-16.5,8-29.7,8
		C726.623,158.367,713.723,153.936,705.123,145.067z M731.022,100.767h20.601v-9.8c0-10.8-0.635-18.166-1.9-22.1
		c-1.269-3.931-3.8-5.9-7.6-5.9c-3.801,0-6.601,2.1-8.4,6.3c-1.8,4.2-2.7,11.435-2.7,21.7V100.767z"/>
	<path fill="#EF562D" d="M794.821,61.167h48.199v18.4c2.132-6.131,5.4-11.066,9.801-14.8c4.399-3.731,11.065-5.6,20-5.6
		c20.665,0,31,11.135,31,33.4v60.2h11.199v3.6h-56.6v-3.6h8.2v-65c0-8-0.534-13.166-1.601-15.5c-1.068-2.331-3-3.5-5.8-3.5
		c-4.269,0-8.034,2.8-11.3,8.4c-3.269,5.6-4.9,12.4-4.9,20.4v55.2h8.601v3.6h-56.8v-3.6h11v-88h-11V61.167z"/>
</g>
</svg>
