<?xml version="1.0" encoding="utf-8"?>
<!-- Generator: Adobe Illustrator 16.0.0, SVG Export Plug-In . SVG Version: 6.00 Build 0)  -->
<!DOCTYPE svg PUBLIC "-//W3C//DTD SVG 1.1//EN" "http://www.w3.org/Graphics/SVG/1.1/DTD/svg11.dtd">
<svg version="1.1" id="Layer_1" xmlns="http://www.w3.org/2000/svg" xmlns:xlink="http://www.w3.org/1999/xlink" x="0px" y="0px"
	 width="288px" height="252px" viewBox="0 0 288 252" enable-background="new 0 0 288 252" xml:space="preserve">
<g>
	<path fill="#231F20" d="M30.407,3.141h109.2v6.65h-20.3v108.5h69.65V9.792h-20.65v-6.65h109.55v6.65h-20.649V241.49h20.649v6.65
		h-109.55v-6.65h20.65v-114.1h-69.65v114.1h20.3v6.65h-109.2v-6.65h20.65V9.792h-20.65V3.141z"/>
</g>
<g>
	<path fill="#EF562D" d="M68.657,35.132l4.2-2.55c0.6-3.099-0.6-4.65-3.6-4.65c-4.301,0-6.45,3.3-6.45,9.9
		c0,2.602,0.35,5.602,1.05,9c7.598,5.1,11.4,11.625,11.4,19.575c0,7.95-2.751,14.125-8.25,18.525c-5.501,4.401-12.952,6.6-22.35,6.6
		c-3.9,0-7.95-0.398-12.15-1.2c-4.401,2.801-6.6,4.901-6.6,6.3c0,1.402,3.199,2.1,9.6,2.1h15.3c22.699,0,34.05,8.152,34.05,24.45
		c0,8.798-3.427,15.773-10.275,20.925c-6.851,5.149-17.527,7.725-32.025,7.725c-24.701,0-37.05-5.35-37.05-16.049
		c0-5.801,3.849-9.802,11.55-12l9,4.049c-0.801,2.9-1.2,5.648-1.2,8.25c0,8.6,6.398,12.9,19.2,12.9c7.8,0,13.8-1.451,18-4.35
		c4.2-2.902,6.3-6.502,6.3-10.801c0-4.301-1.275-7.176-3.825-8.625c-2.55-1.451-7.626-2.175-15.225-2.175h-14.55
		c-8.1,0-13.901-1.35-17.4-4.05c-3.501-2.7-5.25-6.023-5.25-9.975c0-3.949,1.249-7.249,3.75-9.9
		c2.499-2.648,6.949-5.925,13.35-9.825c-11.602-3.3-17.4-10.898-17.4-22.8c0-7.5,2.7-13.549,8.1-18.15c5.4-4.599,13.5-6.9,24.3-6.9
		c6.499,0,12.049,1.251,16.65,3.75c-0.6-2.7-0.9-5.149-0.9-7.35c0-5.599,1.5-9.649,4.5-12.15c3-2.499,6.349-3.75,10.05-3.75
		c3.698,0,6.675,0.975,8.925,2.925c2.25,1.95,3.375,4.626,3.375,8.025c0,3.401-0.9,5.925-2.7,7.575
		c-1.8,1.65-3.975,2.475-6.525,2.475c-2.55,0-4.65-0.675-6.3-2.025C69.632,39.558,68.756,37.633,68.657,35.132z M36.857,63.183v8.1
		c0,6.701,0.574,11.25,1.725,13.65c1.148,2.4,2.899,3.6,5.25,3.6c2.348,0,4.05-1.174,5.1-3.525c1.05-2.348,1.575-7.174,1.575-14.475
		v-7.35c0-7.8-0.501-12.923-1.5-15.375c-1.001-2.449-2.677-3.675-5.025-3.675c-2.351,0-4.125,1.275-5.325,3.825
		C37.458,50.507,36.857,55.584,36.857,63.183z"/>
</g>
</svg>
